<?xml version="1.0" encoding="utf-8"?>
<!-- Generator: Adobe Illustrator 22.1.0, SVG Export Plug-In . SVG Version: 6.00 Build 0)  -->
<svg version="1.1" id="Слой_1" xmlns="http://www.w3.org/2000/svg" x="0px"
     y="0px"
     viewBox="0 0 841.9 595.3" style="enable-background:new 0 0 841.9 595.3;" xml:space="preserve">
<style type="text/css">
	.st0{fill:#8AB626;}
	.st1{fill:#F49A57;}
	.st2{fill:#E04575;}
	.st3{fill:#C1D455;}
	.st4{fill:#285F2A;}
	.st5{fill:#D38149;}
	.st6{fill:#077C99;}
	.st7{opacity:8.000000e-02;}
	.st8{fill:#020203;}
	.st9{opacity:0.16;}
	.st10{opacity:0.15;}
	.st11{opacity:0.17;}
	.st12{fill:#FFFFFF;}
	.st13{opacity:0.32;}
	.st14{fill:#737373;}
	.st15{fill:#045664;}
	.st16{fill:#F2F2F2;}
	.st17{fill:#2B868A;}
	.st18{fill:#FAFAFA;}
	.st19{fill:#36A8A9;}
	.st20{opacity:0.13;}
</style>
    <g>
	<g>
		<path class="st0" d="M609.9,324.6c-9.6-31.2-6.1-64.8-14.3-96.3c-14.1-53.9-51.8-102.9-108.4-114.6
			c-71.1-14.7-143.6,14-191.4,67.4c-8.3,9.3-15.8,19.2-22.5,29.8c-26.3,41.7-40.7,90.2-65.8,132.9c-33.3,56.6-57.7,153.7,19.2,188.9
			c60.1,27.5,127-12.6,188.5-12.3c5.4,0,10.7,0.3,16.1,0.9c59.2,6.6,123.2,28.5,182.9,23.3c57.3-4.9,84.8-66.7,72.6-118.7
			c-7-29.9-35.3-50.3-57.9-68.6C618.6,348.9,613.7,336.7,609.9,324.6z"/>
	</g>
        <g>
		<g>
			<path class="st1" d="M334.8,233.1l-6.5,7.3l-4.3,4.8l-5.9,6.5l-8.8,9.8c-0.7,0.8-1.9,0.9-2.7,0.4l-32.7-21.4l-27.4-18l-37-24.3
				c-0.9-0.6-2.1-0.4-2.8,0.4l-1.8,2.1c-0.8,0.9-2.1,1-3,0.2l-4.2-3.7c-0.9-0.8-0.9-2.1-0.2-3l46.1-54.4l3.7-4.3
				c0.8-0.9,2.2-1,3.1-0.2l3.9,3.8c0.8,0.8,0.9,2,0.2,2.9l-2.3,2.8c-0.7,0.8-0.6,2.1,0.1,2.9l31.5,31.5l22.5,22.6l28.5,28.6
				C335.5,231,335.6,232.3,334.8,233.1z"/>
		</g>
            <g>
			<path class="st1" d="M338.4,256.2l-0.6,0.7l-1.7,2c-0.7,0.9-2,1.1-3,0.6l-15-7.8c0,0,0,0,0,0c-1.4-0.7-1.7-2.5-0.8-3.7l6.7-8.2
				c0.1-0.1,0.2-0.2,0.3-0.3c1-0.9,2.6-0.8,3.5,0.3l0.4,0.5l10.1,12.7C339.1,254,339.1,255.3,338.4,256.2z"/>
		</g>
            <g>
			<polygon class="st2"
                     points="306.2,201.6 296.7,213.1 273.9,240.4 246.5,222.4 275.2,188.9 283.7,179.1 			"/>
		</g>
	</g>
        <g>
		<g>
			<path class="st3" d="M210.8,311.4c43.4,21.4,71,66.2,71.2,115.8C247.7,396.3,238.7,358.5,210.8,311.4z"/>
		</g>
            <g>
			<path class="st3" d="M257.7,412.1c-19.3-15.1-38.7-30.3-60.6-41.5c-21.9-11.2-46.5-18.1-71.3-15.7c7.7,7.6,16.5,14.6,25.9,19.7
				C185.4,392.9,220.1,404,257.7,412.1z"/>
		</g>
            <g>
			<path class="st3" d="M371.9,486.7c-0.9,0.3-1.7,0.7-2.6,1c-5.5,2.2-11,4.2-16.5,6c-22.6,7.6-45.1,12.7-68.9,14
				c-0.3,0-0.6,0-0.9,0c-8.3,0.4-16.8-0.9-24.9-3.1c6.2-5.3,13-9.5,20.1-12.7c11.3-5.1,23.4-7.9,35.4-8.9
				c14.3-1.2,28.6-0.1,42.9,1.6c3.6,0.4,7.3,0.9,10.9,1.4C368.9,486.3,370.4,486.5,371.9,486.7z"/>
		</g>
            <g>
			<path class="st3" d="M165.8,425.7c5.7,0.8,10.5,0.2,14.2-0.1c16-1.2,32-4.1,47.9-4.6c7.1-0.2,14.3-0.2,21.4,0.3
				c3.2,0.2,6.5,0.5,9.7,0.9c2.9,0.4,22.4,4.4,22.6,4.5c-5.6,2.2-10.6,3.8-15,5.7c-7.3,3.1-14.7,6-22.1,7.7
				c-12.5,2.9-25.1,3.2-37.5,1.2C192.6,438.9,179.4,434.5,165.8,425.7z"/>
		</g>
            <g>
			<path class="st3" d="M370.7,486.4c-1-2.1-3.2-5-5.4-11c-1.2-3.4-2.4-6.7-3.6-10.1c2.3-13.2,2.1-26.8-2-39.6
				c-3.2-10.2-8.8-19.4-14.8-28.3c-1.2-5.1-2.4-10.1-3.7-15.1c1.7,1,5,2.8,6.2,3.8c14.7,10.6,21.8,25.4,24.8,41.8
				C375.6,446.5,373.5,467.2,370.7,486.4z"/>
		</g>
            <g>
			<path class="st3" d="M332.5,459.5c-1.8-1.2-11.9,3.7-14.2,4.5c-13.8,4.8-27.3,9.8-41.6,11.6c-1.7,0.2-3.4,0.4-5.1,0.5
				c-19.3,1.4-39.2-2.4-57.1-12.9c6.6-0.8,10.3-1.4,13.2-1.7c5.4-0.7,10.8-1.3,16.2-1.9c13.5-1.5,26.9-3.5,40.4-5.2
				c2.5-0.3,5-0.6,7.5-0.9C305.1,452.3,320,450.8,332.5,459.5z"/>
		</g>
            <g>
			<path class="st3" d="M403.2,518.8c-11.3-10.5-22.9-20.7-34.5-30.3c-0.7-0.5-1.3-1.1-2-1.6c-2.8-2.3-5.7-4.7-8.9-7.3
				c-21.5-17.3-43.2-32.7-64.3-45.9c-4.1-2.5-8.1-5-12.1-7.3c-1.6-0.9-3.2-1.9-4.7-2.7c-7-4-13.7-7.6-20-10.8
				c-6.5-3.2-10.1-4.7-10.2-4.8l0.8-1.8c0,0,3.7,1.5,10.3,4.8c6.3,3.1,13.1,6.8,20.1,10.8c1.5,0.9,3.1,1.8,4.7,2.7
				c4,2.3,8.1,4.8,12.2,7.4c21.2,13.2,42.9,28.7,64.5,46c3.2,2.6,6.2,5,8.9,7.3c0.7,0.5,1.3,1.1,2,1.6c11.6,9.6,23.2,19.9,34.6,30.4
				L403.2,518.8z"/>
		</g>
	</g>
        <g>
		<g>
			<g>
				<path class="st4" d="M705.8,448.6c-42.8,22.7-95.3,18.8-135.5-10.1C615.4,428.9,660,452,705.8,448.6z"/>
			</g>
		</g>
            <g>
			<g>
				<path class="st4" d="M596.8,427.7c23.6-6.8,47.3-13.6,69.1-24.8c21.8-11.2,41.9-27.1,54.5-48.7c-10.6,1.8-21.5,4.8-31.2,9.5
					C654.7,380.3,625.3,401.9,596.8,427.7z"/>
			</g>
		</g>
            <g>
			<g>
				<path class="st4" d="M469.5,476.7c13.4-14.1,27-28.3,37-45.1c10.1-16.8,16.6-36.5,15-57.6c-6.7,5.4-12.9,11.8-17.5,19.1
					C487.5,418.7,477.2,446.2,469.5,476.7z"/>
			</g>
		</g>
            <g>
			<g>
				<path class="st4" d="M634.8,489.8c-26.5,6-54.8,3.5-80.5-6.7c-9.3-3.7-18.3-8.4-26.7-14.1c-3.7-2.5-7.4-5.1-10.8-8
					c3.8-1.5,9.2-1.4,14.6-0.9c5.5,0.5,11.1,1.6,15.4,2.1c10.3,1.2,20.5,3.1,30.6,5.6c10.1,2.5,20,5.7,29.8,9.4
					c4.9,1.9,9.7,3.9,14.5,6.1C624,484.4,631.6,488.7,634.8,489.8z"/>
			</g>
		</g>
            <g>
			<g>
				<path class="st4" d="M639.6,345.2c-4,4.2-6.3,8.4-8.2,11.5c-8.4,13.6-15.3,28.3-24.3,41.6c-4,5.9-8.2,11.7-12.8,17.1
					c-2.1,2.5-4.2,5-6.4,7.4c-2,2.1-16.7,15.6-16.9,15.7c1.5-5.9,3.1-10.8,4.2-15.5c1.7-7.7,3.8-15.4,6.7-22.5
					c4.9-11.8,12.1-22.3,21-31.1C613.1,359.2,624.4,351.1,639.6,345.2z"/>
			</g>
		</g>
            <g>
			<g>
				<path class="st4" d="M572,513c-1.8,0.8-5.2,2.4-6.7,2.9c-7.5,2.5-14.7,3.3-21.8,2.9c-9.2-0.5-18-3.2-26.5-7.3
					c-10.3-4.9-20-11.9-29.2-19.6c-6.1-5.1-11.9-10.5-17.4-15.9c2.3,0.4,5.9,0.3,12.1,2c3.9,1.1,7.7,2.2,11.6,3.4
					c11.1,3.5,22,7.6,32.6,12.3c5.7,2.5,11.4,5,17.1,7.5C553.1,505.2,562.5,509.2,572,513z"/>
			</g>
		</g>
            <g>
			<g>
				<path class="st4" d="M580.6,362.7c-3.3,5.8-4.9,9.1-6.3,11.7c-2.6,4.8-5.3,9.5-8,14.2c-7.9,14-15.2,28.4-23.2,42.4
					c-2.7,4.8-5.6,9.8-9,14.3c-5,6.6-11.1,12.4-19.6,15.3c2.1-0.7,4-11.8,4.7-14.2c4.6-15.7,9-31.1,17.5-45
					c3.3-5.4,7.2-10.6,11.5-15.4C557,376.4,567.9,368.3,580.6,362.7z"/>
			</g>
		</g>
            <g>
			<g>
				<path class="st4" d="M425.5,485.4l-0.5-2.3c15.2-3,30.2-6.5,44.8-10.2c0.8-0.2,1.6-0.4,2.5-0.6c10.3-2.7,20.6-5.6,30.6-8.7
					c9.6-2.9,19.2-6.1,28.5-9.4c14-5,27.4-10.3,39.9-15.7c1.6-0.7,3.2-1.4,4.7-2.1c7.5-3.4,14.4-6.8,20.6-10
					c6.4-3.4,9.8-5.4,9.8-5.5l1.3,2c-0.1,0.1-3.4,2.1-9.9,5.5c-6.3,3.3-13.3,6.7-20.8,10.1c-1.5,0.7-3.1,1.4-4.8,2.1
					c-12.5,5.5-26,10.8-40.1,15.8c-9.3,3.3-18.9,6.5-28.6,9.4c-10,3.1-20.3,6-30.7,8.7c-0.8,0.2-1.6,0.4-2.5,0.6
					C455.8,478.9,440.7,482.4,425.5,485.4z"/>
			</g>
		</g>
	</g>
        <g>
		<g>
			<path class="st4" d="M449.2,356.6l-10.7-14.4c0,0-4.5,25.4-14.9,27.1c-0.2,0-0.4,0-0.5,0.1c-7.2,0.2,0.3-22.8,4-32.8
				c1-2.8,1.7-4.6,1.7-4.6s-0.9-1.1-2.4-3c-5.8-7.2-21.1-25-32.1-27.4c0,0,1.4,59.9-14.8,54.3c-16.3-5.6,5.6-23.1,0.5-46.3
				c0,0-3.4-12.8-6.3-16.4l-7.4-1.4l-28.8-5.6c0,0,15.9,41.2,6.3,46.2c-9.5,5-15.4-40.2-20.3-44.1l-23.7,5.3c0,0,15.9,23.8,4.8,30.8
				c-11.1,7-19.2-22.9-13.5-28c0,0-27.3,7-33.5,3c0,0-8.8,36.4-6.1,39.5c0,0,23.7-6.6,22.6,4.5c-1.1,11.1-23.1,2.5-23.1,2.5
				s-0.2,14.4,4.6,22.1c0,0,32.4,0,42.6-4.7c10.3-4.7,8.7,10.9-10.9,15.6c-19.4,4.6-32.1,0.1-32.4,0l18.2,39.5
				c0,0,35.3-19.3,41.6-11c0.6,0.8,1,1.7,1.1,2.5c0.7,4.1-3.7,8.6-11,11.9c-6.7,3-15.7,5.1-25.4,5c0,0,5.5,9.1,13.1,17.3
				c5,5.4,10.9,10.4,16.6,12c0,0,41.4-29,47.5-22.5c4.3,4.6,0.8,13-12.2,21.3c-5.5,3.5-12.8,6.9-21.9,10c0,0,32.3,18.7,60.7,15.6
				c28.4-3.1,45.2-20.5,52.9-39.8C436.2,440.7,465.5,394.1,449.2,356.6z M373.3,369.2c1.4-4.5,5.1-7.3,8.3-6.3c3.1,1,4.5,5.4,3,9.9
				c-1.4,4.5-5.1,7.3-8.3,6.3C373.3,378.1,371.9,373.6,373.3,369.2z M337.2,346.2c1.6-4.4,5.4-7,8.5-5.9c3.1,1.1,4.3,5.6,2.6,10
				c-1.6,4.4-5.4,7-8.5,5.9C336.7,355.1,335.6,350.6,337.2,346.2z"/>
		</g>
	</g>
        <g>
		<g>
			<g>
				<path class="st3" d="M186.6,546.7c-0.7,2.6-0.9,5.5,0,8.1c0.5,1.5,1.6,3,3.1,3.5c1.3,0.4,2.7-0.1,3.8-0.8s1.9-1.9,2.6-3.1
					c3-5,4.4-11.4,1.8-16.7C193.5,529,187.6,543.2,186.6,546.7z"/>
			</g>
		</g>
            <g>
			<g>
				<path class="st3" d="M219.8,530.1c-0.9,3.4-1.7,6.9-0.7,10.3c0.2,0.6,0.5,1.3,1,1.7c0.8,0.7,2,0.8,3,0.6
					c2.5-0.6,4.2-2.8,5.4-5.1c2.5-4.7,3.3-10.6,0.9-15.3c-0.4-0.9-1-1.7-1.9-2.1C223.4,517.9,220.5,527.6,219.8,530.1z"/>
			</g>
		</g>
            <g>
			<g>
				<path class="st3" d="M229.2,523c-0.3,0.1-0.6,0-0.8-0.2c-5.6-10.3-13.1-25.9-18.4-37.1c-0.1-0.3,0-0.6,0.3-0.8
					c0.3-0.1,0.6,0,0.8,0.3c5.3,11.2,12.8,26.8,18.4,37C229.6,522.5,229.5,522.8,229.2,523C229.2,523,229.2,523,229.2,523z"/>
			</g>
		</g>
            <g>
			<g>
				<path class="st3" d="M197.6,538.8c-0.3,0.1-0.6,0-0.8-0.2c-3.1-5.6-6.1-11.4-9-17.1c-2.9-5.6-5.8-11.4-8.9-17
					c-0.2-0.3-0.1-0.6,0.2-0.8c0.3-0.1,0.6-0.1,0.8,0.2c3.1,5.6,6.1,11.4,9,17.1c2.9,5.6,5.8,11.4,8.9,17
					C198,538.3,197.9,538.6,197.6,538.8C197.6,538.8,197.6,538.8,197.6,538.8z"/>
			</g>
		</g>
            <g>
			<g>
				<polygon class="st3" points="208.4,480.8 210.9,486 180.8,506.8 178,501.6 				"/>
			</g>
                <g>
				<polygon class="st3" points="213.8,492 216.4,497.2 186.2,518 183.4,512.9 				"/>
			</g>
                <g>
				<path class="st3" d="M181,507.2c-0.1,0-0.2,0.1-0.3,0c-0.1,0-0.2-0.1-0.3-0.2l-2.8-5.1c-0.1-0.2,0-0.4,0.1-0.6l30.4-20.9
					c0.1-0.1,0.2-0.1,0.4-0.1c0.1,0,0.2,0.1,0.3,0.2l2.5,5.2c0.1,0.2,0,0.4-0.1,0.6L181,507.2C181,507.1,181,507.1,181,507.2z
					 M178.6,501.8l2.3,4.3l29.5-20.3l-2.2-4.4L178.6,501.8z"/>
			</g>
		</g>
	</g>
        <g>
		<g>
			<g>
				<path class="st3" d="M385.8,142.9c-0.3,2.3-0.1,4.8,1,6.9c0.6,1.2,1.7,2.4,3.1,2.6c1.1,0.2,2.3-0.4,3.1-1.2
					c0.8-0.8,1.4-1.8,1.8-2.9c2-4.6,2.4-10.2-0.5-14.3C389.5,127.1,386.2,139.8,385.8,142.9z"/>
			</g>
		</g>
            <g>
			<g>
				<path class="st3" d="M412,124.9c-0.4,2.9-0.6,6.1,0.7,8.8c0.2,0.5,0.5,1,1,1.4c0.7,0.5,1.8,0.5,2.6,0.1c2-0.8,3.2-2.9,4-5
					c1.5-4.3,1.6-9.4-1.1-13.1c-0.5-0.7-1.1-1.3-1.8-1.6C413.5,114.2,412.2,122.7,412,124.9z"/>
			</g>
		</g>
            <g>
			<g>
				<path class="st3" d="M419,117.8c-0.2,0.2-0.5,0.1-0.7-0.1c-6-8-14.2-20.3-20-29.2c-0.1-0.2-0.1-0.5,0.1-0.7
					c0.2-0.1,0.5-0.1,0.7,0.1c5.8,8.9,14,21.2,19.9,29.2C419.3,117.3,419.3,117.6,419,117.8C419,117.8,419,117.8,419,117.8z"/>
			</g>
		</g>
            <g>
			<g>
				<path class="st3" d="M394.2,134.9c-0.2,0.2-0.5,0.1-0.7-0.1c-3.3-4.4-6.5-9-9.6-13.4c-3.1-4.4-6.3-9-9.6-13.4
					c-0.2-0.2-0.1-0.5,0.1-0.7c0.2-0.2,0.5-0.1,0.7,0.1c3.3,4.4,6.5,9,9.6,13.4c3.1,4.4,6.3,9,9.6,13.4
					C394.4,134.4,394.4,134.7,394.2,134.9C394.2,134.9,394.2,134.9,394.2,134.9z"/>
			</g>
		</g>
            <g>
			<g>
				<polygon class="st3" points="396.5,84.5 399.2,88.6 376.1,109.8 373.2,105.8 				"/>
			</g>
                <g>
				<path class="st3" d="M376.3,110.1c-0.1,0.1-0.2,0.1-0.3,0.1c-0.1,0-0.2-0.1-0.3-0.2l-2.9-4c-0.1-0.2-0.1-0.4,0-0.5l23.3-21.2
					c0.1-0.1,0.2-0.1,0.3-0.1c0.1,0,0.2,0.1,0.3,0.2l2.8,4.1c0.1,0.2,0.1,0.4-0.1,0.5L376.3,110.1
					C376.4,110,376.4,110.1,376.3,110.1z M373.7,105.8l2.5,3.4l22.5-20.7l-2.3-3.4L373.7,105.8z"/>
			</g>
		</g>
	</g>
        <g>
		<g>
			<path class="st1" d="M447.5,384.3c-29.4-26-55.8-111.1-55.8-111.1l12.2-4.6l11.3-4.2c5.2,12.8,9.6,24.3,13.3,34.6
				C451.6,364.2,447.5,384.3,447.5,384.3z"/>
		</g>
            <g>
			<polygon class="st5" points="415.2,264.4 403.9,268.6 391.7,273.2 379.6,224.9 379.6,224.7 379.6,224.6 391.4,220.2 391.4,220.2 
							"/>
		</g>
            <g>
			<path class="st6" d="M391.5,220.2L391.5,220.2l-11.9,4.5l-0.3,0.1c0,0-0.7-0.2-1.9-0.8c-7.4-3.2-32.6-17.3-12.6-53.2
				c0,0,0.1,0.2,0.3,0.5c1.3,2.3,7,11.9,16.3,14.9C391.9,189.6,398.9,208,391.5,220.2z"/>
		</g>
	</g>
        <g class="st7">
		<g>
			<path class="st8" d="M318.3,464c-13.8,4.8-27.3,9.8-41.6,11.6c0.2-3.4,0.8-6.7,1.9-10c1.4-4,3.4-7.6,5.6-11.2
				c2.5-0.3,5-0.6,7.5-0.9c13.3-1.4,28.3-2.9,40.8,5.8C330.7,458.3,320.6,463.2,318.3,464z"/>
		</g>
	</g>
        <g class="st7">
		<g>
			<path class="st8" d="M356.5,484.6c-0.6,1.5-1.2,3.1-1.8,4.6c-0.6,1.5-1.3,3-1.9,4.5c-22.6,7.6-45.1,12.7-68.9,14
				c-0.3,0-0.6,0-0.9,0c-1.8-5.1-3.5-10.4-4.7-15.8c11.3-5.1,23.4-7.9,35.4-8.9C328,481.8,342.3,482.9,356.5,484.6z"/>
		</g>
	</g>
        <g class="st9">
		<g>
			<path class="st8" d="M379.6,224.9c3.9-0.2,8.1,2.1,10.6,5.3c3.4,4.3,4.6,9.9,6,15.2c2,7.9,4.6,15.7,7.7,23.3
				c5.7,14.1,13,27.5,21.9,39.8c1.3-3,2.2-6.2,2.7-9.4c-3.7-10.4-8.1-21.9-13.3-34.6l-23.8-44.2l0.1,0c7.5-12.1,0.4-30.6-10.2-34
				c-9.3-3-15-12.6-16.3-14.9c-1.1,3.3-0.3,7.9,2.7,10.8c3.3,3.2,7.9,4.9,11.2,8c4.9,4.5,6.6,11.8,5.6,18.3
				c-0.9,5.7-3.7,11-7.2,15.7L379.6,224.9z"/>
		</g>
	</g>
        <g class="st10">
		<g>
			<path class="st8" d="M542.9,514c0.2,1.6,0.4,3.2,0.6,4.7c-9.2-0.5-18-3.2-26.5-7.3c-10.3-4.9-20-11.9-29.2-19.6
				c2-3.5,4.1-7,6.2-10.4c11.1,3.5,22,7.6,32.6,12.3c5.7,2.5,11.4,5,17.1,7.5C542.6,505.3,542.5,509.7,542.9,514z"/>
		</g>
	</g>
        <g class="st10">
		<g>
			<path class="st8" d="M427.1,336.6c-0.1-2.5-0.3-5.1-0.6-7.6c-5.8-7.2-21.1-25-32.1-27.4c0,0,1.4,59.9-14.8,54.3
				c-16.3-5.6,5.6-23.1,0.5-46.3c0,0-3.4-12.8-6.3-16.4l-7.4-1.4c1.9,7,4.7,13.8,5.6,21c0.1,0.9,0.2,1.8,0.3,2.7
				c0.5,9.5-2,18.7-4.3,27.8c-3.2,12-4.8,25.5-10.8,36.5c-6.4,11.8-18,14.3-28.6,20.9c-4.4,2.7-8.5,5.8-12.3,9.3
				c0.7,4.1-3.7,8.6-11,11.9c-4.7,6.1-8.6,12.8-11.6,19.8c-0.1,0.3-0.4,1.2-0.8,2.4c5,5.4,10.9,10.4,16.6,12c0,0,41.4-29,47.5-22.5
				c4.3,4.6,0.8,13-12.2,21.3c24.5-10.1,46.2-26,61.2-47.7c7.9-11.4,13.8-24.3,17.4-37.8c2.4-9.2,3.8-18.7,4-28.2
				C427.1,339.7,427.1,338.1,427.1,336.6z M384.6,372.8c-1.4,4.5-5.1,7.3-8.3,6.3c-3.1-1-4.5-5.4-3-9.9c1.4-4.5,5.1-7.3,8.3-6.3
				C384.7,363.9,386.1,368.4,384.6,372.8z"/>
		</g>
	</g>
        <g>
		<g>
			<path class="st1" d="M462.8,240.6c-1.9,19.3-4.2,35.7-6.5,49.6c-9.7,57.5-21,71.3-21,71.3c-6.3-16.8-6.3-44.2-4.4-69
				c0.1-1.1,0.2-2.2,0.3-3.3c2.3-28,6.8-51.7,6.8-51.7l12.1,1.5L462.8,240.6z"/>
		</g>
            <g>
			<polygon class="st5"
                     points="467,191.1 462.8,240.6 450.1,239 438,237.5 446,188.5 446,188.5 455.3,189.7 			"/>
		</g>
            <g>
			<polygon class="st2" points="477.1,148.1 467,191.1 455.2,190 446.1,189.1 446,188.5 444.5,144.5 461.9,146.8 464,158.8 
				465.7,149.9 466.2,147.1 469.6,147.2 467.2,175.9 472.1,147.9 			"/>
		</g>
	</g>
        <g class="st9">
		<g>
			<path class="st8" d="M477.1,148.1l-10.2,43l-4.1,49.5c-1.9,19.3-4.2,35.7-6.5,49.6c-0.4,0.3-0.7,0.7-1.2,0.9
				c-1.6,0.9-3.5,1.1-5.4,1.2c-6.3,0.3-12.6,0.4-18.9,0.2c-2.4-0.1-4.8-0.1-7.2-0.3c2.5-1,5-2,7.5-3.1c3-1.2,6.1-2.5,9.1-3.7
				c1.5-0.6,3-1.2,4.1-2.4c2.3-2.4,1.9-6.2,1.6-9.5c-1-11.3,0.3-22.9,3.8-33.7c0.1-0.3,0.2-0.5,0.3-0.8c3.1-9.3,7.7-18.3,8.2-28.1
				c0.4-6.8-1.3-13.5-3.3-20c-0.1-0.2,0-0.5,0.2-0.9c0-0.1,0.1-0.2,0.1-0.3c0.9-2,3.2-5.5,3.7-6.5c1.2-2.8,2.3-5.6,3.2-8.5
				c1.8-5.8,3-11.8,3.5-17.8c0.2-2.3,0.1-4.6-0.1-7l0.5-2.7l3.4,0l-2.4,28.7l5-28L477.1,148.1z"/>
		</g>
	</g>
        <g>
		<g>
			<g>
				<path class="st3" d="M555.3,276.8c-2.5,1.4-4.7,3.4-5.9,6c-0.7,1.5-1,3.4-0.2,4.9c0.7,1.2,2,1.9,3.4,2.2c1.4,0.2,2.8,0,4.1-0.4
					c5.9-1.5,11.7-5.2,13.5-11C573.4,268.8,558.7,274.9,555.3,276.8z"/>
			</g>
		</g>
            <g>
			<g>
				<path class="st3" d="M569.3,279c-0.3-0.1-0.5-0.4-0.4-0.7c1.8-6.5,3.9-12.9,5.9-19.2c2-6.2,4.1-12.7,5.9-19.1
					c0.1-0.3,0.4-0.5,0.7-0.4c0.3,0.1,0.5,0.4,0.4,0.7c-1.8,6.5-3.9,12.9-5.9,19.2c-2,6.2-4.1,12.7-5.9,19.1
					C569.9,278.9,569.6,279.1,569.3,279C569.3,279,569.3,279,569.3,279z"/>
			</g>
		</g>
	</g>
        <g class="st11">
		<g>
			<path class="st8" d="M595.7,127.2l0.2-0.4L595.7,127.2l-2.4,6.1l-6.6,16.3l-0.8,2.1l-6.8,16.7l-0.8,2.1l-6.5,16l-0.9,2.1
				l-6.7,16.5l-0.8,2.1l-7.4,18.4l-0.8,2.1l-7.4,18.3l-0.8,2.1l-7.2,17.9l-0.9,2.1l-7.7,19.2l-0.8,2.1l-6.6,16.5l-0.8,2.1l-7.5,18.6
				l-0.8,2.1l-7.4,18.5l-24.2,0.5c9.4-15.1,17.9-30.7,25.8-46.6c16.3-32.9,30.1-67,45.6-100.3c7.7-16.6,15.8-33.1,24.9-49
				c3.8-6.7,7.8-17.4,13.3-22.8C593.8,127.4,594.7,127.3,595.7,127.2z"/>
		</g>
	</g>
        <g>
		<g>
			<g>
				<path class="st3" d="M503.7,138.1c-1.1,1.7-1.8,3.7-1.7,5.7c0.1,1.2,0.5,2.5,1.5,3.1c0.8,0.5,1.9,0.5,2.9,0.2s1.7-1,2.5-1.6
					c3.2-2.9,5.5-7.2,4.7-11.4C512.3,127,505.1,135.8,503.7,138.1z"/>
			</g>
		</g>
            <g>
			<g>
				<path class="st3" d="M513.1,134.8c-0.2,0-0.4-0.1-0.5-0.3c-1-4.7-1.9-9.4-2.8-14c-0.9-4.6-1.7-9.3-2.8-13.9
					c-0.1-0.2,0.1-0.5,0.3-0.5c0.2,0,0.5,0.1,0.5,0.3c1,4.7,1.9,9.4,2.8,14c0.9,4.6,1.7,9.3,2.8,13.9
					C513.5,134.5,513.4,134.7,513.1,134.8C513.2,134.8,513.1,134.8,513.1,134.8z"/>
			</g>
		</g>
            <g>
			<path class="st3" d="M507.6,106.7c0-0.1,0.1-0.2,0.2-0.1c1,0.6,2.9,2.8,10.3,7c4,2.3,3.1,11.4,0.6,17c-0.1,0.1-0.2,0.1-0.2-0.1
				c0.9-3.2,2.5-10.9-1.6-14.5c-3.7-3.3-6.7-2.7-7.9-2.5c-0.1,0-0.1,0-0.1-0.1L507.6,106.7z"/>
		</g>
	</g>
        <g>
		<g>
			<g>
				<path class="st3" d="M616,520c-1.9,0.7-3.7,1.9-4.8,3.6c-0.7,1-1.1,2.3-0.7,3.4c0.4,0.9,1.2,1.6,2.2,1.9c0.9,0.3,2,0.3,2.9,0.2
					c4.3-0.4,8.7-2.5,10.6-6.3C629.5,516.3,618.5,519,616,520z"/>
			</g>
		</g>
            <g>
			<g>
				<path class="st3" d="M625.6,523c-0.2-0.1-0.3-0.3-0.2-0.6c2-4.3,4.1-8.7,6.1-12.9c2.1-4.2,4.2-8.5,6.1-12.8
					c0.1-0.2,0.3-0.3,0.6-0.2c0.2,0.1,0.3,0.3,0.2,0.6c-2,4.3-4.1,8.7-6.1,12.9c-2.1,4.2-4.2,8.5-6.1,12.8
					C626,523,625.8,523.1,625.6,523C625.6,523,625.6,523,625.6,523z"/>
			</g>
		</g>
            <g>
			<path class="st3" d="M637.9,497.2c0-0.1,0.2-0.1,0.2,0c0.4,1.1,0.7,4,4,11.7c1.9,4.3-4.3,11-9.7,14c-0.1,0.1-0.2-0.1-0.1-0.2
				c2.6-2,8.5-7.2,7.4-12.5c-1-4.8-3.7-6.2-4.8-6.7c-0.1,0-0.1-0.1,0-0.1L637.9,497.2z"/>
		</g>
	</g>
        <g class="st9">
		<g>
			<path class="st8" d="M338.4,256.2l-0.6,0.7c-1.8-2-3.7-3.9-6-5.3c-3.5-2.2-8.1-3.2-11.9-1.5c2.1-1,3.4-2.8,4.1-5
				c0.6-1.8,0.7-3.7,0.4-5.7c-0.3-2-1-3.9-2.1-5.5c-3.4-5.1-9.1-8.1-14.2-11.6c-4.1-2.8-7.8-6-11.4-9.4c-2.3-2.2-4.5-4.4-6.6-6.7
				c-5.2-5.6-10.2-11.4-14.9-17.4c-1.1-1.5-2.3-2.9-3.4-4.4c-6.4-8.6-12.6-17.8-21.7-23.4c-1.7-1-3.7-2-5.7-1.5
				c-1.5,0.4-2.7,1.6-3.8,2.8c-3.3,3.6-6.6,7.2-9.9,10.7c4.5-7.9,9-15.7,13.5-23.6c0.9-1.6,1.8-3.2,2-5c0.3-2.9-0.9-4.1-2.6-4.9
				l3.7-4.3c0.8-0.9,2.2-1,3.1-0.2l3.9,3.8c0.8,0.8,0.9,2,0.2,2.9l-2.3,2.8c-0.7,0.8-0.6,2.1,0.1,2.9l31.5,31.5l22.5,22.6l28.5,28.6
				c0.8,0.8,0.8,2.1,0.1,2.9l-6.5,7.3l10.1,12.7C339.1,254,339.1,255.3,338.4,256.2z"/>
		</g>
	</g>
        <g class="st10">
		<g>
			<path class="st8" d="M554,482.1c0.1,0.4,0.2,0.7,0.3,1.1c-9.3-3.7-18.3-8.4-26.7-14.1c-3.7-2.5-7.4-5.1-10.8-8
				c3.8-1.5,9.2-1.4,14.6-0.9c0,0.1,0,0.1,0,0.2c0.6,2.3,2.5,4,4.4,5.5c5.1,4.3,10.3,8.6,15.4,13C552.4,479.7,553.5,480.7,554,482.1
				z"/>
		</g>
	</g>
        <g class="st10">
		<g>
			<path class="st8" d="M548.3,386.1c-1,3.8-1.9,7.7-2.8,11.5c-3.8,15.9-7.5,31.8-11.3,47.7c-5,6.6-11.1,12.4-19.6,15.3
				c2.1-0.7,4-11.8,4.7-14.2c4.6-15.7,9-31.1,17.5-45C540.1,396,543.9,390.8,548.3,386.1z"/>
		</g>
	</g>
        <g class="st10">
		<g>
			<path class="st12" d="M222.2,191.3c-1.2,1.4-3.9,5.3-3.3,7.3c0.7,2.6,8.1,4,10.7,5.5c10.7,6.1,19.5,15,30.5,20.7
				c1.7,0.9,3.5,1.7,5.4,1.4c1.9-0.2,3.7-1.9,3.5-3.7c-0.1-0.9-0.7-1.7-1.3-2.5c-3.4-4.3-7.5-8.2-12-11.5c-5-3.6-10.8-6.8-13.8-12.1
				c-1.9-3.4-1.9-7-1.7-10.8c0.2-3.5,1.8-11-3.3-10C230.8,176.7,225.8,187,222.2,191.3z"/>
		</g>
	</g>
        <g class="st10">
		<g>
			<path class="st12" d="M207.6,193.4c-0.7,1.3-1.6,2.8-3,3.3c-1.4,0.5-3.4-0.7-3.1-2.2c0.1-0.4,0.4-0.8,0.7-1.2
				c2.1-2.8,4.2-5.5,6.3-8.3c1.8-2.4,8.2-8.3,5.9-1.7C213.1,187.1,209.4,189.9,207.6,193.4z"/>
		</g>
	</g>
        <g class="st13">
		<g>
			<path class="st12" d="M321.2,251.5c3.1,2.6,6.9,4.4,10.9,5.1c-2.4-3.3-6.3-5.4-10.3-5.6"/>
		</g>
	</g>
        <g class="st10">
		<g>
			<path class="st12" d="M360.6,191.8c-0.2,3.4-0.3,6.8,0.7,10c1,3.2,3.5,6.2,6.7,6.8c0.8,0.2,1.7,0.2,2.4-0.2c1.2-0.6,1.9-2,2-3.3
				c0.1-1.4-0.4-2.7-0.8-4c-1.5-4.7-3.1-10-6.3-13.9C360.6,181.4,360.9,186.9,360.6,191.8z"/>
		</g>
	</g>
        <g class="st10">
		<g>
			<path class="st12" d="M401.9,289.4c0.4,1.1,1.3,2.4,2.4,2c0.8-0.3,1.1-1.3,1.2-2.2c0.3-4.4-1.2-8.7-2.7-12.8
				c-1.6-4.4-3.2-8.7-4.7-13.1c-2-5.4-3.9-12.1-7.9-16.3C385.1,253.1,399.1,282.2,401.9,289.4z"/>
		</g>
	</g>
        <g class="st10">
		<g>
			<path class="st12" d="M438.3,252.8c0,1.8,0.8,4.3,2.2,3.8c0.7-0.3,1.1-1.4,1.3-2.4c1.2-5.5,2.1-11.1,2.9-16.6
				c0.5-3.3,4.3-26.2-1.7-16.4C439.3,227.2,438.1,245.3,438.3,252.8z"/>
		</g>
	</g>
        <g class="st10">
		<g>
			<path class="st12" d="M450.7,176.4c0.8,0.6,1.8-0.6,2.1-1.5c1.5-4.8,1.7-9.9,1.9-14.9c0.1-2.7,0.2-5.5-1.2-7.8
				c-4.3-7.4-6.3-0.1-6,4C447.9,162.9,449.4,169.8,450.7,176.4z"/>
		</g>
	</g>
        <g>
		<g>
			<g>
				<path class="st6" d="M498.9,297.5l-8.2,17.8l-0.9,2.1l-14,30.4l-14,30.2L432.1,442l-21.3,46.1l-2.3,4.9l-3.3,7.2l-4,8.7
					l-21.7,46.8l-4.5,9.7c-1-0.5-2-0.9-3-1.4c-4.8-2.2-9.4-4.6-13.6-7c-87.1-48.8-63.6-127.4-13.2-153.4
					c53.4-27.4,45.2-50.3,61.8-91.7c12-29.9,41.8-29.5,64.3-24.2c3.1,0.7,6,1.6,8.8,2.4c4.5,1.4,8.5,2.9,11.6,4.2
					c2.5,1,4.4,1.9,5.7,2.5C498.3,297.3,498.9,297.5,498.9,297.5z"/>
			</g>
            <g>
				<path class="st14" d="M573.4,34.3l8,3.6c1.1,0.5,2.3,0,2.8-1v0c0.5-1.1,0-2.3-1-2.8l-8-3.6c-1.1-0.5-2.3,0-2.8,1v0
					C571.9,32.6,572.4,33.8,573.4,34.3z"/>
			</g>
            <g>
				<path class="st6" d="M546.8,375.5c-20.3,39.7-43,48.5-28.7,106.8c14.3,58.3-40.4,130.9-146.1,81.8l0.1-0.1l3.9-8.4l22.5-48
					l4.1-8.6l3.4-7.2l2.3-4.9l21.6-46.1l29.9-63.7l13.7-29.3l14.6-31.2l1-2.1l8.3-17.8l0-0.1c0,0,2.1,0.9,5.6,2.6
					c2.8,1.4,6.5,3.3,10.6,5.8c1,0.6,2,1.2,3,1.9c1.7,1.1,3.5,2.3,5.3,3.6C540.9,323.8,561.7,346.3,546.8,375.5z"/>
			</g>
            <g>
				<path class="st14" d="M564.9,59.6l8,3.6c1.1,0.5,2.3,0,2.8-1v0c0.5-1.1,0-2.3-1-2.8l-8-3.6c-1.1-0.5-2.3,0-2.8,1v0
					C563.3,57.8,563.8,59.1,564.9,59.6z"/>
			</g>
            <g>
				<path class="st14" d="M563.8,62.9L563.8,62.9c-1.7-0.8-2.5-2.9-1.7-4.6l2-4.5c0.8-1.7,2.9-2.5,4.6-1.7l0,0
					c1.7,0.8,2.5,2.9,1.7,4.6l-2,4.5C567.6,62.9,565.6,63.6,563.8,62.9z"/>
			</g>
            <g>
				<path class="st14" d="M645.1,67l-8-3.6c-1.1-0.5-1.5-1.7-1-2.8v0c0.5-1.1,1.7-1.5,2.8-1l8,3.6c1.1,0.5,1.5,1.7,1,2.8v0
					C647.4,67,646.2,67.5,645.1,67z"/>
			</g>
            <g>
				<path class="st14" d="M631.7,90l-8-3.6c-1.1-0.5-1.5-1.7-1-2.8l0,0c0.5-1.1,1.7-1.5,2.8-1l8,3.6c1.1,0.5,1.5,1.7,1,2.8v0
					C634,90,632.7,90.5,631.7,90z"/>
			</g>
            <g>
				<path class="st14" d="M629.9,93L629.9,93c1.7,0.8,3.8,0,4.6-1.7l2-4.5c0.8-1.7,0-3.8-1.7-4.6l0,0c-1.7-0.8-3.8,0-4.6,1.7l-2,4.5
					C627.4,90.1,628.1,92.2,629.9,93z"/>
			</g>
            <g>
				<path class="st14" d="M643.3,69.9L643.3,69.9c1.7,0.8,3.8,0,4.6-1.7l2-4.5c0.8-1.7,0-3.8-1.7-4.6v0c-1.7-0.8-3.8,0-4.6,1.7
					l-2,4.5C640.8,67.1,641.6,69.1,643.3,69.9z"/>
			</g>
            <g>
				<polygon class="st1" points="597.1,123.7 596,126.6 595.9,126.7 595.7,127.3 593.2,133.3 586.7,149.6 585.8,151.7 579.1,168.4 
					578.2,170.5 571.8,186.5 570.9,188.6 564.3,205.1 563.4,207.2 556,225.6 555.2,227.7 547.8,246 546.9,248.1 539.7,266 
					538.9,268.1 531.1,287.3 530.3,289.4 527.2,297.1 523.6,305.9 522.8,307.9 521.8,310.4 516.3,324 515.3,326.5 514.4,328.6 
					507,347.1 494.9,347.4 482.8,347.6 481.1,347.6 475.7,347.7 473.3,347.8 473.1,347.8 469.4,342.4 461,330 454.6,320.5 
					462.5,305 463.5,302.9 471.2,287.7 472.6,285.1 473.6,283.1 481.7,267.2 482.7,265.2 492.1,246.8 493.1,244.8 501.9,227.6 
					502.9,225.6 511.8,207.9 512.9,205.9 521.8,188.3 522.9,186.3 530.9,170.4 532,168.4 539.8,153 540.8,151 549,134.9 550,132.9 
					558,117.2 559.5,114.3 560.9,111.4 561.7,110 565.6,111.5 574.4,114.9 584.2,118.7 593.6,122.3 				"/>
			</g>
            <g>
				<path class="st6" d="M650,41l-36.9,66.2c-1,1.8-2.7,3.1-4.6,3.8c-5.8,2.1-10.4,10.8-12.6,15.8c-0.1,0.2-0.1,0.3-0.2,0.5
					c-0.8,1.8-1.2,2.9-1.2,3l-3.4-1.5L572,120l-12.6-5.8c0,0,0.6-1.1,1.4-2.8c2.3-4.8,6.2-14.4,3.9-20.3c-0.7-1.9-0.9-4-0.2-6
					l25.8-71.2c1.6-4.4,6.4-6.9,10.9-5.5c6.3,1.8,15.1,3.9,22.1,3.8c2.6-0.1,5.1,1.1,6.8,3.1c0.7,0.8,1.5,1.7,2.3,2.5
					c4.4,4.4,10.1,8.6,14.7,11.5C651,31.8,652.3,36.9,650,41z"/>
			</g>
            <g>
				<circle class="st15" cx="447.3" cy="410.1" r="35.3"/>
			</g>
            <g>
				
					<rect x="396.8" y="452" transform="matrix(0.4148 -0.9099 0.9099 0.4148 -215.5836 663.8164)"
                          class="st15" width="22.9" height="95"/>
			</g>
            <g>
				<path class="st14" d="M572.4,37.6L572.4,37.6c-1.7-0.8-2.5-2.9-1.7-4.6l2-4.5c0.8-1.7,2.9-2.5,4.6-1.7v0
					c1.7,0.8,2.5,2.9,1.7,4.6l-2,4.5C576.2,37.6,574.1,38.4,572.4,37.6z"/>
			</g>
            <g>
				<path class="st16" d="M558,117.2l1.5-3l-0.1-0.1c0,0,0.6-1.1,1.4-2.8l34.9,15.9l-2.4,6L558,117.2z"/>
			</g>
            <g>
				<polygon class="st16" points="585.8,151.7 549,134.9 550,132.9 586.7,149.6 				"/>
			</g>
            <g>
				<polygon class="st16" points="578.2,170.5 539.8,153 540.8,151 579.1,168.4 				"/>
			</g>
            <g>
				<polygon class="st16" points="570.9,188.6 530.9,170.4 532,168.4 571.8,186.5 				"/>
			</g>
            <g>
				<polygon class="st16" points="563.4,207.2 521.8,188.3 522.9,186.3 564.3,205.1 				"/>
			</g>
            <g>
				<polygon class="st16" points="555.2,227.7 511.8,207.9 512.9,205.9 556,225.6 				"/>
			</g>
            <g>
				<polygon class="st16" points="546.9,248.1 501.9,227.6 502.9,225.6 547.8,246 				"/>
			</g>
            <g>
				<polygon class="st16" points="538.9,268.1 492.1,246.8 493.1,244.8 539.7,266 				"/>
			</g>
            <g>
				<polygon class="st16" points="530.3,289.4 481.7,267.2 482.7,265.2 531.1,287.3 				"/>
			</g>
            <g>
				<polygon class="st16" points="523.6,305.9 522.8,307.9 517.4,305.5 513.9,303.9 503,298.9 491.8,293.8 480.7,288.8 472.6,285.1 
					473.6,283.1 481.7,286.7 492.8,291.8 503.9,296.9 514.8,301.8 518.8,303.6 				"/>
			</g>
            <g>
				<polygon class="st16" points="514.4,328.6 462.5,305 463.5,302.9 515.3,326.5 				"/>
			</g>
            <g>
				
					<rect x="404.8" y="465.1" transform="matrix(0.4148 -0.9099 0.9099 0.4148 -213.4474 663.0938)"
                          class="st17" width="7.9" height="64.8"/>
			</g>
            <g>
				
					<rect x="254" y="277.2" transform="matrix(0.4314 -0.9022 0.9022 0.4314 25.7733 596.3613)"
                          class="st18" width="463.9" height="1"/>
			</g>
            <g>
				<path class="st18" d="M400.2,493.4l-0.9-0.4L587.2,85.9c4.8-10.3,7.8-21.3,9-32.6l1.4-13.5l1,0.1l-1.4,13.5
					c-1.2,11.4-4.2,22.5-9.1,33L400.2,493.4z"/>
			</g>
            <g>
				<path class="st18" d="M413.5,498.8l-0.9-0.4l186-412.8c4.1-9.2,9.8-17.4,16.8-24.6l9.2-9.4l0.7,0.7l-9.2,9.4
					c-6.9,7.1-12.5,15.3-16.6,24.3L413.5,498.8z"/>
			</g>
            <g>
				
					<rect x="287.4" y="291.9" transform="matrix(0.402 -0.9156 0.9156 0.402 42.5755 650.0467)"
                          class="st18" width="463.2" height="1"/>
			</g>
            <g>
				<path class="st19" d="M612.7,86.2L612.7,86.2c-2.6-1.2-3.7-4.2-2.5-6.8l1.8-3.9c1.2-2.6,4.2-3.7,6.8-2.5l0,0
					c2.6,1.2,3.7,4.2,2.5,6.8l-1.8,3.9C618.3,86.3,615.2,87.4,612.7,86.2z"/>
			</g>
            <g>
				<path class="st19" d="M590.5,46.6L590.5,46.6c-2.6-1.2-3.7-4.2-2.5-6.8l1.8-3.9c1.2-2.6,4.2-3.7,6.8-2.5v0
					c2.6,1.2,3.7,4.2,2.5,6.8l-1.8,3.9C596.1,46.6,593.1,47.8,590.5,46.6z"/>
			</g>
            <g>
				<path class="st19" d="M624.7,62.2L624.7,62.2c-2.6-1.2-3.7-4.2-2.5-6.8l1.8-3.9c1.2-2.6,4.2-3.7,6.8-2.5l0,0
					c2.6,1.2,3.7,4.2,2.5,6.8l-1.8,3.9C630.3,62.3,627.3,63.4,624.7,62.2z"/>
			</g>
            <g>
				<path class="st19" d="M580.3,71.5L580.3,71.5c-2.6-1.2-3.7-4.2-2.5-6.8l1.8-3.9c1.2-2.6,4.2-3.7,6.8-2.5v0
					c2.6,1.2,3.7,4.2,2.5,6.8l-1.8,3.9C585.9,71.5,582.8,72.7,580.3,71.5z"/>
			</g>
            <g class="st20">
				<g>
					<path class="st8" d="M479.4,424.8c-8.1,17.7-29,25.6-46.8,17.5c-3.7-1.7-6.9-3.9-9.7-6.5c17.1,6.2,36.4-1.8,44-18.6
						c6.4-14.1,2.8-30.2-7.8-40.2c0.9,0.3,1.8,0.7,2.7,1.1C479.7,386.1,487.5,407,479.4,424.8z"/>
				</g>
			</g>
		</g>
            <g class="st9">
			<g>
				<path class="st8" d="M570.2,115.8c8.5,3,27.6-9.1,34.5-14.9c6.9-5.8,11.6-13.8,16.1-21.6c7.7-13.3,15.7-27.6,14.6-42.9
					c-0.3-4.2-2.4-11.7-3.1-18.7c4.4,4.4,10.1,8.6,14.7,11.5c3.9,2.6,5.2,7.7,2.9,11.8l-36.9,66.2c-1,1.8-2.7,3.1-4.6,3.8
					c-5.8,2.1-10.4,10.8-12.6,15.8c-0.1,0.2-0.1,0.3-0.2,0.5"/>
			</g>
		</g>
            <g class="st10">
			<g>
				<path class="st8" d="M521.8,310.4c19,13.4,39.9,36,24.9,65.2c-20.3,39.7-43,48.5-28.7,106.8c14.3,58.3-40.4,130.9-146.1,81.8
					l0.1-0.1c-4.8-2.2-9.4-4.6-13.6-7c5.9-0.7,11.3-1.5,13.6-1.5c1.3,0,2.7,0,4,0c1.2,0,2.4,0,3.6,0c16.9,0.2,33.8,0.4,50.5-2.1
					c27.7-4.2,47-23.8,57-49.2c12.2-31.1,6.6-64.6,19-95.8c10.3-26.1,32.4-56,11.7-82.9c-0.4-0.6-0.9-1.1-1.3-1.6"/>
			</g>
		</g>
            <g class="st10">
			<g>
				<path class="st12" d="M580.5,77.7c2-5.2,5.5-9.6,9-13.9c7.5-9.2,15.2-18.2,23.1-27c1.5-1.7,3.1-3.4,4-5.5
					c1.9-4.6-0.2-10.5-4.4-13c-4.3-2.6-10.2-1.8-13.9,1.6c-2,1.8-3.3,4.1-4.6,6.4c-10.7,19.2-20.9,39.3-23.5,61.2
					c-0.4,3.3-0.6,6.8,0.7,9.9c2.4,5.9,11.6,7.5,12.2-0.2c0.2-2.2-2.9-4.3-3.5-6.4C578.4,86.3,578.7,82,580.5,77.7z"/>
			</g>
		</g>
            <g class="st10">
			<g>
				<path class="st12" d="M433.9,296.9c-8.1,2.2-15.2,7.7-19.3,15.1c-2.4,4.4-4.1,10.6-4.3,15.6c-0.6,15.4,12.7,2.4,17-1.6
					c4.9-4.5,10.2-8.4,16-11.6c3.3-1.9,6.8-3.6,9.4-6.4C465.2,294.4,441.6,294.8,433.9,296.9z"/>
			</g>
		</g>
            <g class="st10">
			<g>
				<path class="st12" d="M352.1,412.2c-8,4.7-16.8,8.6-23.5,15.1c-3.8,3.7-6.8,8-8.7,12.9c-8.8,22.7,26.5,0.9,33.6-3.7
					c8.9-5.8,16.9-13.6,21.2-23.3c1.2-2.7,1.9-9.8-1.3-11.9c-5-3.2-11.6,4.7-15.3,7.2C356.1,409.8,354.1,411,352.1,412.2z"/>
			</g>
		</g>
	</g>
</g>
</svg>
