<?xml version="1.0" encoding="utf-8"?>
<!-- Generator: Adobe Illustrator 22.1.0, SVG Export Plug-In . SVG Version: 6.00 Build 0)  -->
<svg version="1.1" id="Слой_1" xmlns="http://www.w3.org/2000/svg" x="0px"
     y="0px"
     viewBox="0 0 841.9 595.3" style="enable-background:new 0 0 841.9 595.3;" xml:space="preserve">
<style type="text/css">
	.st0{fill:#8AB626;}
	.st1{fill:#285F2A;}
	.st2{opacity:0.15;}
	.st3{fill:#020203;}
	.st4{fill:#F49A57;}
	.st5{fill:#D38149;}
	.st6{fill:#077C99;}
	.st7{opacity:0.16;}
	.st8{fill:#FFFFFF;}
	.st9{fill:#E04575;}
	.st10{fill:#232323;}
	.st11{fill:#F08BA9;}
	.st12{fill:#C1D455;}
	.st13{opacity:0.33;}
	.st14{fill:#F6FBFD;}
	.st15{opacity:0.21;}
	.st16{fill:#0A93AA;}
	.st17{fill:#F7E009;}
	.st18{fill:#C7B117;}
	.st19{opacity:0.32;}
	.st20{opacity:0.34;}
</style>
    <g>
	<g>
		<path class="st0" d="M539.4,157.6c-34.1-43.9-75-92.6-128.7-108.6c-90.7-27-207.2,31.4-268.1,126.2
			c-65.3,101.7-41.4,218.3,30.7,275.7c35.5,28.2,84.8,33.2,132.6,36.6c58.6,4.2,118.9-36.8,175.2-31c39.5,4.1,66.4,35.2,104.9,43.6
			c30.5,6.6,51.3,2.6,82.4-15.4c56.7-32.9,74.8-122,59.4-174.5c-16.7-56.6-36.9-85.7-93.5-99C591.3,201.1,566.1,192,539.4,157.6z"/>
	</g>
        <g>
		<g>
			<path class="st1" d="M471.6,183c-5.2-6.7,29.2-17.4,31.7-21.7l-7.3-17.7c0,0-16.4,15.6-23.3,7.9c-6.9-7.7,15.2-18,20-14.3
				c0,0-9.1-20.3-6.8-25.7c0,0-29.5-2-31.6,0.5c0,0,8.3,17.6-0.5,18.2c-8.8,0.6-5.1-17.6-5.1-17.6s-11.2,1.8-16.6,6.5
				c0,0,4.3,25.2,9.3,32.6c5.1,7.4-7.3,8.3-13.6-6.4c-6.2-14.5-4.3-25-4.3-25.2l-28.3,19.4c0,0,19.8,24.9,14.2,30.9
				c-0.6,0.6-1.2,1-1.8,1.2c-3.1,1.1-7.2-1.7-10.7-7c-3.2-4.8-6-11.6-7.3-19.1c0,0-6.4,5.5-11.7,12.5c-3.6,4.6-6.7,9.9-7.1,14.5
				c0,0,21.1,21.3,24,30.6c0.4,1.4,0.4,2.6-0.1,3.3c-0.6,0.8-1.4,1.4-2.3,1.7c-3.6,1.3-9.4-1.2-15.8-8.4c-3.4-3.8-7.1-9-10.7-15.7
				c0,0-10.3,27.6-4,49.3c6.2,21.7,22,32.4,38,35.8c0,0,40.2,16.6,67.2-1.1l9.8-10.2c0,0-20.4-0.1-23.1-8c-0.1-0.1-0.1-0.3-0.1-0.4
				c-1.1-5.6,17.8-2.8,26.1-1.3c2.3,0.4,3.8,0.7,3.8,0.7s0.8-0.8,2-2.2c1.9-2.1,4.8-5.6,7.7-9.5c4.6-6.2,9.1-13.7,9.3-19.1
				c0,0-46.4,9.1-44.2-4.3c2.2-13.4,18.7,1.2,36.1-5.8c0,0,9.5-4.3,11.9-7.1l0.1-6l0.1-3.8l0.4-19.3
				C506.7,171.9,476.7,189.7,471.6,183z M445.7,220.1c-3.7-0.5-6.3-3-6-5.6c0.4-2.6,3.6-4.2,7.3-3.7c3.7,0.5,6.3,3,6,5.6
				C452.6,219,449.3,220.7,445.7,220.1z M452.6,183c0.5-2.5,3.8-4.1,7.5-3.4c3.6,0.7,6.2,3.3,5.7,5.8c-0.5,2.5-3.8,4.1-7.5,3.4
				C454.7,188.2,452.1,185.5,452.6,183z"/>
		</g>
	</g>
        <g class="st2">
		<g>
			<path class="st3" d="M506.3,191.2l-0.1,3.8l-0.1,6c-2.4,2.8-11.9,7.1-11.9,7.1c-17.4,7-33.9-7.6-36.1,5.8
				c-2.2,13.4,44.2,4.3,44.2,4.3c-0.2,5.4-4.7,12.9-9.3,19.1c-2.7,0.7-5.4,1.2-8,1.4c-12.2,1.2-24.8-0.7-36.7,2.2
				c-4.9,1.2-9.5,3.2-14.4,4.3c-8.3,1.9-17,1.1-25.5-0.2c-8.1-1.3-16.2-3.2-23.2-7.5c-4.9-3.1-10.6-9.4-6.5-15.2
				c1.3-1.8,4.6-2.8,6.3-4.3c2.9-2.6,5.3-6.2,7.2-9.6c0-0.1,0.1-0.1,0.1-0.2c0.9-1.6,1.6-3.2,2.4-4.9c2.4-5.2,4.5-10.6,8.7-14.4
				c6.4-6,16.2-6.8,24.8-4.9c8.6,1.8,16.5,5.9,24.8,8.6c5.8,1.9,11.8,3.2,17.8,4.5c3.9,0.8,7.9,1.7,11.8,1.3
				C490.9,197.4,498.1,191.5,506.3,191.2z"/>
		</g>
	</g>
        <g>
		<g>
			<path class="st1" d="M575.2,442l15.3-4.1c0,0-19.5-12-17.5-21c0-0.2,0.1-0.3,0.1-0.5c2.2-6,18.7,7.7,25.7,13.9
				c2,1.7,3.2,2.9,3.2,2.9s1.2-0.3,3.2-1c7.8-2.5,27.4-9.3,32.9-17.6c0,0-49.7-18.2-39.9-29.8c9.9-11.6,17.2,12,37.9,15.4
				c0,0,11.6,1.3,15.5,0.1l3.6-5.6l13.9-21.9c0,0-39.1-0.3-40.1-9.7c-1-9.5,38.1,0.3,42.9-2.4l3.3-21.2c0,0-24.7,5.4-26.9-6
				c-2.1-11.4,25-8.4,27.4-2.1c0,0,3.1-24.7,8.4-28.5c0,0-27.1-19-30.5-17.8c0,0-2.3,21.7-11,17.1c-8.8-4.5,5.4-19.8,5.4-19.8
				s-11.8-4.8-19.7-3.4c0,0-10.5,26.6-9.9,36.6c0.6,10-11.8,3.7-9.3-14c2.5-17.5,10.3-26.4,10.5-26.6l-38.4,2.2
				c0,0,4.5,35.3-4.4,37.8c-0.9,0.2-1.7,0.3-2.4,0.1c-3.6-0.7-5.8-5.8-6.2-12.9c-0.3-6.5,0.9-14.6,4.1-22.5c0,0-9.3,1.6-18.4,5.2
				c-6.1,2.4-12.1,5.6-15.3,9.8c0,0,10.5,43.5,3.1,46.4c-5.2,2.1-11-3.5-13.5-16.9c-1.1-5.7-1.6-12.8-1.1-21.3
				c0,0-25.9,20.5-32.5,44.9c-6.6,24.4,2.3,43.8,15.6,56.4C510.2,404,539.1,443.2,575.2,442z M589.4,375.5c3.2,2.6,4.3,6.6,2.5,8.8
				c-1.8,2.2-5.9,1.9-9.1-0.7s-4.3-6.6-2.5-8.8C582.1,372.5,586.2,372.8,589.4,375.5z M620.1,353.2c3.1,2.8,4,6.8,2.1,8.9
				c-1.9,2.2-6,1.7-9.1-1.1c-3.1-2.8-4-6.8-2.1-8.9C612.9,349.9,617,350.4,620.1,353.2z"/>
		</g>
	</g>
        <g>
		<g>
			<g>
				<path class="st4" d="M425,266.4c-24.2-23.2-43.6-96.6-43.6-96.6l10.6-3.5l9.7-3.2c4,11,7.3,21,10.1,30
					C429.2,249.4,425,266.4,425,266.4z"/>
			</g>
            <g>
				<polygon class="st5" points="401.7,163.1 391.9,166.3 381.4,169.8 372.8,128.2 372.8,128 372.7,127.9 383,124.6 383,124.6 				
					"/>
			</g>
            <g>
				<path class="st6" d="M383.1,124.6L383.1,124.6l-10.3,3.4l-0.3,0.1c0,0-0.6-0.2-1.6-0.7c-6.2-3-27.1-15.9-8.9-45.8
					c0,0,0.1,0.2,0.2,0.4c1,2,5.5,10.4,13.3,13.3C384.5,98.5,389.8,114.5,383.1,124.6z"/>
			</g>
		</g>
            <g class="st7">
			<g>
				<path class="st3" d="M372.8,128.2c3.4,0,6.8,2,8.9,4.9c2.7,3.8,3.6,8.6,4.6,13.1c1.5,6.8,3.4,13.6,5.7,20.1
					c4.3,12.2,10.1,23.9,17.2,34.7c1.2-2.5,2.1-5.2,2.6-7.9c-2.8-9-6.1-18.9-10.1-30L383,124.6l0,0c6.8-10.1,1.4-26.1-7.5-29.3
					c-7.8-2.9-12.4-11.3-13.3-13.3c-1.1,2.8-0.5,6.7,1.9,9.3c2.7,2.8,6.5,4.4,9.3,7.2c4,4,5.2,10.3,4.1,15.8
					c-1,4.9-3.5,9.3-6.7,13.1L372.8,128.2z"/>
			</g>
		</g>
            <g class="st2">
			<g>
				<path class="st8" d="M357.8,99.3c-0.3,2.8-0.5,5.8,0.2,8.5c0.7,2.8,2.7,5.4,5.5,6c0.7,0.2,1.4,0.2,2.1-0.1
					c1.1-0.4,1.7-1.6,1.8-2.8c0.1-1.2-0.2-2.3-0.5-3.4c-1.2-4-2.3-8.6-4.9-12C358.1,90.4,358.2,95.1,357.8,99.3z"/>
			</g>
		</g>
            <g class="st2">
			<g>
				<path class="st8" d="M389.5,183.9c0.3,0.9,1,2.1,2,1.8c0.7-0.2,1-1.1,1.1-1.8c0.4-3.7-0.8-7.4-1.9-11c-1.2-3.8-2.4-7.5-3.6-11.3
					c-1.5-4.7-2.9-10.4-6.1-14.1C376.4,152.4,387.3,177.7,389.5,183.9z"/>
			</g>
		</g>
	</g>
        <g>
		<g>
			<path class="st9" d="M427.6,335l-15.2,6.6l-25.3,11l-17.9,7.8L340,373l-21.4,9.3c-3.1,1.4-6.8-0.1-8.1-3.2l-80.4-185.2
				c-1.4-3.1,0.1-6.8,3.2-8.1l68.4-29.7l25.3-11l15.2-6.6c3.1-1.4,6.8,0.1,8.1,3.2l35.4,81.5l15.4,35.5l29.6,68.2
				C432.1,330,430.7,333.6,427.6,335z"/>
		</g>
            <g>
			
				<rect x="343.3" y="141.7" transform="matrix(0.9174 -0.398 0.398 0.9174 -69.5264 162.6607)" class="st10"
                      width="27.6" height="214.2"/>
		</g>
            <g>
			<path class="st8" d="M253.5,197.4l12.3,28.3c0.6,1.3,2.1,1.9,3.4,1.4l17-7.4c1.3-0.6,1.9-2.1,1.4-3.4L275.3,188
				c-0.6-1.3-2.1-1.9-3.4-1.4l-17,7.4C253.5,194.6,252.9,196.1,253.5,197.4z"/>
		</g>
	</g>
        <g>
		<g>
			<path class="st9" d="M602.4,224.9l-48.6,108.9c-1.2,2.6-4.3,3.6-6.7,2.1l-26-15.7l-22.8-13.8l-46.6-28.2c-2.4-1.4-3-4.7-1.3-6.9
				l40.6-52.8l17.4-22.7L523,177c1.5-1.9,4.1-2.4,6.2-1.2l11.5,6.9l50.6,30.6l9.3,5.6C602.6,220.2,603.4,222.8,602.4,224.9z"/>
		</g>
            <g>
			<path class="st9" d="M559.9,238.7c-5.6,0-11.1-1.5-15.9-4.4c-7.9-4.8-13.1-12.7-14.7-22.5c-1.6-9.5,0.4-19.5,5.7-28.3
				s13.3-15.2,22.4-18.2c9.4-3.1,18.9-2.1,26.7,2.6c16,9.7,20,32.5,9,50.8l0,0c-5.3,8.8-13.3,15.2-22.4,18.2
				C567.1,238.2,563.4,238.7,559.9,238.7z M568.2,172c-2.7,0-5.4,0.4-8.2,1.3c-7.2,2.4-13.5,7.5-17.8,14.6c-4.3,7-5.9,15-4.6,22.5
				c1.2,7.3,5,13.2,10.8,16.6c5.7,3.5,12.7,4.1,19.7,1.8c7.2-2.4,13.5-7.5,17.8-14.6l0,0c8.7-14.3,5.9-31.9-6.1-39.2
				C576.3,173.1,572.3,172,568.2,172z"/>
		</g>
	</g>
        <g class="st2">
		<g>
			<path class="st3" d="M532.6,249.7c-5.4,32-4.1,45.5-12.7,70.1L494,303.5c-2.9-10.7-4.1-13.3-2.7-24.3c1.3-10.8,4.7-21.5,3.2-32.3
				c-1.2-8-5.1-15.3-8.1-22.8l17.4-22.7c13.4,8.6,21.8,7.4,27,16.6C536,227.2,534.3,239.4,532.6,249.7z"/>
		</g>
	</g>
        <g>
		<g>
			<g>
				<path class="st1" d="M165,251.3c41.2,21.5,66.7,65.1,65.8,112.7C198.6,333.6,192.6,285.7,165,251.3z"/>
			</g>
		</g>
            <g>
			<g>
				<path class="st1" d="M207.9,349c-18.2-14.9-36.5-30-57.3-41.2s-44.3-18.4-68.1-16.6c7.2,7.4,15.5,14.4,24.5,19.5
					C138.8,329,171.9,340.4,207.9,349z"/>
			</g>
		</g>
            <g>
			<g>
				<path class="st1" d="M239.7,423.4c6.4-1.5,12.8-2.5,19.3-2.9c17.3-1.1,34.5,1.3,51.5,4c1.4,0.2,2.9,0.5,4.3,0.7
					c-0.8,0.3-1.7,0.6-2.5,0.9c-27.4,10-54.1,16.4-82.5,17.4c-8.2,0.3-16.7-1.1-24.6-3.5c0.6-0.5,1.3-1,1.9-1.5
					C217,431.1,228.2,426.2,239.7,423.4z"/>
			</g>
		</g>
            <g>
			<g>
				<path class="st1" d="M236.3,285.1c14.8,13.6,26.2,30.9,33.3,50c5.5,14.6,8.4,30.3,8.5,46.1c0,4.3,0,8.6-0.4,12.9
					c-6.5-4.5-11.6-17.1-15.4-24.4c-1.8-3.4-3.5-6.9-5.1-10.3c-2.6-5.5-4.9-11.2-7.1-16.9c-3.5-9.4-6.4-18.9-8.8-28.7
					c-1.2-4.9-2.2-9.8-3-14.8C237.9,296.6,237.2,288.2,236.3,285.1z"/>
			</g>
		</g>
            <g>
			<g>
				<path class="st1" d="M119.3,360c5.5,0.9,10.1,0.4,13.6,0.2c15.4-0.8,30.8-3.3,46.1-3.4c6.9-0.1,13.7,0.2,20.5,0.8
					c3.1,0.3,6.2,0.6,9.3,1.1c2.8,0.4,21.4,4.8,21.6,4.8c-5.4,2-10.3,3.4-14.6,5.1c-7.1,2.8-14.2,5.4-21.4,6.9
					c-12.1,2.5-24.2,2.5-36,0.4C144.8,373.4,132.2,368.8,119.3,360z"/>
			</g>
		</g>
            <g>
			<g>
				<path class="st1" d="M288,325.1c1.6,1,4.7,2.8,5.9,3.7c13.9,10.5,20.4,24.8,22.9,40.6c0.6,3.6,0.9,7.3,1.1,11
					c0.7,14.9-1.4,30.6-3.8,45.2c-0.9-2.1-3-4.8-5-10.6c-2.8-8.1-5.2-16.2-7.3-24.4c-1.6-6.3-3-12.7-4.2-19.1
					C294.6,355.9,291.5,340.4,288,325.1z"/>
			</g>
		</g>
            <g>
			<g>
				<path class="st1" d="M165.2,397.2c6.4-0.6,9.9-1.1,12.7-1.4c5.2-0.5,10.4-1,15.6-1.5c5.6-0.5,11.2-1.1,16.7-1.7
					c9.8-1.1,19.6-2.2,29.4-3c12.8-1.1,27.2-2.2,39.1,6.5c-1.7-1.2-11.5,3.3-13.8,4c-14.9,4.9-29.5,9.8-45.2,10.6
					c-13.6,0.7-27.5-1.3-40.6-6.6C174.4,402.4,169.7,400,165.2,397.2z"/>
			</g>
		</g>
            <g>
			<g>
				<path class="st1" d="M325.2,436.4c-6-5.8-6.2-6-6.7-6.3c-0.5-0.3-1.4-0.9-6.1-5l-1.8-1.6c-9.4-8.2-19-16-28.5-23.4
					c-12.8-10-25.6-19.2-38.2-27.6c-4.6-3.1-9.2-6-13.8-8.8c-1.5-0.9-2.9-1.8-4.2-2.6c-6.7-4.1-13.2-7.7-19.2-10.9
					c-6.2-3.2-9.6-4.8-9.6-4.8l1.2-2.7c0.1,0.1,3.5,1.6,9.8,4.9c6,3.2,12.5,6.9,19.3,11c1.4,0.8,2.8,1.7,4.3,2.6
					c4.6,2.8,9.2,5.8,13.9,8.9c12.6,8.4,25.5,17.7,38.4,27.7c9.5,7.4,19.2,15.4,28.6,23.5l1.9,1.6c4.5,3.9,5.3,4.5,5.8,4.7
					c0.7,0.5,0.8,0.5,7.1,6.7L325.2,436.4z"/>
			</g>
		</g>
	</g>
        <g class="st2">
		<g>
			<path class="st3" d="M401.2,258.6c-1.3,4.9-3,9.8-4.7,14.5c-2.1,5.8-4.2,11.6-6.3,17.3c-4.7,12.8-9.4,25.6-13.3,38.5
				c-3.1,10.3-5.8,20.7-7.7,31.3L340,373c-0.8,0-1.6-0.2-2.4-0.4c-3.1-1-5.1-4.1-5.8-7.3c-0.7-3.2-0.2-6.5,0.3-9.7
				c4.4-26.1,12.8-51.4,22.5-76.1c0.1-0.3,0.2-0.6,0.3-0.8c4.5-11.5,9.3-22.9,15.4-33.7c2.6-4.6,5.4-9,8.5-13.2
				c2.3-3.1,4.4-6.6,6.9-8.6L401.2,258.6z"/>
		</g>
	</g>
        <g>
		<g>
			<path class="st11" d="M501.9,394.8l-150.7-36c-3.8-0.9-5.9-4.9-4.6-8.6l56.2-155.8c1.1-3.1,4.4-4.9,7.7-4.1l112.8,27
				c3.2,0.8,5.3,3.8,5,7.1l-18.3,164.9C509.5,393.1,505.7,395.7,501.9,394.8z"/>
		</g>
            <g>
			<path class="st11" d="M464.5,262.2c-3.2,0-6.4-0.4-9.6-1.1c-12.3-2.9-22.5-11.2-28.7-23.3c-6.1-11.8-7.6-25.9-4.3-39.6
				c6.9-28.7,32.8-47.1,57.9-41.1c12.3,2.9,22.5,11.2,28.7,23.3c6.1,11.8,7.6,25.9,4.3,39.6C506.8,244.9,486.3,262.2,464.5,262.2z
				 M470.2,166.7c-16.9,0-33,13.9-37.8,34c-2.7,11.2-1.5,22.7,3.4,32.2c4.8,9.2,12.4,15.5,21.6,17.7c2.4,0.6,4.8,0.8,7.1,0.8
				c16.9,0,33-13.9,37.8-34c2.7-11.2,1.5-22.7-3.4-32.2c-4.8-9.2-12.4-15.5-21.6-17.7C474.9,167,472.6,166.7,470.2,166.7z"/>
		</g>
	</g>
        <g>
		<path class="st12" d="M526.5,62.7h67.1c2.9,0,5.3,2.4,5.3,5.3v40.5c0,2.9-2.4,5.3-5.3,5.3h-42.3L535.2,127l-1.4-13.3h-7.3
			c-2.9,0-5.3-2.4-5.3-5.3V68C521.3,65.1,523.6,62.7,526.5,62.7z"/>
	</g>
        <g>
		<path class="st11" d="M291.9,111c-3.9-4.1-10.1-2.3-14.5,0.7c-3.1-4.4-8.3-8.2-13.4-5.6c-2.8,1.4-4.6,4.5-4.6,7.6
			c0,4.9,3.3,9.3,6.3,12.9c2.3,2.8,4.9,5.4,7.7,7.8c3.4-1.3,6.7-2.9,9.9-4.7c4-2.3,8.7-5.4,10.3-10
			C294.7,116.9,294.1,113.3,291.9,111z"/>
	</g>
        <g>
		<path class="st9" d="M575.5,74.8c-5.1-3.7-11.5-0.6-15.8,3.6c-4.3-4.2-10.7-7.3-15.8-3.6c-2.8,2.1-4.2,5.9-3.6,9.3
			c0.9,5.3,5.5,9.6,9.4,12.9c3.1,2.6,6.5,4.9,10,7c3.5-2.1,6.8-4.4,10-7c4-3.3,8.5-7.6,9.4-12.9C579.7,80.7,578.3,76.9,575.5,74.8z"
        />
	</g>
        <g class="st13">
		<polygon class="st14"
                 points="250.8,246.2 576.1,241.9 593.9,255.6 546.1,425.5 531.4,432.7 296.8,430.5 		"/>
	</g>
        <g class="st15">
		<g>
			<path class="st8" d="M420,202.7c-3-0.1-6.1-0.1-8.8,1.1c-4.3,2-6.6,6.5-8.5,10.8c-7,16-11.9,33-14.4,50.3c-0.4,2.8,0,6.6,2.8,6.9
				c1,0.1,2-0.4,2.9-0.9c5.4-3.4,8.3-9.6,12.1-14.8c6.5-8.6,10.4-20.7,20.4-24.6c10-3.9,26.3,0.3,36.9-1.6c14.2-2.6,8.9-16-2.2-18.2
				C447.3,208.9,434.5,203.4,420,202.7z"/>
		</g>
	</g>
        <g>
		<path class="st6" d="M292,431.7L244.3,241l-1-4.2c-2.4-9.6-10.2-16.9-19.9-18.7l-58.8-10.6l1.7-9.6l58.8,10.6
			c13.5,2.4,24.4,12.6,27.6,26l1,4.2l47.8,190.7L292,431.7z"/>
	</g>
        <g>
		<g>
			<path class="st6" d="M269.1,441.2c2.8-2.3,6.7-3.6,10.9-3.6h251.4c11.4,0,21.3-7.7,24.2-18.7l41-155.1c1.7-6.4,0.4-13.2-3.7-18.4
				c-4.1-5.3-10.2-8.3-16.9-8.3l-326-0.1c-0.6,0-1.2,0.1-1.7,0.3c-1.9,0.7-3.2,2.5-3.2,4.6c0,2.7,2.2,4.9,4.9,4.9h0.7l95,0l74.8,0
				l78.6,0l76.9,0c3.6,0,6.9,1.6,9.1,4.5c2.2,2.9,2.9,6.5,2,10l-9.3,35l-18,67.9l-13.8,52.2c-1.8,6.7-7.9,11.4-14.8,11.4H280
				c-6.5,0-12.5,2.1-17.1,5.8c-5.6,4.6-10.7,10.6-10.4,23.6v0c0,0.1,0,0.2,0,0.3c-0.2,7.1,2.5,13.9,7.5,19.1
				c5.2,5.3,12.4,8.4,19.9,8.4H564c2.7,0,4.9-2.2,4.9-4.9c0-2.7-2.2-4.9-4.9-4.9H279.9c-4.8,0-9.5-2-12.9-5.4
				c-3.2-3.3-4.9-7.5-4.8-12l0-0.1c0-0.2,0-0.5,0-0.7C262.1,447,266,443.7,269.1,441.2z"/>
		</g>
	</g>
        <g>
		<path class="st6" d="M219.6,213.8l0.6-3.1c0.8-4.2-2-8.3-6.2-9.1l-44.9-8.6c-4.2-0.8-8.3,2-9.1,6.2l-0.6,3.1
			c-0.8,4.2,2,8.3,6.2,9.1l44.9,8.6C214.8,220.7,218.9,218,219.6,213.8z"/>
	</g>
        <g>
		<rect x="494.3" y="243" class="st6" width="9.8" height="187.5"/>
	</g>
        <g>
		<rect x="415.7" y="243" class="st6" width="9.8" height="186.6"/>
	</g>
        <g>
		<rect x="340.9" y="243" class="st6" width="9.8" height="189.4"/>
	</g>
        <g>
		
			<rect x="265.9" y="291.8" transform="matrix(1 -1.998198e-03 1.998198e-03 1 -0.5919 0.8474)" class="st6"
                  width="315.8" height="9.8"/>
	</g>
        <g class="st2">
		<g>
			<path class="st3" d="M522.7,485.1H499c-0.9-0.9-1.8-1.7-2.7-2.5c-1.9-1.8-3.9-3.7-4.4-6.2c-0.1-0.3-0.1-0.7-0.1-1H514
				c1.7,1.2,3.2,2.6,4.6,4.1C520.2,481.1,521.6,483,522.7,485.1z"/>
		</g>
	</g>
        <g>
		<rect x="282" y="359.3" class="st6" width="279.2" height="9.8"/>
	</g>
        <g>
		<circle class="st16" cx="490.4" cy="499.5" r="27.8"/>
	</g>
        <g class="st2">
		<g>
			<path class="st3" d="M354.3,485.1h-23.7c-0.9-0.9-1.8-1.7-2.7-2.5c-1.9-1.8-3.9-3.7-4.4-6.2c-0.1-0.3-0.1-0.7-0.1-1h22.3
				c1.7,1.2,3.2,2.6,4.6,4.1C351.9,481.1,353.2,483,354.3,485.1z"/>
		</g>
	</g>
        <g>
		<circle class="st6" cx="490.7" cy="499.6" r="18.1"/>
	</g>
        <g>
		<path class="st16" d="M350,499.5c0,15.4-12.5,27.8-27.8,27.8c-15.4,0-27.8-12.5-27.8-27.8c0-5.3,1.5-10.2,4-14.4
			c2.4-4,5.9-7.4,10-9.8c4.1-2.4,8.8-3.7,13.9-3.7c2.2,0,4.3,0.3,6.3,0.7c2.7,0.6,5.2,1.6,7.5,3c4.1,2.4,7.5,5.7,10,9.8
			c2.2,3.7,3.6,7.9,3.9,12.4C350,498.1,350,498.8,350,499.5z"/>
	</g>
        <g>
		<circle class="st6" cx="322.5" cy="499.6" r="18.1"/>
	</g>
        <g>
		<g>
			<circle class="st17" cx="175.5" cy="140.1" r="28.5"/>
		</g>
            <g>
			<g>
				<path class="st18" d="M175.4,151.2c-1.7,0-3.2-0.5-4.5-1.4c-0.9-0.6-1.1-1.9-0.5-2.8c0.6-0.9,1.9-1.1,2.8-0.5
					c0.9,0.6,2.2,0.8,3.5,0.5c1.1-0.3,2-0.9,2.3-1.7c0.5-1,0.5-1.9,0.1-2.6c-0.6-1.2-2.3-2-3.5-2.2c-3-0.4-7.9-1-9.3-5.3
					c-0.8-2.6,0-5.4,2.3-7.3c2.4-2,5.8-2.3,8.3-0.9c1,0.6,1.3,1.8,0.7,2.8c-0.6,1-1.8,1.3-2.8,0.7c-1.2-0.7-2.8-0.2-3.7,0.5
					c-0.5,0.4-1.5,1.4-1,2.9c0.5,1.7,3.1,2.1,5.9,2.5c2.2,0.3,5.2,1.6,6.7,4.2c0.7,1.3,1.3,3.5,0,6.3c-0.9,1.8-2.7,3.2-4.9,3.8
					C176.9,151.1,176.2,151.2,175.4,151.2z"/>
			</g>
                <g>
				<path class="st18" d="M171.8,129.7c-0.8,0-1.6-0.5-1.9-1.3c-0.4-1.1-0.7-2.3-1-3.4c-0.2-1.1,0.4-2.2,1.5-2.4
					c1.1-0.2,2.2,0.4,2.4,1.5c0.2,1,0.5,2,0.9,2.9c0.4,1-0.2,2.2-1.2,2.6C172.3,129.7,172,129.7,171.8,129.7z"/>
			</g>
                <g>
				<path class="st18" d="M178.9,155.2c-0.8,0-1.6-0.5-1.9-1.3c-0.4-1.1-0.7-2.3-1-3.4c-0.2-1.1,0.4-2.2,1.5-2.4
					c1.1-0.2,2.2,0.4,2.4,1.5c0.2,1,0.5,2,0.9,2.9c0.4,1-0.2,2.2-1.2,2.6C179.4,155.2,179.1,155.2,178.9,155.2z"/>
			</g>
		</g>
	</g>
        <g>
		<g>
			<circle class="st17" cx="621.3" cy="465.9" r="19.3"/>
		</g>
            <g>
			<g>
				<path class="st18" d="M619.7,472.8c-1.1,0-2.1-0.4-3.1-1.1c-1.4-1-2.2-2.5-2.4-4c-0.1-0.8,0.5-1.4,1.3-1.5
					c0.7-0.1,1.4,0.5,1.5,1.3c0.1,0.8,0.5,1.5,1.2,2c0.6,0.4,1.3,0.6,1.9,0.5c0.7-0.2,1.2-0.5,1.4-1.1c0.3-0.9,0.1-2-0.4-2.8
					c-1.1-1.8-2.9-4.6-1.3-7.1c1-1.6,2.9-2.3,4.8-1.9c2.1,0.4,3.7,2,4.1,3.9c0.1,0.7-0.4,1.5-1.1,1.6c-0.7,0.1-1.5-0.4-1.6-1.1
					c-0.2-0.9-1.1-1.5-1.9-1.7c-0.4-0.1-1.4-0.2-2,0.7c-0.6,1,0.2,2.5,1.3,4.1c0.8,1.3,1.4,3.4,0.7,5.3c-0.4,1-1.3,2.2-3.3,2.7
					C620.4,472.7,620,472.8,619.7,472.8z"/>
			</g>
                <g>
				<path class="st18" d="M626.1,460c-0.2,0-0.5-0.1-0.7-0.2c-0.7-0.4-0.9-1.2-0.5-1.9c0.4-0.7,0.9-1.4,1.3-2
					c0.5-0.6,1.3-0.7,1.9-0.2c0.6,0.5,0.7,1.3,0.2,1.9c-0.4,0.5-0.8,1.1-1.1,1.7C627.1,459.7,626.6,460,626.1,460z"/>
			</g>
                <g>
				<path class="st18" d="M615.9,474.7c-0.2,0-0.5-0.1-0.7-0.2c-0.7-0.4-0.9-1.2-0.5-1.9c0.4-0.7,0.9-1.4,1.3-2
					c0.5-0.6,1.3-0.7,1.9-0.2c0.6,0.5,0.7,1.3,0.2,1.9c-0.4,0.5-0.8,1.1-1.1,1.7C616.8,474.5,616.4,474.7,615.9,474.7z"/>
			</g>
		</g>
	</g>
        <g class="st15">
		<g>
			<path class="st8" d="M343.8,155.8c-2.2-2.9-4.4-4.8-6.3-5.3c-2-0.4-4,0.2-6,0.9c-10.6,3.8-38.7,11.2-42.6,23.5
				c-2.3,7.2,8.8,3.5,11.8,2.3c4.3-1.8,8.4-4.4,13-5c10-1.3,18.4,6.9,26.4,13.1c1.8,1.4,3.7,2.7,5.9,3.1
				C359.4,190.4,352.1,166.8,343.8,155.8z"/>
		</g>
	</g>
        <g class="st15">
		<g>
			<path class="st8" d="M270.8,108.1c-0.9-0.5-1.9-0.9-3-1c-1.3,0-3.3,0.7-2.9,2.3c0.2,0.7,0.9,1,1.4,1.4c1.2,1,2.5,1.9,3.8,2.8
				c1,0.7,2.1,1.4,3.3,1.6c0.2,0,0.5,0.1,0.7,0c1.4-0.6,0.9-2.5,0.4-3.5C273.8,110,272.3,108.9,270.8,108.1z"/>
		</g>
	</g>
        <g class="st19">
		<g>
			<path class="st8" d="M167.2,117.7c-11,2.7-17.6,15.9-15.4,26.5c1,4.8,5.6,8.1,9.2,3c1.5-2.2,2-4.8,3-7.3
				c2.2-5.6,8.5-7.9,11.7-12.7c3.7-5.6-1.6-10.8-7.5-9.7C167.8,117.5,167.5,117.6,167.2,117.7z"/>
		</g>
	</g>
        <g class="st19">
		<g>
			<path class="st8" d="M623.5,450.2c-6.7-1.5-13.9,4-15.5,10.3c-0.7,2.9,0.9,5.9,4.2,4.1c1.4-0.8,2.4-2.1,3.6-3.2
				c2.7-2.5,6.7-2,9.8-3.8c3.5-2.1,2-6.3-1.5-7.3C623.8,450.3,623.7,450.3,623.5,450.2z"/>
		</g>
	</g>
        <g class="st15">
		<g>
			<path class="st8" d="M191.2,203.1c0-0.3,0-0.6-0.2-1c-0.5-1.2-1.9-1.8-3-2.3c-1.5-0.8-3.2-1.3-4.9-1.8c-3.2-1-6.6-1.5-9.9-2.1
				c-2.3-0.5-6-0.9-8.1,0.6c-3.8,2.6-2.2,6.2,2.3,5.6c4.1-0.5,8.2,0.4,12.2,1.1c2.3,0.4,4.6,1,6.9,1
				C187.7,204.2,191,204.6,191.2,203.1z"/>
		</g>
	</g>
        <g class="st20">
		<g>
			<path class="st8" d="M561.5,76.9c1.6-0.4,3.4-1,3.9-2.5c0.5-1.3-0.1-2.7-1.1-3.7c-1-0.9-2.3-1.4-3.6-1.7
				c-6.2-1.6-12.8-1.3-19.2-1c-2.7,0.1-5.5,0.3-8,1.5c-3.3,1.6-5.4,4.9-6.3,8.5c-0.6,2.4-1.8,14.1,1.5,15.3c2.2,0.8,4-4.3,4.8-5.7
				c2.4-4.1,4.9-7.8,9.9-8.7C549.4,77.9,555.5,78.4,561.5,76.9z"/>
		</g>
	</g>
        <g class="st15">
		<g>
			<path class="st8" d="M452,168c1.4-0.7,2.9-1.3,3.9-2.6c0.4-0.5,0.7-1.2,0.6-1.8c-0.1-0.6-0.6-1-1.1-1.3c-2.3-1.1-5,0.3-6.9,1.6
				c-3.6,2.4-7,5.1-10.1,8.1c-1.3,1.2-2.6,2.5-3.6,4c-0.7,1.1-2.7,3.9-1.2,5.1c2.3,1.8,7.4-4.4,8.9-5.7
				C445.4,172.7,448.3,169.8,452,168z"/>
		</g>
	</g>
        <g class="st15">
		<g>
			<path class="st8" d="M564.2,170.1c1.2-0.2,2.3-0.3,3.3-1c0.4-0.3,0.8-0.7,0.8-1.2c0-0.4-0.2-0.9-0.5-1.2
				c-1.4-1.3-3.6-0.9-5.3-0.5c-3.1,0.9-6.2,2-9.1,3.5c-1.2,0.6-2.4,1.2-3.5,2c-0.8,0.6-2.8,2.2-2,3.3c1.2,1.8,6.3-1.4,7.6-2
				C558.4,172,561.2,170.6,564.2,170.1z"/>
		</g>
	</g>
        <g class="st19">
		<g>
			<path class="st8" d="M326.9,488.3c2-1.5,3.3-3.3,2.8-5.3c-1.3-5.5-8.7-5.1-13-4.4c-5.7,1-10.2,4.7-12.8,9.8
				c-1.8,3.4-4.8,10.6-2.1,14.2c4.5,5.9,8.8-3.5,11.3-6.3C315.5,493.7,322.8,491.4,326.9,488.3z"/>
		</g>
	</g>
        <g class="st19">
		<g>
			<path class="st8" d="M495.1,488.3c2-1.5,3.3-3.3,2.8-5.3c-1.3-5.5-8.7-5.1-13-4.4c-5.7,1-10.2,4.7-12.8,9.8
				c-1.8,3.4-4.8,10.6-2.1,14.2c4.5,5.9,8.8-3.5,11.3-6.3C483.7,493.7,491,491.4,495.1,488.3z"/>
		</g>
	</g>
        <g class="st15">
		<g>
			<path class="st8" d="M549.8,195.6c0.2,0,0.5-0.1,0.7-0.2c0.5-0.5-0.1-1.3-0.6-1.7c-2.1-1.6-25.3-17.7-25.5-10.8
				c-0.1,2.5,7.3,5.4,9,6.3C537.9,191.6,544.5,196.2,549.8,195.6z"/>
		</g>
	</g>
</g>
</svg>
