<?xml version="1.0" encoding="utf-8"?>
<!-- Generator: Adobe Illustrator 22.1.0, SVG Export Plug-In . SVG Version: 6.00 Build 0)  -->
<svg version="1.1" id="Слой_1" xmlns="http://www.w3.org/2000/svg" x="0px"
     y="0px"
     viewBox="0 0 841.9 595.3" style="enable-background:new 0 0 841.9 595.3;" xml:space="preserve">
<style type="text/css">
	.st0{fill:#8AB626;}
	.st1{fill:#AFCC49;}
	.st2{fill:none;stroke:#AFCC49;stroke-width:3.2981;stroke-miterlimit:10;}
	.st3{fill:#285F2A;}
	.st4{fill:none;stroke:#285F2A;stroke-width:2.8563;stroke-miterlimit:10;}
	.st5{fill:none;stroke:#AFCC49;stroke-width:3.2039;stroke-miterlimit:10;}
	.st6{opacity:0.24;fill:#020203;}
	.st7{fill:#F08BA9;}
	.st8{fill:#E04575;}
	.st9{fill:none;stroke:#EA548C;stroke-width:1.4187;stroke-linecap:round;stroke-miterlimit:10;}
	.st10{fill:#29602A;}
	.st11{opacity:0.28;fill:#020203;}
	.st12{fill:#262626;}
	.st13{fill:#F7E009;}
	.st14{fill:#85BC25;}
	.st15{fill:#F9B50E;}
	.st16{fill:#077C99;}
	.st17{fill:#10727D;}
	.st18{opacity:0.14;fill:#FFFFFF;}
	.st19{opacity:0.45;fill:#FFFFFF;}
	.st20{fill:#12A8C2;}
	.st21{fill:#030304;}
	.st22{opacity:0.38;fill:#FFFFFF;}
	.st23{opacity:0.29;fill:#FFFFFF;}
	.st24{fill:#9C305C;}
	.st25{fill:none;stroke:#141414;stroke-width:4.2109;stroke-linecap:round;stroke-linejoin:round;stroke-miterlimit:10;}
	.st26{fill:none;stroke:#141414;stroke-width:5.7422;stroke-linecap:round;stroke-linejoin:round;stroke-miterlimit:10;}
	.st27{fill:#C1D455;}
	.st28{opacity:0.34;fill:#FFFFFF;}
	.st29{fill:#737373;}
	.st30{fill:#F49A57;}
	.st31{fill:#045664;}
	.st32{fill:#F2F2F2;}
	.st33{fill:#2B868A;}
	.st34{fill:none;stroke:#FAFAFA;stroke-width:0.9733;stroke-miterlimit:10;}
	.st35{fill:#36A8A9;}
	.st36{opacity:0.13;fill:#020203;}
	.st37{opacity:0.16;fill:#020203;}
	.st38{opacity:0.15;fill:#020203;}
	.st39{opacity:0.15;fill:#FFFFFF;}
	.st40{fill:#FCCD0A;}
	.st41{fill:#E8B525;}
	.st42{fill:none;stroke:#FFEAB1;stroke-width:1.2782;stroke-linecap:round;stroke-linejoin:round;stroke-miterlimit:10;}
</style>
    <path class="st0" d="M680.8,313.5c-7.5,26.8-18.2,53.2-35.6,73.7c-20.8,24.4-13,26.7-42.4,37.8c-0.1,0-23.8,17.2-23.9,17.3
	c-3.5,1.3-6.9,2.7-10.3,4h0c-30.2,12.4-55.9,26.6-89.8,31.5c-30.6,4.4-61.8,6.3-92.1,12.3c-11.7,2.3-38.5-2-49.9,1.9
	C305,503,300,523.2,267.2,525.3c-0.5,0-1,0.1-1.6,0.1c-10.8,0.6,1.6-17.3-59.9-19.6C146.3,503.6,83.8,442,96.3,373.5
	c11.4-62.8,44.2-66.5,76-101.7c43.1-47.8,72.6-109.4,120.2-151.8c13.1-11.7,27.3-21.7,42.1-30.7c4.4-2.7,8.8-5.2,13.3-7.7
	c1.6-0.9,3.1-1.7,4.7-2.6c0.5-0.3,1-0.6,1.6-0.8c7.5-4.1,15.1-7.9,22.8-11.6c20.4-9.8,41.5-18.1,62.9-25.1
	c51.9-16.8,110.2-24.5,159.7,1.2c43.2,22.4,74,68.6,86.6,118.5C698.8,211.2,694.5,264.5,680.8,313.5z"/>
    <g>
	<g>
		<path class="st1" d="M240.8,143.4c36.6,27.7,54.3,74.4,45.6,120.6C260.1,229.1,262.1,181.4,240.8,143.4z"/>
	</g>
        <g>
		<path class="st1" d="M266.6,245.6c-15.3-17.5-30.7-35.2-49-49.5s-40.1-25.2-63.7-27.4c5.8,8.4,12.7,16.5,20.6,23
			C202.6,214.7,232.9,231.3,266.6,245.6z"/>
	</g>
        <g>
		<path class="st1" d="M359.7,335.5c-0.9,0.2-1.7,0.3-2.6,0.5c-28.3,5.2-55.4,7.1-83.2,3.4c-8.1-1.1-16.1-3.9-23.4-7.4
			c17.5-9.9,37.1-12.1,55.6-10.2c17,1.8,33.4,7,49.6,12.4C356.9,334.5,358.3,335,359.7,335.5z"/>
	</g>
        <g>
		<path class="st1" d="M327.3,301c-0.6-0.5-1.1-1.2-1.6-1.9c-4.6-6.2-7.1-17.5-9.4-24.4c-3.1-9.3-5.6-18.9-7.4-28.6
			c-1.9-9.7-3.2-19.5-3.8-29.4c-0.3-5-0.5-9.9-0.5-14.9c0-2.4,0.6-10.7,0.3-13.9c21.5,27.8,30.8,64.9,25,100.5
			c-0.6,3.6-1.2,7.2-2.1,10.7C327.6,299.8,327.4,300.4,327.3,301z"/>
	</g>
        <g>
		<path class="st1" d="M178.5,241.8c5.2,1.8,9.8,2,13.2,2.4c15.1,1.8,30.5,1.8,45.5,4.2c6.7,1.1,13.3,2.4,19.8,4.1
			c3,0.8,6,1.6,8.9,2.6c2.6,0.8,20.1,8.1,20.3,8.2c-5.6,1.1-10.5,1.6-15,2.6c-7.3,1.6-14.8,2.9-22,3.2c-12.2,0.5-24-1.5-35.2-5.6
			C201.1,258.9,189.6,252.4,178.5,241.8z"/>
	</g>
        <g>
		<path class="st1" d="M358.6,335c-0.5-2.2-2.1-5.2-3.1-11.2c-1.6-9.8-2.8-19.7-3.5-29.6c-0.3-4.9-0.6-9.8-0.7-14.8
			c-0.3-15.6-0.7-31.2-1.6-46.7c1.4,1.2,4.1,3.5,5.1,4.6c9.6,10.2,14.1,22.1,15.3,34.8c0.3,2.8,0.4,5.7,0.3,8.5
			C370.3,298.7,364.6,317.6,358.6,335z"/>
	</g>
        <g>
		<path class="st1" d="M327.8,303.1c-1.4-1.5-11.8,1.3-14.1,1.7c-13.5,2-26.7,4.2-40.2,3.4c-1.8-0.1-3.7-0.3-5.5-0.5
			c-18.2-2.1-36.1-9.2-50.9-22.2c6.3,0.5,9.8,0.6,12.6,0.7c5.2,0.3,10.3,0.7,15.4,1.1c15.2,1.2,30.5,1.7,45.7,3
			c10.7,0.9,22.6,2,32.1,8.6C324.6,300.1,326.3,301.5,327.8,303.1z"/>
	</g>
        <g>
		<path class="st2" d="M257.4,239.1c0,0,57.9,38,126.4,131.4"/>
	</g>
</g>
    <g>
	<g>
		<path class="st3" d="M544.3,55.5c3.6,44.1-18.6,86.8-57.4,110.2C495.1,124.4,530.6,95.2,544.3,55.5z"/>
	</g>
        <g>
		<path class="st3" d="M487.4,139.6c2.8-22.2,5.6-44.6,4.1-67c-1.5-22.4-7.6-45-21.2-63.3c-2.3,9.6-3.7,19.8-3.3,29.6
			C468.5,73.9,476,106.3,487.4,139.6z"/>
	</g>
        <g>
		<path class="st3" d="M443.6,203c4.5,4.3,8.5,9.1,12.1,14.1c9.7,13.4,16.4,28.5,22.9,43.6c0.6,1.3,1.1,2.6,1.6,3.8
			c-0.7-0.5-1.3-1-2-1.5c-21.9-17-40.7-35.2-55.9-57.6c-4.4-6.5-7.6-14-9.7-21.6c0.7,0.2,1.4,0.5,2.2,0.8
			C425.9,188.7,435.5,195.2,443.6,203z"/>
	</g>
        <g>
		<path class="st3" d="M553.3,130.2c-3.5,18.9-11.6,36.8-23.4,52.2c-9,11.8-20.1,22.1-32.8,30.3c-3.4,2.2-6.9,4.4-10.6,6.2
			c0.3-7.5,7.9-18,11.8-24.8c1.8-3.2,3.7-6.3,5.7-9.4c3.2-4.9,6.5-9.7,10-14.3c5.8-7.6,12-14.8,18.7-21.6c3.3-3.4,6.8-6.7,10.4-9.9
			C544.8,137.3,551.2,132.4,553.3,130.2z"/>
	</g>
        <g>
		<path class="st3" d="M433.6,73.9c2.1,4.9,4.8,8.3,6.7,11.1c8.4,12,18.3,23.1,26.2,35.4c3.5,5.5,6.8,11.1,9.8,16.9
			c1.4,2.6,2.6,5.3,3.9,8.1c1.1,2.4,7,19.7,7.1,19.8c-4.4-3.4-7.9-6.5-11.5-9.1c-5.8-4.3-11.6-8.7-16.4-13.7
			c-8.2-8.4-14.3-18.2-18.6-28.9C435.8,101.2,433,88.7,433.6,73.9z"/>
	</g>
        <g>
		<path class="st3" d="M547.4,192.1c0,1.8,0.1,5.2,0,6.7c-1.4,16.5-9.6,29-21.1,39c-2.6,2.3-5.4,4.4-8.3,6.4
			c-11.7,8.1-25.3,14.4-38.4,19.9c1.2-1.8,2.4-4.8,6.1-9.4c5.1-6.3,10.4-12.4,16-18.3c4.3-4.5,8.7-8.9,13.3-13.1
			C525.8,213,536.7,202.7,547.4,192.1z"/>
	</g>
        <g>
		<path class="st3" d="M426.9,129.7c3.7,4.8,5.9,7.4,7.5,9.5c3.1,3.9,6.1,7.9,9.1,11.8c3.2,4.3,6.5,8.4,9.8,12.6
			c5.8,7.3,11.7,14.6,17.4,22.1c7.4,9.8,15.6,20.9,14.6,34.8c0.1-2-8.5-7.6-10.2-9c-11.5-9.5-22.9-18.8-31.5-31
			c-7.4-10.6-12.9-22.8-15.3-36C427.4,139.7,426.9,134.8,426.9,129.7z"/>
	</g>
        <g>
		<path class="st4" d="M486.2,128.9c0,0,0.5,3.5,1.1,10.3c0.4,5.2,0.8,12.2,1,21c0,1.5,0,3.1,0.1,4.8c0,4.8,0,10-0.1,15.6
			c-0.3,12.8-1.1,27.8-2.8,44.9c-1.1,10.8-2.5,22.5-4.4,35c-0.1,0.8-0.2,1.5-0.4,2.3c-2,13,0.4,1.5-2.6,16.1"/>
	</g>
</g>
    <g>
	<g>
		<path class="st1" d="M748,291.8c-38.3,22.9-86.9,21.7-125.3-3.1C663.8,277.7,705.9,296.9,748,291.8z"/>
	</g>
        <g>
		<path class="st1" d="M646.6,277.5c21.4-7.3,42.9-14.7,62.5-26s37.4-26.9,47.9-47.3c-9.7,2.1-19.5,5.4-28.2,10.2
			C697.7,231.2,671.7,252.5,646.6,277.5z"/>
	</g>
        <g>
		<path class="st1" d="M531.6,328.4c0.2-0.8,0.3-1.7,0.5-2.5c5.7-27.4,13.8-52.4,27.4-76.2c3.9-6.9,9.4-13.1,15.3-18.3
			c2.5,19.4-2.6,37.8-11.1,53.7c-7.8,14.7-18.5,27.5-29.3,40.1C533.4,326.3,532.5,327.4,531.6,328.4z"/>
	</g>
        <g>
		<path class="st1" d="M574.5,311.9c0.7-0.3,1.4-0.6,2.3-0.8c7.2-1.9,18.3,0,25.4,0.5c9.5,0.6,19,1.9,28.4,3.8
			c9.4,1.9,18.7,4.3,27.9,7.3c4.6,1.5,9.1,3.2,13.6,5c2.2,0.9,9.4,4.5,12.4,5.4c-32.9,9.2-69.6,4-99.6-14.3c-3-1.8-6-3.7-8.9-5.8
			C575.5,312.6,575,312.2,574.5,311.9z"/>
	</g>
        <g>
		<path class="st1" d="M682.2,199.6c-3.5,4-5.4,8.1-7,11c-7.1,12.9-12.8,26.8-20.5,39.4c-3.4,5.6-7,11.1-11,16.4
			c-1.8,2.4-3.7,4.8-5.6,7.1c-1.7,2.1-14.7,15.1-14.8,15.2c1.1-5.5,2.4-10.1,3.2-14.5c1.3-7.2,2.8-14.4,5.2-21
			c4-11.1,10.1-21.1,17.9-29.6C658.5,213.7,668.6,205.7,682.2,199.6z"/>
	</g>
        <g>
		<path class="st1" d="M532.4,327.7c2.1,0.3,5.5,0,11.2,1.3c9.4,2.1,18.7,4.7,27.9,7.7c4.5,1.5,9.1,3.1,13.5,4.8
			c14.2,5.4,28.4,10.8,42.7,15.7c-1.6,0.8-4.7,2.4-6,2.9c-12.7,4.9-25.1,4.6-36.9,1c-2.6-0.8-5.2-1.7-7.8-2.8
			C560.8,351.5,545.8,339.4,532.4,327.7z"/>
	</g>
        <g>
		<path class="st1" d="M572.4,311.6c1.9-0.8,3.1-11.1,3.6-13.3c3.1-12.9,6-25.6,11.6-37.4c0.8-1.6,1.6-3.2,2.5-4.8
			c8.6-15.6,21.5-29.1,38.6-37.7c-2.7,5.5-4.1,8.6-5.3,11c-2.2,4.5-4.4,9-6.7,13.5c-6.7,13.2-12.7,26.8-19.4,40.1
			c-4.7,9.3-10,19.6-19.4,25.7C576.2,309.8,574.4,310.8,572.4,311.6z"/>
	</g>
        <g>
		<path class="st5" d="M655.8,271.7c0,0-55.3,38.2-164.5,65.7"/>
	</g>
</g>
    <path class="st6" d="M291,287.6c-0.6-0.3-1.3-0.7-1.9-1.2c0.6-0.1,1.2-0.3,1.8-0.4C290.9,286.5,290.9,287,291,287.6z"/>
    <path class="st3" d="M336.3,351.2c-1.2-20.7-9.1-32.8-23.6-46.7c0,0,0,4.9-0.9,10.7c-1.1,7.7-3.6,17.1-9.4,19.1
	c-6,2.1-5.3-11.8-3.8-23.5c1.1-8,2.5-14.9,2.5-14.9s-25.5-23.9-39.9-24.5c0,0,2.3,11.7,3.4,24.6c0.1,0.8,0.1,1.5,0.2,2.3
	c1.1,15.5,0.1,31.6-9,30.2c-13.6-2.2-4.8-16-4.9-32.7c0-2.4-0.2-4.8-0.7-7.2c-0.4-2.2-1-4.4-1.9-6.6c0,0-5.6-12.2-9.2-15.3
	l-37.5-0.7c0,0,4.8,8,9.2,17.4c2.7,5.7,5.2,11.9,6.4,17.1c1.1,5,1.1,9-1.2,10.8c-3,2.3-6.5-1.4-10.2-7.4c-3.2-5.4-6.5-12.5-9.5-18.9
	c-3.4-7.2-6.3-13.4-8.3-14.5l-22.8,9.4c0,0,4.6,4.8,8.3,10.8c4,6.6,7,14.5,1.9,19.2c0,0,0,0-0.1,0.1c-2.7,2.4-5.7,2-8.4,0.1
	c-3.5-2.5-6.8-7.5-8.8-12.5c-2.2-5.5-3-11-1.1-13.3c0,0-26.2,11.7-33.1,8.8c0,0-0.1,1.8-0.3,4.6c-0.5,10.2-1.5,34,1,36.1
	c0,0,22.7-10.7,23.5,0.6c0.8,11.3-22.7,6.5-22.7,6.5s0.4,2.6,1.4,6.2c1.3,4.8,3.5,11.3,7.1,15.2c0,0,10.5-1.8,21.2-4.5
	c8.2-2.1,16.6-4.7,20.7-7.6c8.4-5.8,10.3,6.1-2.5,14.5c-1.7,1.1-3.6,2.1-5.7,3.1c-18.9,8.1-32.5,5.6-32.5,5.6l25.1,36.5
	c0,0,32-25.5,39.8-18.3c7.8,7.2-9.4,21.8-32,25.5c0,0,19.8,22.7,34.8,24.2c0,0,36.5-36.3,43.8-30.8c7.3,5.5,0.1,21.5-28.8,37.3
	c0,0,35.6,13.2,63.6,5.2c28-8.1,41.7-28.4,46.1-49C327.4,403.7,337.9,378.4,336.3,351.2z M216.9,335.3c-3.3-0.7-5-5.1-4-9.8
	c0.3-1.5,0.9-2.8,1.6-3.9c1.6-2.4,3.9-3.7,6.2-3.2c2.3,0.5,3.8,2.8,4.2,5.8c0.2,1.3,0.1,2.6-0.2,4
	C223.7,332.9,220.2,336.1,216.9,335.3z M256.8,353.6c-3.3-0.6-5.2-4.9-4.4-9.6c0.9-4.7,4.2-8,7.5-7.4c3.3,0.6,5.2,4.9,4.4,9.6
	C263.5,350.9,260.1,354.2,256.8,353.6z"/>
    <g>
	<path class="st7" d="M656.4,265c4.6-2.7,8.8-5.8,12.7-9.2c17.4-15.6-2.9-35.8-22.1-33.9c-7.4,0.8-14.5,3.5-21.2,6.3
		c-18.7,7.9-37.8,14.8-56.4,23c20-8.9,28.5-16,46.2-32.3c12.2-11.2,43.8-40.8,28.1-59.7c-15.9-19.1-48.5,9.3-55.1,16.3
		c-19.6,20.9-23.8,29.5-38.6,54.9c11.7-23.3,14-30.7,24.8-54.6c4.1-9.1,8.2-18.6,7.7-29.5c-0.6-10.8-7.4-23.2-17.3-26.2
		c-21.8-6.5-33.6,20-39.7,36.7c-6.3,17.4-9.7,36.4-9.9,56.1c-0.1,16.1-0.2,36.5,11,50.9c11.5,14.8,34.1,17,49.3,17.6
		C602.7,282.6,633.4,278.6,656.4,265z"/>
        <path class="st8" d="M639.8,272.8c-0.8,1.5-2,3-3.7,4.4c-0.4,0.4-0.8,0.7-1.3,1.1c-12.1,9.4-33.1,10.4-47.7,10
		c-7.2-0.2-14.4-1.2-21.5-3c-3.2-0.8-6.4-1.7-9.5-2.8c-4.8-1.7-9.5-3.8-14-6.2c-1.3-0.7-2.6-1.5-3.9-2.3c-1.1-0.7-2.1-1.5-3.2-2.3
		c-3.3-2.5-6.3-5.5-9.2-8.7c-7.3-8.4-13.3-19-17.8-30.5c-7.9-20.3-10.9-43.4-8-61.6c0.4-2.5,0.9-4.8,1.5-7.1
		c3.2-11.6,13.7-22.5,26.6-19c0.7,0.2,1.3,0.4,2,0.6c23,8.6,28,54.1,23,78.9c-0.1,0.5-0.2,1-0.3,1.5c-0.6,2.8-1.4,5.3-2.3,7.4
		c7.5-17.8,17.5-31.9,33.5-42.5c9.1-6,28.8-11.9,31.5,4.1c1.6,9.7-6.2,22.6-12.7,30c-10.4,11.8-24.7,20.6-39.3,26.5
		c5.7-2.3,11.8-4.3,18-5.8c1.3-0.3,2.5-0.6,3.8-0.8c12.6-2.4,25.5-2.2,37.1,3.3C632.1,252.3,645.5,262.5,639.8,272.8z"/>
        <path class="st9" d="M512.1,179.2c-1,23.8,2.1,47.8,9.1,70.6"/>
        <path class="st9" d="M525.2,192.7c0.2,17.8-0.2,35.6-1.2,53.3"/>
        <path class="st9" d="M540.2,184.2c2.8,24.7-2.5,49.5-7.9,73.8"/>
        <path class="st9" d="M576.6,209.1c-15.3,11.4-27.8,26.5-36.1,43.8"/>
        <path class="st9" d="M586.1,212.7c-11.7,9.8-23,20.1-33.9,30.8c-3,3-6.1,6-10.1,7.5"/>
        <path class="st9" d="M596.8,214.5c-16.1,20.9-38,37.3-62.6,46.9"/>
        <path class="st9" d="M606.3,277.8c-8.4,1.4-16.8,2.7-25.3,2.8c-8.5,0.1-17.2-1.2-24.8-4.8"/>
        <path class="st9" d="M595.3,268.3c-19.9-1.6-40.1,0.5-59.2,6.2"/>
        <path class="st9" d="M595.7,252.7c-19.2,2.7-38,7.7-56,14.8"/>
        <path class="st10" d="M574.1,280.4c0,0.4-0.2,0.7-0.3,1.1c-0.5,1.2-1.5,2.2-2.6,2.8c-1.7,0.9-3.6,1-5.5,1c-0.1,0-0.3,0-0.4,0
		c-3.1-0.1-6.1-0.5-9.1-1.1c-5.2-1.1-10.3-2.9-15.3-4.9c-4.8-1.9-9.6-4.2-13.4-7.7c-3.9-3.5-8.1-9.6-9.7-12.1
		c-3.8-5.6-6.5-12-8.5-18.5c-0.8-2.6-1.6-5.8-1.1-8.6c0.1-0.5,0.2-0.9,0.4-1.4c0.4-1.1,1.3-2.2,2.5-2.4c1.8-0.4,3.5,0.4,5,1.7
		c0.1,0.1,0.2,0.2,0.3,0.2c3.2,2.9,5.8,8.2,6.9,10.8c0.3,0.8,0.7,1.7,1,2.6c1.1,3.4,1.8,7.3,2.1,10.2c0.7-1.4,2.1-3,3-3.9
		c1.7-1.7,3.8-3.7,6.1-5.5c4-3.2,8.5-5.9,12.8-5.6c0.1,0,0.2,0,0.3,0c0.4,0,0.8,0.1,1.2,0.2c1.5,0.4,2.7,2.3,3,3.9
		c0.1,0.5,0.1,1,0,1.4c-0.3,1.2-0.8,2.3-1.3,3.5c-1.4,3-3.4,5.9-5.8,8.5c-3.4,3.7-7.5,6.7-11.6,8.6c5-2.3,10.6-2.3,16-1.2
		c1.3,0.3,2.7,0.6,4,1c0.4,0.1,0.9,0.3,1.3,0.4c2.9,0.9,5.7,2.2,8.3,3.7c3.3,1.9,6.3,4.2,8.8,7c0.9,1,1.7,2.1,1.9,3.4
		C574.1,279.7,574.1,280,574.1,280.4z"/>
</g>
    <path class="st11" d="M556.1,282.4c0,0.6,0,1.2,0,1.7c-5.2-1.1-10.3-2.9-15.3-4.9c-4.8-1.9-9.6-4.2-13.4-7.7
	c-3.9-3.5-8.1-9.6-9.7-12.1c-3.8-5.6-6.5-12-8.5-18.5c-0.8-2.6-1.6-5.8-1.1-8.6c-7.9-20.3-10.9-43.4-8-61.6c3,4.4,5.7,9.4,8.8,13.3
	c1,1.2,2,2.4,3,3.6c1.7,2,3.3,3.9,5,5.9c2.8,3.2,5.6,6.4,8.3,9.6c4.9,5.7,9.6,11.6,13.6,18c0.1,0.2,0.3,0.5,0.4,0.7
	c3.4,5.4,6.3,11.2,8.7,17.1c0,0.1,0.1,0.2,0.1,0.3c0.8,2,1.5,3.9,2.2,5.9c0.3,0.9,0.6,1.8,0.9,2.7c0.5,1.6,0.9,3.1,1.3,4.7
	c0.8,3.1,1.5,6.3,2,9.5c0.2,1,0.3,2,0.5,3c0.2,1.6,0.4,3.2,0.6,4.8c0.3,3.2,0.5,6.4,0.5,9.5C556.2,280.5,556.2,281.5,556.1,282.4z"
    />
    <path class="st3" d="M740.4,376.8c-3.4-8.6-11.5-28.6-14.4-29.4c0,0-14.6,17.3-19.5,8.3c-4.9-9,16.2-13.9,16.2-13.9s-1.3-2-3.4-4.6
	c-2.9-3.5-7.1-7.9-11.5-9.9c0,0-7.9,5.4-15.8,11.7c-6,4.8-11.9,10.1-14.2,14c-4.7,7.9-10.7-1.1-3.4-12.8c1-1.5,2.1-3.1,3.6-4.7
	c12.5-13.7,24.6-16.8,24.6-16.8l-34.3-20.6c0,0-16.8,33-25.9,30c-9.1-3-0.4-21.5,16.8-33c0,0-24.8-11.3-37.7-6.9
	c0,0-16.4,43.5-24.5,41.8c-8-1.8-8.2-17.7,9.7-41.5c0,0-25.5,1.8-45.3,13.3c-3.2,1.8-6.2,3.9-9,6.3c-20,17.1-23.7,39-19.6,57.7
	c0,0,0.9,24.8,12.4,46.6c4.9,9.3,11.8,18.1,21.3,24.1c0,0,0,0,0,0l15.6,5.4c0,0-1.8-4-3.3-9.2c-2-6.8-3.4-15.4,0.6-19.2
	c0.6-0.5,1.1-0.8,1.7-0.8c3.7,0,7.5,9.9,10.2,18.7c2.1,7,3.5,13.2,3.5,13.2s29.9,10.1,42,5.2c0,0-6.3-8.8-12-18.9
	c-0.3-0.6-0.7-1.2-1-1.8c-6.7-12.3-12-26-3.9-28.2c12.1-3.3,9.9,11.4,16.3,25.1c0.9,1.9,2,3.9,3.3,5.7c1.2,1.6,2.5,3.2,4.1,4.7
	c0,0,9.2,7.9,13.3,9.2l31.1-13.5c0,0-7-4.8-14.1-10.9c-4.3-3.7-8.7-7.8-11.7-11.7c-2.8-3.7-4.3-7-3-9.3c1.6-3,5.9-1.3,11.2,2.3
	c4.7,3.2,10.1,7.9,14.9,12c5.5,4.7,10.2,8.6,12.3,8.8l15.3-16.3c0,0-5.6-2.2-10.9-5.8c-5.8-3.9-11.2-9.3-8.7-15.1c0,0,0,0,0-0.1
	c1.3-3,3.9-3.8,6.9-3.2c3.8,0.7,8.4,3.6,12,7c3.9,3.7,6.6,7.9,5.9,10.5c0,0,17.1-19.5,23.9-19.6
	C741.9,380.7,741.4,379.2,740.4,376.8z M614.7,396.7c-2.9,0.8-6.2-1.8-7.4-6c-1.2-4.1,0.1-8.2,3-9c2.9-0.8,6.2,1.8,7.4,6
	C619,391.8,617.6,395.8,614.7,396.7z M657.5,390.2c-0.3,2.6-1.7,4.6-3.7,5.1c-2.1,0.5-4.2-0.7-5.7-2.9c-0.6-1-1.1-2.1-1.5-3.3
	c-1-4.2,0.5-8.2,3.4-8.9c2.9-0.7,6.1,2.1,7.2,6.3C657.5,387.7,657.6,389,657.5,390.2z"/>
    <path class="st11" d="M582.2,442l-15.6-5.4c0,0,0,0,0,0c-9.5-6-16.4-14.8-21.3-24.1c-11.5-21.8-12.4-46.6-12.4-46.6
	c-4.1-18.6-0.4-40.5,19.6-57.7c2.8-2.4,5.8-4.5,9-6.3c-0.1,5.6-0.7,11.3-0.6,13.8c0.5,11.7,1.6,23.3,4,34.8c3,14.2,8,27.9,11.8,41.9
	c1.8,6.8,3.3,13.6,4.6,20.5c-0.6,0-1.1,0.3-1.7,0.8c-4,3.8-2.5,12.5-0.6,19.2C580.3,437.9,582.2,442,582.2,442z"/>
    <path class="st12" d="M568.6,446.3L568.6,446.3c-30.2,12.4-55.9,26.6-89.8,31.5c-30.6,4.4-61.8,6.3-92.1,12.3c-3.4,0.7-8,0.9-13,1
	c-12.5,0.2-28-0.5-36.3,1.8c-15.6,4.3-24.7,10.5-32.6,16.4c-10.4,7.7-18.8,14.8-37.5,16c-0.5,0-1,0.1-1.6,0.1
	c-8.7-0.9-15.9-1.9-17.6-3c5.9-20.2,33.2-126.8,40.5-145.9c0,0,0,0,0,0c0.5-1.2,0.9-2.3,1.4-3.5c0.2-0.5,0.4-1,0.6-1.5
	c0.3-0.8,0.7-1.6,1-2.4c0.9-2.2,1.8-4.3,2.8-6.6c0-0.1,0.1-0.1,0.1-0.2c0.5-1.1,1-2.3,1.5-3.4c0.7-1.6,1.4-3.2,2.2-4.8
	c0.9-2,1.8-4,2.8-6c0.3-0.6,0.6-1.2,0.8-1.8c17.5-37.2,38-77,34-116.8c0-0.3,0-0.5-0.1-0.8l0-1l0-2.5c0-0.1,0-0.2,0-0.2
	c3.2,0.3,5.2,3.4,5.8,3.5h0c15.5-19.4,25-35.6,30.5-49.9l-1.6-8.2c0,0,0-0.1,0-0.1v0l0,0c0,0,0,0,0,0c0,0-0.1,0-0.1-0.1h0
	c0,0.1,0,0.2-0.1,0.3c0,0.1,0,0.2-0.1,0.4c0,0.2-0.1,0.3-0.1,0.5c-0.2,0.6-0.4,1.3-0.6,2c-0.1,0.3-0.2,0.6-0.3,0.9c0,0,0,0.1,0,0.1
	c-0.1,0.3-0.2,0.5-0.3,0.8c0,0.1-0.1,0.2-0.1,0.3c0,0.1-0.1,0.2-0.1,0.3c-0.3,0.6-0.6,1.3-0.9,2c0,0.1-0.1,0.1-0.1,0.2
	c-0.2,0.4-0.4,0.9-0.7,1.4c-0.2,0.3-0.3,0.7-0.5,1c-0.3,0.7-0.7,1.3-1.1,2c0,0,0,0,0,0h0c-0.4,0.7-0.8,1.4-1.2,2.1c0,0,0,0,0,0
	c-0.4,0.7-0.8,1.4-1.3,2.2c-0.4,0.7-0.8,1.3-1.2,2c0,0.1-0.1,0.1-0.1,0.2h0c-0.4,0.6-0.8,1.3-1.2,1.9c-0.6,0.9-1.1,1.8-1.7,2.7
	c-0.2,0.4-0.5,0.8-0.8,1.1c-0.2,0.4-0.5,0.8-0.8,1.2c-1.3,1.9-2.6,3.9-3.9,5.8c-0.3,0.4-0.5,0.7-0.8,1.1v0c-0.3,0.4-0.5,0.7-0.8,1.1
	c-0.2,0.4-0.5,0.7-0.8,1.1c-0.1,0.1-0.1,0.1-0.1,0.2c0,0,0,0,0,0.1c-1.2,1.7-2.5,3.4-3.6,5.1c-0.2,0.2-0.4,0.5-0.5,0.7
	c-1.5,2.1-3,4-4.3,5.8c-0.1,0.1-0.2,0.2-0.3,0.4c-0.1,0.1-0.2,0.3-0.3,0.4c-0.2,0.3-0.4,0.5-0.6,0.8c-0.1,0.1-0.2,0.2-0.3,0.3
	c-0.1,0.1-0.2,0.3-0.3,0.4c0,0.1-0.1,0.1-0.1,0.2c-0.1,0.2-0.3,0.3-0.4,0.5c-0.1,0.1-0.2,0.2-0.2,0.3c-0.1,0.1-0.2,0.2-0.3,0.4
	c-0.2,0.2-0.3,0.4-0.5,0.6c-0.1,0.1-0.1,0.2-0.2,0.3c-0.1,0.1-0.2,0.2-0.2,0.3c-0.1,0.2-0.3,0.4-0.4,0.6c-0.1,0.1-0.2,0.3-0.3,0.4
	c-0.8,1-1.4,1.7-1.6,2.1c0,0-0.1,0.1-0.1,0.1c0,0,0,0,0,0c0,0,0,0.1-0.1,0.1c0,0,0,0,0,0c0,0,0,0,0,0v0l-0.6-73.7l-0.5-60.6l0-1.3
	L334.3,63c0,0,0.6-0.1,1.6-0.2c2.3,3.1,5.3,7.5,8.7,13.1c0,0,0,0.1,0.1,0.1c1,1.7,2.1,3.6,3.2,5.5c2.4,4.4,4.9,9.3,7.4,14.8v0
	c0.9,0.3,1.8,0.6,2.7,0.8c2.4,0.8,4.9,1.6,7.3,2.4c0.2,0.1,0.5,0.2,0.7,0.2l-3.4-6.3c0,0,0,0,0,0l-8.1-15c-0.1-0.1-0.2-0.2-0.3-0.3
	c-5.7-7-11.4-12.2-15.5-15.6c6.6-0.5,20.6-0.7,38.4,4c11.4,3,24.5,8,38.1,16.2c1.9,1.1,3.9,2.4,5.8,3.6c2.8,1.9,5.6,3.9,8.5,6
	c8.9,6.7,18,14.9,26.9,24.8c0,0,0,0,0,0c46,51.2,72.4,117.1,87.2,183.6c0.2,0.8,0.3,1.6,0.5,2.4c0.1,0.3,0.2,0.7,0.2,1.1
	c0,0,0,0.1,0,0.1c5.2,24.5,14.2,75.4,19.2,111.7c0,0,0,0,0,0.1c0.4,2.9,1.3,8.1,2.3,13.8c0.1,0.4,0.1,0.7,0.2,1.1
	C566.9,436.3,567.9,441.9,568.6,446.3z"/>
    <path class="st13" d="M368.5,149.6c0.2-1.4,0.5-2.8,0.7-4.2c-0.4,2.2,0.6,5.6,0.9,7.9c0.3,2.7,0.7,5.5,1.1,8.2
	c0.4,2.5,0.8,5,1.4,7.4c0.3,1.1,0.5,3.1,1.5,3.8c12.3,9.3,52.9,35.6,84.3,5.4c0,0,52.3,129.9-14.8,179.6
	c-61.8,45.8-132-1.9-142.6-9.7c0.3-0.6,0.6-1.2,0.8-1.8c17.5-37.2,38-77,34-116.8c0-1.5,0-2.9-0.1-4.3c0-0.1,0-0.2,0-0.2
	c0.9-3.1-0.4-0.4,0.2-0.3c0.8,0.2,9.5-14.9,10.5-16.5c3.7-5.8,7.2-11.8,10.3-18C363.1,177.4,366.3,163.7,368.5,149.6z"/>
    <path class="st8" d="M370.7,168.6c-5.4,25.2-35,56.3-35,56.3c-4.7-0.6-11.9-1.2-21.3-1.8c-14.5-1-34.2-1.9-56.9-2.7
	c-0.8,0-1.5,0-2.3-0.1s-1.6-0.1-2.4-0.1c-6.8-0.2-13.9-0.5-21.2-0.7c-10.9-0.3-22.2-0.5-33.8-0.7c-8.1-0.1-16.3-0.2-24.6-0.3
	c-2.3,0-4.7,0-7.1,0c-0.6,0-1.2,0-1.8,0c-0.4,0-0.7,0-1.1,0c-7.6,0-15.2,0.1-22.9,0.4c-30.8,1.1-91.2,3.3-105.3-2.5
	c-1.3-0.5-2.3-1.2-2.7-1.8c-0.7-1.1-1.2-2.2-1.5-3.4c-0.5-2-0.5-4.2-0.3-6.6c0.1-1.3,0.4-2.7,0.6-4.2c0.6-3.3,1.5-6.8,2.4-10.5
	c0.5-2.3,1.3-4.6,2.1-6.9c4.5-14.1,10.9-29.6,20.4-44.9c5.3-8.7,11.6-17.3,19-25.5c0,0,0,0,0-0.1c1-1.1,1.9-2.1,2.9-3.2
	c14.5-15.4,33-29.5,56.7-40.2c12.6-5.7,26.7-10.5,42.4-14c8.1-1.8,16.7-3.3,25.8-4.4c1.1-0.1,2.2-0.3,3.3-0.4c0,0,0,0,0,0
	c1.1-0.1,2.2-0.2,3.3-0.3c15.4-1.5,32.1-2,50.3-1.2c3,0.1,6,0.3,9.1,0.5h0c19.4,1.3,40.3,4,62.9,8.3c0,0,0,0,0,0c0,0,0,0,0,0
	c0.1,0.2,1.1,1.3,2.6,3.2c0.2,0.3,0.4,0.6,0.6,0.8c0.3,0.4,0.5,0.7,0.8,1.1c2.2,3,5.1,7.2,8.2,12.4c0,0,0,0,0,0
	c0.1,0.2,0.3,0.5,0.4,0.7c0,0,0,0.1,0.1,0.1c2.1,3.6,4.1,7.3,5.9,11c5.7,11.7,10.3,24,13.7,36.7c0.1,0.4,0.2,0.7,0.3,1.1
	c0.4,1.5,0.8,2.9,1.1,4.4c0.2,1,0.5,2,0.7,2.9c0.6,2.7,1.1,5.4,1.6,8.1c0.9,5,1.6,10.1,2,15.2C370.4,159.7,370.1,164.2,370.7,168.6z
	"/>
    <path class="st8" d="M375.3,176.9c0,0.1,0,0.2-0.1,0.3C375.2,177.4,375.3,177.2,375.3,176.9z"/>
    <path class="st8"
          d="M375.3,176.9c0.1-1.1-1.9-2.3-1.5-3.3c0.1-0.2,0.1-0.4,0.2-0.6l1.5,3.2C375.6,175.9,375.4,176.5,375.3,176.9z"
    />
    <path class="st7" d="M461,186.4c-0.8,0.6-1.7,1.1-2.5,1.6c-14.3,9-31.3,15.8-48.5,13.9c-17.6-1.9-36.4-13.6-39.2-32.2
	c-0.7-4.7-0.3-9.5-0.7-14.3c-0.4-5.1-1.1-10.1-2-15.2c-3.3-18.4-9.2-36.4-17.4-53.2c-1.8-3.8-3.8-7.4-5.9-11c0,0,0-0.1-0.1-0.1
	c-3.8-6.6-8.1-12.7-12.7-18.3c0,0,0,0,0,0c33.2-1.5,59.8,7.8,79.7,19.6c29.6,17.4,44.6,40,44.6,40v0.1L461,186.4z"/>
    <path class="st7" d="M461,186.4c-0.8,0.6-1.7,1.1-2.5,1.6c-14.3,9-31.3,15.8-48.5,13.9c-17.6-1.9-36.4-13.6-39.2-32.2
	c-0.1-0.4-0.1-0.7-0.1-1.1c0-0.1,0.1-0.3,0.1-0.4c0,0,1.5,1.4,1.6,1.4l1.6,3.4c0-0.1,0.1-0.2,0.1-0.3c2.8-8.8,4.1-16.8,4.3-24.4
	v-0.1c0.2-5.1-0.2-10.1-0.8-14.9c-0.2-1.8-0.5-3.6-0.9-5.3c-0.7-3.5-1.5-7-2.3-10.5c-2.1-8.5-5.3-16.1-9-22.8
	c-1.9-3.4-3.9-6.6-5.9-9.6c-1.1-1.5-2.1-3-3.2-4.4c-0.6-0.8-1.2-1.5-1.8-2.2l3.3,6.1l4.8,8.9c0,0,0,0,0,0l0.3,0.5l3.1,5.8
	c-0.2-0.1-0.5-0.2-0.7-0.2c-3.4-1.1-6.7-2.2-10-3.3c-0.7-1.5-1.3-2.9-2-4.4c-1.7-3.6-3.4-7-5.2-10.1c-1.3-2.4-2.6-4.6-3.8-6.7
	c0,0,0,0,0,0c-2.8-4.8-5.9-9.3-9.1-13.6c-0.2-0.3-0.4-0.6-0.6-0.8c-0.8-1.1-1.7-2.1-2.6-3.2c0,0,0,0,0,0c0,0,0,0,0,0
	c33.1-1.5,59.7,7.8,79.7,19.6c29.6,17.4,44.6,40,44.6,40v0.1L461,186.4z"/>
    <path class="st14" d="M338.6,62.5"/>
    <g>
	<path class="st15" d="M173.3,218.6c0,0,0-0.1,0-0.2c0.2-0.8-0.4-1.6-1.2-1.8c-6.7-1.3-11.4-2.6-16-4c-4-1.2-8.2-2.4-13.8-3.5
		c3.2-4.2,5.7-8.3,8.1-12.2c4.3-6.9,8.3-13.5,15.8-19.6c0.4-0.4,0.7-1,0.5-1.5c-0.1-0.6-0.6-1-1.1-1.1c-7.4-1.7-14.7-3.4-21.7-5.1
		c-6.5-1.6-13.3-3.2-20.1-4.8c1.7-4.6,3.4-9.3,5-13.8c1.8-5,3.6-10.2,5.5-15.3c0.2-0.5,0.1-1.1-0.2-1.5c-0.3-0.4-0.9-0.6-1.4-0.5
		c-5,0.9-9.8,1.4-14.4,2c-3.9,0.5-7.9,1-12.1,1.6c2.9-9.4,4.1-18.3,5.2-28.1c0-0.4-0.1-0.9-0.4-1.2c-0.3-0.3-0.7-0.5-1.2-0.5
		l-31.6,1.7c-1,1-2,2.1-2.9,3.2l32.9-1.7c-1.2,9.7-2.5,18.6-5.7,28c-0.2,0.5-0.1,1.1,0.3,1.5c0.3,0.4,0.9,0.6,1.4,0.5
		c5-0.8,9.8-1.4,14.4-2c3.9-0.5,7.9-1,12-1.6c-1.6,4.4-3.2,8.7-4.7,12.9c-1.7,5-3.6,10.2-5.5,15.3c-0.2,0.4-0.1,0.9,0.1,1.3
		c0.2,0.4,0.6,0.7,1,0.8c7.4,1.7,14.7,3.4,21.8,5.2c6.1,1.5,12.4,3,18.8,4.5c-6.4,5.9-10.2,12-14.1,18.4c-2.7,4.4-5.5,9-9.4,13.8
		c-0.3,0.4-0.4,1-0.2,1.5s0.6,0.9,1.1,1c6.7,1.2,11.4,2.6,16,4c3.3,1,6.7,2,10.9,2.9L173.3,218.6z"/>
</g>
    <path class="st7"
          d="M465.7,332.2c0,0-69.9,135.7-177.1,44.2c3.8-9.8,8.4-19.9,13.2-30.2C316,356.9,403.2,416.6,465.7,332.2z"/>
    <path class="st13" d="M231.7,219.6c-10.9-0.3-22.2-0.5-33.8-0.7c6.4-84.3-33.1-128.7-63.1-149.9c12.6-5.7,26.7-10.5,42.4-14
	C242.5,101.2,238.6,180.2,231.7,219.6z"/>
    <g>
	<g>
		<path class="st16" d="M257.5,220.4c10-41.2,12-92.4-17.5-137.1c-9.9-15.1-21.1-26-30.4-33.4c-1.1,0.1-2.2,0.2-3.3,0.3c0,0,0,0,0,0
			c-1.1,0.1-2.2,0.2-3.3,0.4c9.6,7.2,22.3,18.7,33.2,35.2c28.8,43.7,26.6,94,16.7,134.4L257.5,220.4z"/>
	</g>
</g>
    <path class="st17" d="M130.9,219.2c-8.4,0.3-18.1,0.6-28,0.8c-32.1,0.6-66.8,0.2-70.4-5.4c-1.8-2.8-2.1-6.2-1.8-10
	c0.1-1.3,0.4-2.7,0.6-4.2c0.6-3.3,1.5-6.8,2.4-10.5c0.5-2.3,1.3-4.6,2.1-6.9c4.5-14.1,10.9-29.6,20.4-44.9c0.9-1.5,1.9-3.1,2.9-4.6
	c4.2-6.4,8.9-12.7,14.3-18.9C99.8,130.6,133.3,162.4,130.9,219.2z"/>
    <path class="st11" d="M411.6,77.1C412.7,78.8,409.9,75.5,411.6,77.1L411.6,77.1z"/>
    <path class="st11" d="M568.6,446.3c-30.2,12.4-55.9,26.6-89.8,31.5c-30.6,4.4-61.8,6.3-92.1,12.3C474.2,409.4,503,275.2,487,213.8
	c-11.5-44.1-29.4-90.4-57.6-121.5c-0.1-0.1-0.2-0.2-0.3-0.4c-3-3.3-14.3-12-17.4-14.9c29.6,17.4,44.6,40,44.6,40v0c0,0,0,0,0,0
	c46,51.2,72.4,117.1,87.2,183.6c0.2,0.8,0.3,1.6,0.5,2.4c0.1,0.3,0.1,0.7,0.2,1.1c0,0,0,0.1,0,0.1c4.8,22.8,13.5,72.8,19.2,111.7
	c0,0,0,0,0,0.1c0.4,2.5,1.2,7.7,2.3,13.8c0.1,0.4,0.1,0.7,0.2,1.1C566.8,435.9,567.7,441.4,568.6,446.3z"/>
    <path class="st18" d="M336,62.7c4.5,4.9,23,36.6,28.9,63.4c-166.3-5.6-209.7,29.9-331.1,63.7c0.6-2.3,1.3-4.6,2.1-6.9
	c7-22,18.9-47.6,39.3-70.5c0,0,0,0,0-0.1c1-1.1,1.9-2.1,2.9-3.2c14.5-15.4,33-29.5,56.7-40.2c12.6-5.7,26.7-10.5,42.4-14
	c8.1-1.8,16.7-3.3,25.8-4.4c1.1-0.1,2.2-0.3,3.3-0.4c0,0,0,0,0,0c1.1-0.1,2.2-0.2,3.3-0.3c15.4-1.5,32.1-2,50.3-1.2
	c3,0.1,6,0.3,9.1,0.5h0c19.4,1.3,40.3,4,62.9,8.3c0,0,0,0,0,0C332.1,57.8,333.3,59.8,336,62.7z"/>
    <path class="st19" d="M179.3,90.3c0.8-0.5,1.7-0.9,2.5-1.4c1.5-0.9,3.1-1.8,4.2-3.2c1.6-1.9,1.8-4.6,1.1-6.9
	c-4.8-14.3-29.8-7.1-39.5-4c-21.2,6.9-42.9,22.6-58.5,38.6c-4.4,4.5-9.2,9.8-11.9,15.5c-2.3,4.8,0,8.1,5.4,6.5
	c18.1-5.3,35.5-13.7,52.2-22.4C149.6,105.5,164.8,98.5,179.3,90.3z"/>
    <g>
	<ellipse class="st16" cx="404.8" cy="123.9" rx="27.7" ry="27"/>
        <ellipse class="st20" cx="403.2" cy="123.6" rx="21.1" ry="20.5"/>
        <ellipse class="st21" cx="403" cy="123.7" rx="15" ry="14.6"/>
        <path class="st22" d="M387.7,106c-2.3,2.5-4.3,5.6-5.4,8.7c-0.9,2.6-1.2,8.7,3.3,8.1c0.8-0.1,1.6-0.5,2.3-1c3.5-2.2,6.5-4,10.4-5.5
		c4.7-1.8,13.3-8.6,6.4-13.6c-3.4-2.5-8.6-1.6-12.2-0.1C390.5,103.5,389,104.7,387.7,106z"/>
        <path class="st6" d="M432.5,123.9c0,14.9-12.4,27-27.7,27c-8.1,0-15.4-3.4-20.4-8.7c4.3,2.6,12.2,5,17.6,5
		c15.3,0,25.6-11.4,25.6-26.3c0-7-3.6-15-8.1-19.8C427.3,105.8,432.5,114.3,432.5,123.9z"/>
</g>
    <path class="st23" d="M318.4,335c-7.9,15.2-15.7,30.5-21.5,46.6c-4.2,11.8-9.3,24-9.6,36.8c-0.3,10,7.4,20,17.9,20.2
	c12,0.2,21.7-13.7,25.2-23.8c5.1-14.7,7-30.9,11.2-45.9c4.2-15.3,8.3-31,6.6-47c-0.5-5-2.6-12.1-8.2-13.3
	C328.4,306.1,322.2,327.7,318.4,335z"/>
    <path class="st8" d="M375.3,176.9c0,0.1,0,0.2-0.1,0.3C375.2,177.4,375.3,177.2,375.3,176.9z"/>
    <path class="st24" d="M129.2,194.5"/>
    <path class="st25" d="M403.6,79.3c1.7-3.3,5.9-5.1,9.4-4c3.5,1.1,6,4.9,5.6,8.6"/>
    <path class="st26" d="M413.6,100.7"/>
    <path class="st26" d="M435,125.3"/>
    <g>
	<path class="st24" d="M364.6,124.7c-10.5,18.9-33.9,35.1-69.7,48.4c-30,11.1-68.6,20-114.7,26.6c-67.8,9.6-132.3,11.2-149.3,11.4
		c0.3,1.2,0.8,2.4,1.5,3.4c0.4,0.7,1.4,1.3,2.7,1.8c21.8-0.4,82.3-2.4,145.8-11.4c46.5-6.6,85.5-15.6,115.8-26.9
		c34.1-12.6,57.4-28.1,69.6-46.1L364.6,124.7z"/>
</g>
    <path class="st27" d="M605,35.3h90.8c3.9,0,7.1,3.2,7.1,7.1v54.8c0,3.9-3.2,7.1-7.1,7.1h-57.3l-21.7,18l-1.9-18H605
	c-3.9,0-7.1-3.2-7.1-7.1V42.4C597.8,38.5,601.1,35.3,605,35.3z"/>
    <path class="st8" d="M671.3,51.7c-6.9-5.1-15.5-0.8-21.4,4.9c-5.8-5.7-14.4-9.9-21.4-4.9c-3.8,2.8-5.6,7.9-4.8,12.5
	c1.2,7.2,7.4,13,12.7,17.5c4.2,3.5,8.7,6.7,13.5,9.5c4.7-2.8,9.3-6,13.5-9.5c5.3-4.5,11.5-10.3,12.7-17.5
	C676.9,59.6,675.1,54.5,671.3,51.7z"/>
    <path class="st28" d="M652.3,54.5c2.1-0.5,4.5-1.4,5.3-3.4c0.7-1.7-0.1-3.7-1.5-5c-1.4-1.2-3.2-1.9-4.9-2.3
	c-8.4-2.2-17.3-1.8-26-1.3c-3.7,0.2-7.5,0.4-10.8,2.1c-4.4,2.2-7.4,6.7-8.6,11.5c-0.8,3.3-2.5,19.1,2,20.8c3,1.1,5.4-5.8,6.5-7.8
	c3.2-5.6,6.6-10.5,13.4-11.7C636,55.9,644.2,56.5,652.3,54.5z"/>
    <g>
	<g>
		<path class="st16" d="M560.2,364.6l-14.9,11.5l-1.7,1.3L518.2,397l-25.3,19.5l-53.7,41.3l-38.6,29.7l-4.1,3.2l-6,4.6l-7.2,5.6
			L344.1,531l-8.2,6.3c-0.7-0.8-1.3-1.7-1.9-2.5c-3.1-4-5.9-8-8.5-12c-52.4-80.1,2.5-136.6,56.9-136.2c57.6,0.4,60.7-22.7,93.3-50.6
			c23.5-20.1,48.7-6.5,65.4,8c2.3,2,4.4,4,6.4,5.9c3.2,3.2,5.9,6.2,8,8.7c1.7,2,2.9,3.6,3.7,4.6
			C559.8,364.1,560.2,364.6,560.2,364.6z"/>
        <path class="st29" d="M740.4,173.9l5.2,6.7c0.7,0.9,2,1,2.8,0.4l0,0c0.9-0.7,1-2,0.4-2.8l-5.2-6.7c-0.7-0.9-2-1-2.8-0.4l0,0
			C739.9,171.7,739.7,173,740.4,173.9z"/>
        <path class="st16" d="M566.3,452.1c-34.9,24.8-58.1,22.2-71.8,78.1c-13.7,55.9-92.4,93.3-160.5,4.6l0.1-0.1l7.1-5.4l40.4-30.8
			l7.3-5.5l6-4.6l4.2-3.2l38.8-29.6l53.7-40.9l24.7-18.8l26.3-20l1.7-1.3l15-11.4l0.1-0.1c0,0,1.4,1.7,3.6,4.6
			c1.8,2.4,4.1,5.7,6.4,9.6c0.6,0.9,1.2,1.9,1.7,2.9c1,1.7,2,3.5,3,5.4C584.2,405.5,591.9,434,566.3,452.1z"/>
        <path class="st29" d="M721.9,191.6l5.2,6.7c0.7,0.9,2,1,2.8,0.4l0,0c0.9-0.7,1-2,0.4-2.8l-5.2-6.7c-0.7-0.9-2-1-2.8-0.4l0,0
			C721.4,189.4,721.2,190.7,721.9,191.6z"/>
        <path class="st29" d="M719.6,193.9L719.6,193.9c-1.1-1.4-0.9-3.5,0.6-4.7l3.7-2.9c1.4-1.1,3.5-0.9,4.7,0.6v0
			c1.1,1.4,0.9,3.5-0.6,4.7l-3.7,2.9C722.8,195.6,720.7,195.3,719.6,193.9z"/>
        <path class="st29" d="M786.8,233.5l-5.2-6.7c-0.7-0.9-0.5-2.2,0.4-2.8l0,0c0.9-0.7,2.2-0.5,2.8,0.4l5.2,6.7
			c0.7,0.9,0.5,2.2-0.4,2.8l0,0C788.8,234.5,787.5,234.4,786.8,233.5z"/>
        <path class="st29" d="M765.2,247.1l-5.2-6.7c-0.7-0.9-0.5-2.2,0.4-2.8v0c0.9-0.7,2.2-0.5,2.8,0.4l5.2,6.7c0.7,0.9,0.5,2.2-0.4,2.8
			v0C767.2,248.1,765.9,248,765.2,247.1z"/>
        <path class="st29" d="M762.4,248.8L762.4,248.8c1.1,1.4,3.2,1.7,4.7,0.6l3.7-2.9c1.4-1.1,1.7-3.2,0.6-4.7l0,0
			c-1.1-1.4-3.2-1.7-4.7-0.6l-3.7,2.9C761.5,245.3,761.2,247.4,762.4,248.8z"/>
        <path class="st29" d="M784,235.2L784,235.2c1.1,1.4,3.2,1.7,4.7,0.6l3.7-2.9c1.4-1.1,1.7-3.2,0.6-4.7l0,0
			c-1.1-1.4-3.2-1.7-4.7-0.6l-3.7,2.9C783.2,231.7,782.9,233.7,784,235.2z"/>
        <polygon class="st30" points="720.9,260.4 718.6,262.3 718.5,262.4 718.1,262.8 713.3,266.8 700.5,277.8 698.9,279.2 685.7,290.4
			684.1,291.8 671.4,302.6 669.8,304 656.8,315 655.2,316.4 640.7,328.8 639.1,330.2 624.6,342.5 623,343.9 608.9,355.9 
			607.2,357.3 592.1,370.2 590.5,371.6 584.5,376.7 577.5,382.6 575.9,384 574,385.7 563.2,394.8 561.3,396.5 559.6,397.9 
			545.1,410.3 534.7,405.2 524.3,400 522.8,399.3 518.2,397 516.2,396 515.9,395.8 515.2,389.6 513.6,375.3 512.3,364.4 
			525.9,354.7 527.7,353.5 541,344 543.4,342.3 545.1,341 559,331.2 560.8,329.9 576.9,318.4 578.7,317.2 593.8,306.4 595.5,305.2 
			611,294.1 612.8,292.9 628.2,281.9 630,280.6 643.9,270.7 645.6,269.5 659.2,259.8 660.9,258.6 675,248.5 676.8,247.3 
			690.5,237.5 693.1,235.7 695.6,233.9 696.8,233 699.5,236 705.5,242.8 712.1,250.4 718.5,257.6 		"/>
        <path class="st16" d="M802.5,213.6l-60.7,39.9c-1.7,1.1-3.6,1.4-5.6,1.1c-5.8-0.8-13.6,4.6-17.7,7.8c-0.1,0.1-0.3,0.2-0.4,0.3
			c-1.4,1.2-2.3,2-2.3,2l-2.2-2.8l-12.3-15.8l-8.2-10.5c0,0,1-0.7,2.5-1.8c4-3,11.7-9.5,12.3-15.5c0.2-2,1-3.8,2.5-5.2l53.5-49.1
			c3.3-3.1,8.5-3,11.7,0.1c4.5,4.3,11.1,10,17.1,13c2.2,1.1,3.9,3.2,4.4,5.7c0.2,1,0.5,2.1,0.8,3.1c1.7,5.7,4.8,11.8,7.4,16.3
			C807.5,206.1,806.3,211.1,802.5,213.6z"/>
        <circle class="st31" cx="466.3" cy="437.4" r="33.9"/>

        <rect x="347.9" y="485.1" transform="matrix(0.6146 0.7888 -0.7888 0.6146 542.976 -119.2235)" class="st31"
              width="91.1" height="22"/>
        <path class="st29" d="M738.1,176.2L738.1,176.2c-1.1-1.4-0.9-3.5,0.6-4.7l3.7-2.9c1.4-1.1,3.5-0.9,4.7,0.6l0,0
			c1.1,1.4,0.9,3.5-0.6,4.7l-3.7,2.9C741.3,177.9,739.2,177.7,738.1,176.2z"/>
        <path class="st32" d="M690.5,237.5l2.6-1.8l-0.1-0.1c0,0,1-0.7,2.5-1.8l22.6,29l-4.8,4L690.5,237.5z"/>
        <polygon class="st32" points="698.9,279.2 675,248.5 676.8,247.3 700.5,277.8 		"/>
        <polygon class="st32" points="684.1,291.8 659.2,259.8 660.9,258.6 685.7,290.4 		"/>
        <polygon class="st32" points="669.8,304 643.9,270.7 645.7,269.5 671.4,302.6 		"/>
        <polygon class="st32" points="655.2,316.4 628.2,281.9 630,280.6 656.8,315 		"/>
        <polygon class="st32" points="639.1,330.2 611,294.1 612.8,292.9 640.7,328.8 		"/>
        <polygon class="st32" points="623,343.9 593.8,306.4 595.5,305.2 624.6,342.5 		"/>
        <polygon class="st32" points="607.2,357.3 576.9,318.4 578.7,317.2 608.9,355.9 		"/>
        <polygon class="st32" points="590.5,371.6 559,331.2 560.8,329.9 592.1,370.2 		"/>
        <polygon class="st32" points="577.5,382.6 575.9,384 572.4,379.6 570.2,376.7 563.1,367.6 555.8,358.3 548.6,349 543.4,342.3
			545.1,341 550.4,347.7 557.5,357 564.8,366.3 571.8,375.3 574.4,378.6 		"/>
        <polygon class="st32" points="559.6,397.9 525.9,354.7 527.7,353.5 561.3,396.5 		"/>

        <rect x="363.8" y="490.8" transform="matrix(0.6146 0.7888 -0.7888 0.6146 542.309 -120.8471)" class="st33"
              width="62.1" height="7.6"/>
        <line class="st34" x1="736" y1="208.6" x2="380" y2="475.4"/>
        <path class="st34" d="M759,189.5l-7.2,10.8c-6.1,9.1-13.6,17.2-22.2,23.9L389.1,486.9"/>
        <path class="st34" d="M776.3,211.8l-12,3.9c-9.1,3-17.6,7.5-25.1,13.4L397.9,497.4"/>
        <line class="st34" x1="752.8" y1="230.1" x2="406.3" y2="508.2"/>
        <path class="st35" d="M750.7,235.5L750.7,235.5c-1.7-2.1-1.3-5.2,0.9-6.9l3.2-2.5c2.1-1.7,5.2-1.3,6.9,0.9v0
			c1.7,2.1,1.3,5.2-0.9,6.9l-3.2,2.5C755.5,238,752.4,237.6,750.7,235.5z"/>
        <path class="st35" d="M749.5,191.9L749.5,191.9c-1.7-2.1-1.3-5.2,0.9-6.9l3.2-2.5c2.1-1.7,5.2-1.3,6.9,0.9v0
			c1.7,2.1,1.3,5.2-0.9,6.9l-3.2,2.5C754.2,194.4,751.1,194,749.5,191.9z"/>
        <path class="st35" d="M771.6,220.4L771.6,220.4c-1.7-2.1-1.3-5.2,0.9-6.9l3.2-2.5c2.1-1.7,5.2-1.3,6.9,0.9l0,0
			c1.7,2.1,1.3,5.2-0.9,6.9l-3.2,2.5C776.4,222.9,773.3,222.5,771.6,220.4z"/>
        <path class="st35" d="M729.7,208.5L729.7,208.5c-1.7-2.1-1.3-5.2,0.9-6.9l3.2-2.5c2.1-1.7,5.2-1.3,6.9,0.9l0,0
			c1.7,2.1,1.3,5.2-0.9,6.9l-3.2,2.5C734.5,211,731.4,210.7,729.7,208.5z"/>
        <path class="st36" d="M487.2,464.1c-14.8,11.5-36,8.9-47.5-5.9c-2.4-3.1-4.2-6.4-5.3-9.9c11.8,12.8,31.7,14.7,45.7,3.7
			c11.7-9.1,15.8-24.4,11.2-37.7c0.6,0.7,1.2,1.4,1.8,2.2C504.6,431.3,501.9,452.6,487.2,464.1z"/>
	</g>
        <path class="st37" d="M701.5,241.7c5.9,6.3,27.5,4.5,36,2.7c8.5-1.9,16-6.6,23.3-11.2c12.5-7.9,25.6-16.5,31.5-30
		c1.6-3.7,3.1-11,5.6-17.3c1.7,5.7,4.8,11.8,7.4,16.3c2.2,3.9,1,8.9-2.7,11.4l-60.7,39.9c-1.7,1.1-3.6,1.4-5.6,1.1
		c-5.8-0.8-13.6,4.6-17.7,7.8c-0.1,0.1-0.3,0.2-0.4,0.3"/>
        <path class="st38" d="M574,385.7c10.3,19.8,18,48.3-7.7,66.5c-34.9,24.8-58.1,22.2-71.8,78.1c-13.7,55.9-92.4,93.3-160.5,4.6
		l0.1-0.1c-3.1-4-5.9-8-8.5-12c5.3,2,10.3,3.7,12.2,4.7c1.1,0.6,2.3,1.2,3.4,1.8c1,0.5,2,1.1,3,1.6c14.2,7.7,28.5,15.3,43.8,20.6
		c25.4,8.8,50.6,0.6,70.3-16.5c24.2-21.1,34.3-52,58.7-73.1c20.3-17.6,52.4-33.2,46.7-65.3c-0.1-0.7-0.2-1.3-0.4-1.9"/>
        <path class="st39" d="M727.1,213.9c4-3.5,9-5.7,13.8-7.8c10.4-4.5,21-8.7,31.6-12.7c2.1-0.8,4.2-1.5,5.9-2.9c3.7-3.1,4.5-9,2-13.1
		c-2.5-4.1-7.9-6.1-12.5-4.8c-2.5,0.6-4.6,2.1-6.7,3.4c-17.6,11.6-35.2,24.2-47.2,41.6c-1.8,2.7-3.5,5.5-3.8,8.7
		c-0.6,6.1,6.6,11.5,10.5,5.2c1.1-1.8-0.6-5-0.1-7C721.6,220.3,723.7,216.8,727.1,213.9z"/>
        <path class="st39" d="M505.2,335.2c-7.9-1.7-16.4-0.2-23.1,4.3c-4,2.6-8.2,7.2-10.6,11.3c-7.4,12.8,9.8,7.7,15.1,6.2
		c6.1-1.6,12.4-2.6,18.7-2.8c3.6-0.1,7.4,0,10.8-1.2C533,347,512.7,336.8,505.2,335.2z"/>
        <path class="st39" d="M384.5,396.9c-8.9,0.4-18.1-0.2-26.7,2.4c-4.8,1.5-9.3,3.8-13.1,7.1c-17.6,15.4,22.1,12.5,30.2,11.8
		c10.2-1,20.4-4,28.4-10.4c2.3-1.8,6-7.5,4.2-10.7c-2.8-4.9-12-1.1-16.2-0.7C389,396.6,386.7,396.8,384.5,396.9z"/>
</g>
    <path class="st11" d="M355.1,510.7c-12.5,0.2-9.5-20-17.8-17.7c-15.6,4.3-24.7,10.5-32.6,16.4c-8.4-3.8-15.7-10.1-20.7-17.8
	c-2.7-4.2-4.8-9-4.6-13.9c0.3-4.8,2.7-9.2,5.3-13.3c4.7-7.6,9.7-15,15.8-21.5c5.7-6,12.2-11.2,17.7-17.5c3.5-4.1,6.6-8.6,9.1-13.4
	c1.8-3.5,2.5-9.3,6.8-9.9c7.9-1,18.3,9.7,20.9,16.1c2.6,6.6,1.8,14.2-1,20.7c-2.8,6.5-7.6,12-12.8,16.8c8.6-1.9,17.9,5.4,23.4,12.2
	C370.3,474.9,374,505.4,355.1,510.7z"/>
    <g>
	<path class="st40" d="M265.2,394.5c-13.6-9.2-39.9-6.8-48.5,6.8c-6.9,10.9-10.4,29.9-3.6,41.4c5.7,9.6,17.5,13.3,28.2,16.3
		c-18.6-3.5-39.8,12.4-48.9,27.6c-3,5.1-5.3,11.1-3.9,16.8c1.5,6.2,5,12.7,10.2,16.4c7.1,5,12.4,6.9,21,7.3
		c8.7,0.4,18.7-1.8,20.5-10.3c-0.8,13.6,5,26.5,15,35.8c12.5,11.8,34.6,9.5,46.5-3.1c11.9-12.5,15.6-29.5,9.2-45.5
		c7.6,10.3,20.3,14.8,33,12.6c8.7-1.5,16.7-9.6,17.7-18.4c0.9-7.9,0.4-18.1-4.6-24.2c-6.8-8.3-20.1-14.3-30.8-13.7
		c9.2-1.4,16.9-8.5,20.4-17.1c3.5-8.6,3.2-18.4,0.4-27.3c-1.6-5.1-4.2-10.1-8.3-13.4c-11-8.8-27.6-4.3-38.8,1.6
		c-14.9,7.9-15.8,16.3-19.6,30.8c1.9-7.2,0-14.8-2.6-21.8c-2.1-5.7-4.7-11.3-8.8-15.7C267.7,396.4,266.5,395.4,265.2,394.5z"/>
        <path class="st41" d="M267.2,438.8c5.8,7.5,5,12.7,11.2,13.9c7.2,1.4,11.6-5.1,17.6-11c-0.7,5.7-4.5,7.9-5.8,11.8
		c-0.6,1.7,0.9,3.4,2.7,3.2c3.4-0.5,5.4-2.1,9.5-3.5c-2.4,4.2-8.1,3.1-7.8,10c0,0.1,0,0.2,0,0.4c0.9,4.2,5.5,5,8.8,6.8
		c3.5,2,6.1,5.6,6.8,9.6c-6.1-4.3-13.9-6-21.3-5c-2,0.3-3.3,2.3-2.5,4.2c3.4,8.5,4.1,18.1,2,27.1c-1-7.2-3.5-14.3-7.4-20.5
		c-0.7-1.2-2.4-1.3-3.4-0.3c-4.8,5-5.8,12.4-5.2,19.2c-2.8-4.1-2.5-10.2-1.3-15.3c0.6-2.6,1.5-5.8-1-7.4c-0.6-0.4-1.4-0.6-2.1-0.7
		c-8.6-0.8-16.7,2.9-24.1,7.3c4.5-7,13.1-9.9,20.1-13.7c0.6-0.3,1.1-0.8,1.2-1.4c0.1-0.6-0.3-1.1-0.6-1.5c-1.9-2.4-3.8-3.2-6.6-4.5
		c-2.8-1.3-6-1.8-8.8-0.7c4.7-6.8,16.7,2.5,21.8-4.1C275.3,457.2,268.9,448,267.2,438.8z"/>
        <path class="st42" d="M272.3,438.9c-1.6-6-3.3-12-6.1-17.4s-7-10.5-12.5-13.2"/>
        <path class="st42" d="M262.8,441.7c-10.1-7.7-18.7-17.2-25.3-27.9"/>
        <path class="st42"
              d="M259.1,447.2c-2.4,0.9-5-0.2-7.2-1.4c-5.3-2.7-10.5-5.5-15.6-8.4c-4.6-2.7-9.3-5.7-12.2-10.2"/>
        <path class="st42" d="M292.8,487.8c6.4,14,6.5,30.7,0.3,44.7"/>
        <path class="st42" d="M278.6,500c0.5-0.1,0.7,0.6,0.7,1.1c-0.1,11-1.6,22-4.5,32.6"/>
        <path class="st42" d="M262.8,505.9c0-0.4,0-0.7,0-1.1c-3,11.3-2.8,23.5,0.6,34.7"/>
        <path class="st42" d="M304.8,482c-0.3-0.1-0.6,0.2-0.5,0.5s0.2,0.5,0.4,0.7c6.7,6.8,14.7,12.3,23.5,16.1"/>
        <path class="st42" d="M315.4,479c4.8,4.7,10.4,8.4,16.7,10.9"/>
        <path class="st42" d="M312.5,471.4c7.9,0.6,15.4,3.9,22.5,7.4c3.3,1.6,6.8,3.5,8.7,6.6"/>
        <path class="st42" d="M296.4,441.1c2.2-9.1,7.6-17.4,15.1-23.1"/>
        <path class="st42" d="M302,443.5c5.7-5.4,11.2-10.9,16.7-16.5"/>
        <path class="st42" d="M305.2,451.4c11-1.7,21.5-6.5,30-13.8c0.7-0.6,1.3-1.5,0.8-2.2"/>
        <path class="st42" d="M244.7,469.8c-9.3,0.3-18.5,2.8-26.7,7.2"/>
        <path class="st42" d="M242.5,479.4c-9.8,1.4-19.2,5.1-27.3,10.9"/>
        <path class="st42" d="M243.9,492.4c-7.9,7.3-18.2,12.1-28.9,13.3"/>
</g>
    <path class="st19" d="M223.5,403c-5.5,4.4-7.6,15.9-7.7,22.1c0,4.3,3.1,13.6,6.5,16.4c8.4,7.1,5.2-9.2,5.8-13.5
	c0.6-4.5,12.2-35.9-3.8-25.6C224,402.6,223.8,402.8,223.5,403z"/>
    <path class="st19" d="M194.7,497.7c-0.4,4.4,1,8.9,3.7,12.4c0.8,1.1,1.9,2.1,3.2,2.1c2.2,0,3.3-2.7,3.6-4.9c0.3-2.4,0.3-4.9,0-7.4
	c-0.2-1.6-0.5-3.2-0.3-4.9c0.4-3.1,11.7-16.3,4.7-16.3C201.9,478.8,195.2,491.5,194.7,497.7z"/>
    <path class="st19" d="M549.2,127.2c-2.7,1.8-5.3,4.3-7.3,6.8c-1,1.3-3.2,5.1-2.3,6.7c1.7,3.3,7-1.6,8.8-2.7c2.5-1.6,5.2-2.7,8-3.4
	c1.5-0.3,3-0.5,4.3-1.1c3.4-1.5,4.5-5.6,1.3-7.7C558.5,123.4,552.4,125.1,549.2,127.2z"/>
    <path class="st28" d="M512.5,154.5c-1.3,1.4-2.3,3.1-3.3,4.8c-0.9,1.5-1.8,3-2.7,4.6c-0.9,1.5-1.8,3.1-2.1,4.9
	c-0.2,1.8,0.4,3.7,1.9,4.6c2,1.2,4.7-0.2,6.1-2c1.4-1.9,2.1-4.2,3.4-6.2c2.3-3.6,8.9-7.3,8.2-12.2
	C523.3,146.7,514.7,152.1,512.5,154.5z"/>
</svg>
