<?xml version="1.0" encoding="utf-8"?>
<!-- Generator: Adobe Illustrator 22.1.0, SVG Export Plug-In . SVG Version: 6.00 Build 0)  -->
<svg version="1.1" id="Слой_1" xmlns="http://www.w3.org/2000/svg" x="0px"
     y="0px"
     viewBox="0 0 1190.6 841.9" style="enable-background:new 0 0 1190.6 841.9;" xml:space="preserve">
<style type="text/css">
	.st0{fill:#8AB626;}
	.st1{fill:#AFCC49;}
	.st2{fill:none;stroke:#AFCC49;stroke-width:4.8517;stroke-miterlimit:10;}
	.st3{opacity:0.24;}
	.st4{fill:#020203;}
	.st5{fill:#285F2A;}
	.st6{fill:none;stroke:#285F2A;stroke-width:5.8067;stroke-miterlimit:10;}
	.st7{fill:#262626;}
	.st8{fill:#F7E009;}
	.st9{fill:#E04575;}
	.st10{fill:#F08BA9;}
	.st11{fill:#85BC25;}
	.st12{fill:#F9B50E;}
	.st13{fill:#077C99;}
	.st14{fill:#10727D;}
	.st15{opacity:0.28;}
	.st16{opacity:0.14;}
	.st17{fill:#FFFFFF;}
	.st18{opacity:0.45;}
	.st19{fill:#12A8C2;}
	.st20{fill:#030304;}
	.st21{opacity:0.38;}
	.st22{opacity:0.29;}
	.st23{fill:#9C305C;}
	.st24{fill:none;stroke:#141414;stroke-width:6.7867;stroke-linecap:round;stroke-linejoin:round;stroke-miterlimit:10;}
	.st25{fill:none;stroke:#141414;stroke-width:9.2545;stroke-linecap:round;stroke-linejoin:round;stroke-miterlimit:10;}
</style>
    <g>
	<path class="st0" d="M975.2,414.7c0,86.1-30.7,165.1-81.9,226.5c-6.7,8-13.7,15.7-21,23.1C810.6,726.5,725.9,765.9,632,768.7
		c-3.6,0.1-7.2,0.2-10.9,0.2c-63,0-122.1-16.4-173.3-45.2c-7.5-4.2-14.8-8.7-22-13.4c-95.7-63.4-158.9-172.1-158.9-295.5
		c0-7.2,0.2-14.3,0.6-21.3c0.2-3.4,0.4-6.8,0.7-10.2c0.2-2.8,0.5-5.6,0.8-8.4c1.8-16,4.7-31.8,8.5-47.1c0.4-1.4,0.7-2.8,1.1-4.2
		c3.9-14.8,8.8-29.3,14.6-43.3c6.5-15.7,14-30.9,22.6-45.4c10.7-18.1,22.9-35.1,36.5-50.9c6.5-7.6,13.3-14.8,20.4-21.8
		c1.6-1.6,3.2-3.1,4.8-4.6c3.4-3.2,6.9-6.4,10.5-9.5c62.3-54.4,143.7-87.4,232.9-87.4C816.7,60.6,975.2,219.1,975.2,414.7z"/>
        <g>
		<g>
			<path class="st1" d="M276.9,283.7c63,24.3,107,83.2,113.4,152.1C338.8,397.1,322.3,328.9,276.9,283.7z"/>
		</g>
            <g>
			<path class="st1" d="M354.7,417.7c-28.7-18.6-57.6-37.4-89.4-50.1c-31.8-12.8-66.9-19.4-101.1-12.9c11.6,9.6,24.7,18.2,38.5,24.2
				C251.7,400.1,301.3,411.2,354.7,417.7z"/>
		</g>
            <g>
			<path class="st1" d="M522.8,507.2c-1.2,0.6-2.3,1.2-3.5,1.7c-38,18.8-75.4,32.5-116.3,38.5c-11.8,1.7-24.3,1.1-36.1-1
				c20.8-21,47.5-32.2,74.4-37c24.8-4.4,50-3.7,75.1-2.6C518.5,507,520.6,507.1,522.8,507.2z"/>
		</g>
            <g>
			<path class="st1" d="M462.9,471.5c-1-0.5-2-1.2-3-2c-9-6.9-17.2-21.8-23.2-30.7c-8.1-11.9-15.5-24.4-22.1-37.4
				c-6.6-12.9-12.4-26.3-17.3-40c-2.5-6.9-4.7-13.8-6.8-20.8c-1-3.4-3.4-15.4-5.1-19.7c41.7,30.5,69.8,79.3,76.1,132
				c0.6,5.3,1.2,10.7,1.4,16C462.9,469.7,462.9,470.6,462.9,471.5z"/>
		</g>
            <g>
			<path class="st1" d="M228.5,448.1c8.1,0.4,14.7-1.1,19.7-1.9c22.1-3.6,43.9-9.8,66.1-12.4c9.9-1.2,19.8-2,29.7-2.2
				c4.5-0.1,9.1-0.1,13.6,0c4.1,0.1,31.7,3.4,32,3.4c-7.5,3.8-14.3,6.6-20.2,9.8c-9.7,5.2-19.7,10.1-29.8,13.5
				c-17,5.6-34.6,7.6-52,6.4C267.5,463.2,248.6,458.7,228.5,448.1z"/>
		</g>
            <g>
			<path class="st1" d="M521.1,506.9c-1.6-2.8-5.1-6.5-8.9-14.6c-6.3-13.2-11.9-26.7-16.9-40.4c-2.5-6.8-4.8-13.7-6.9-20.6
				c-6.8-22-13.7-43.8-21.2-65.5c2.4,1.2,7.3,3.3,9.1,4.4c17.8,10.6,28.9,25.6,35.7,43c1.5,3.9,2.8,7.9,3.9,11.9
				C522.9,450.8,522.5,480,521.1,506.9z"/>
		</g>
            <g>
			<path class="st1" d="M464.6,474.3c-2.6-1.5-16.1,6.7-19.2,8.1c-18.2,8.3-36.1,16.7-55.5,21.1c-2.7,0.6-5.3,1.1-8,1.6
				c-26.6,4.4-54.8,1.6-81-10.8c9.1-1.9,14.1-3.2,18.1-4c7.4-1.6,14.9-3.1,22.3-4.6c22-4.4,43.8-10,65.8-14.3
				c15.5-3.1,32.7-6.4,48.8-0.9C458.9,471.4,461.8,472.7,464.6,474.3z"/>
		</g>
            <g>
			<path class="st2" d="M339.1,412.3c0,0,97.3,30.2,232,134.5"/>
		</g>
	</g>
        <g class="st3">
		<path class="st4" d="M462.9,471.5c-1-0.5-2-1.2-3-2c1-0.2,2-0.5,3-0.7C462.9,469.7,462.9,470.6,462.9,471.5z"/>
	</g>
        <g>
		<path class="st5" d="M499.1,529.1c-5.8-16-14.9-31.5-28.9-43.1c0,0,0,0-0.1-0.1l-23.7-12c0,0,2,6.8,3.3,15.4
			c1.7,11.2,2.1,25.3-5,30.6c-7.5,5.5-12.4-14.2-15.2-31.2c-1.9-11.6-2.8-21.9-2.8-21.9s-45.6-22.5-65.9-17.3
			c0,0,8.2,15.4,15.1,32.8c0.4,1,0.8,2.1,1.2,3.1c8.1,21.1,13.5,44.1,0.1,45.9c-20,2.7-13.4-20.3-20.6-43.5c-1-3.3-2.3-6.6-4-9.8
			c-1.5-2.8-3.3-5.6-5.5-8.3c0,0-13-14.7-19.3-17.5l-52.6,14.8c0,0,10.1,9.2,20.2,20.4c6.1,6.8,12.3,14.4,16.1,21.1
			c3.7,6.4,5.3,12.1,2.8,15.5c-3.2,4.5-9.7,0.8-17.3-6.1c-6.8-6.1-14.4-14.7-21.3-22.3c-7.8-8.7-14.5-16-17.7-16.7l-27.9,22.8
			c0,0,8.5,4.8,16.2,11.6c8.4,7.4,16,17.3,10.7,26c0,0,0,0.1-0.1,0.1c-2.8,4.5-7,5.2-11.7,3.7c-6-1.9-12.6-7.6-17.6-13.8
			c-5.4-6.7-8.8-14.1-7.2-18.1c0,0-31.6,27.4-42.4,26.2c0,0,0.6,2.5,1.6,6.5c3.5,14.4,12.3,48.1,16.7,50c0,0,27.1-24.5,33-9.1
			c5.9,15.5-28.9,18.7-28.9,18.7s1.7,3.5,4.5,8c3.8,6.1,9.7,14.2,16.3,18.3c0,0,13.8-6.9,27.7-15.3c10.6-6.4,21.2-13.6,25.7-19.3
			c9.3-11.6,16.9,4.1,2.7,21.2c-1.9,2.2-4.1,4.5-6.7,6.7c-22.9,19.3-43,21.5-43,21.5l50.4,40.3c0,0,33.9-49.1,47.8-42.3
			c13.9,6.8-3.9,34.4-33.9,49.1c0,0,37.2,23.3,58.8,19.1c0,0,35.6-66,48-61.4c12.4,4.6,9.3,30-24.5,64.2c0,0,55.3,3.4,90.9-19.7
			c35.6-23.1,46.2-57.3,43.7-87.9C508.9,606.2,512.7,566.4,499.1,529.1z M324.8,558.2c-4.8,0.5-9.4-4.6-10.1-11.6
			c-0.2-2.2-0.1-4.2,0.4-6.1c1-4.1,3.6-7,7-7.4c3.4-0.4,6.6,2,8.5,5.9c0.8,1.7,1.4,3.6,1.6,5.6C332.9,551.6,329.6,557.7,324.8,558.2
			z M388.6,564.2c-4.8,0.7-9.6-4.2-10.6-11.1c-1.1-6.9,2-13.1,6.8-13.8c4.8-0.7,9.6,4.2,10.6,11.1
			C396.4,557.3,393.4,563.5,388.6,564.2z"/>
	</g>
        <path class="st1" d="M740.3,190.3c0.7,16.9,0.5,35.3-0.4,53.7c-8.9-12.8-17.4-27-23.6-41.7c2.7-9.5,5.3-18.3,7.6-26
		c6.1-20.5,10.4-33.9,10.4-33.9C737.7,155.5,739.5,172.1,740.3,190.3z"/>
        <path class="st1" d="M831.9,268.5c-6.8,27.3-14.6,53.5-22.3,76.9c-3.7-10.1-7.9-20-13.4-29.3c-5.1-8.7-11.1-16.7-17.5-24.4
		c7.1-16.1,14.2-33.2,20.9-50.2c28.6-72,51.9-143.7,51.9-143.7C856.5,148.6,846.3,210.9,831.9,268.5z"/>
        <path class="st1" d="M927.1,216.3c-3.7,36.7-19.6,79.1-39.7,119.8c-14.9,30.2-32.1,59.6-48.3,85.2c-9.4-10.1-14-24.5-17.9-38.1
		c-0.7-2.5-1.4-4.9-2.1-7.4l48.9-72.3L927.1,216.3z"/>
        <g>
		<g>
			<path class="st5" d="M1160.4,480c-74.8,50-172.7,52.6-252.6,6.8C989.4,460.4,1076.3,494.8,1160.4,480z"/>
		</g>
            <g>
			<path class="st5" d="M954.8,461.8c42.3-17,84.9-34.1,123.2-58.9c38.3-24.8,72.5-58,91.6-100.2c-19.3,5.3-38.8,12.9-55.8,23.4
				C1053,363.3,1002.8,408.7,954.8,461.8z"/>
		</g>
            <g>
			<path class="st5" d="M801.6,450.4c-3.3,12.2-7.8,24.1-13.1,35.4c-14.3,30.4-34.4,57.3-54.8,83.7c-1.7,2.2-3.5,4.5-5.2,6.7
				c0.3-1.7,0.5-3.4,0.8-5.1c8.6-55.8,22.5-107,47.3-156.2c7.2-14.2,17.5-27.3,28.9-38.5c0.3,1.5,0.5,3.1,0.8,4.6
				C809.7,404.8,807.5,428.2,801.6,450.4z"/>
		</g>
            <g>
			<path class="st5" d="M1036.7,569.6c-36.9,12.5-76.9,15.7-115.9,10c-29.9-4.3-59.2-13.9-86.2-28.5c-7.2-3.9-14.7-8-21.4-12.7
				c13.7-6.9,39.8-3.8,55.7-3.5c7.4,0.1,14.9,0.4,22.3,0.9c11.8,0.8,23.6,2,35.3,3.7c19.1,2.8,38.1,6.7,56.9,11.9
				c9.4,2.6,18.7,5.4,27.9,8.6C1015.7,561.6,1030.7,568.1,1036.7,569.6z"/>
		</g>
            <g>
			<path class="st5" d="M1018.5,301.2c-6.6,8.5-10.1,16.8-13,22.9c-13,26.8-23.1,55.3-37.1,81.4c-6.3,11.7-13,23.1-20.4,34.1
				c-3.4,5-6.9,10-10.5,14.8c-3.3,4.3-28,31.9-28.3,32.2c1.6-11.1,3.8-20.6,4.9-29.5c1.8-14.6,4.1-29.2,8.2-42.8
				c6.9-22.8,18.3-43.4,33-61.5C972.2,332.1,991.6,314.9,1018.5,301.2z"/>
		</g>
            <g>
			<path class="st5" d="M924.9,624.1c-3.1,1.8-9.2,5.3-11.8,6.5c-30.7,13.7-61.1,11.5-90.2,1c-6.6-2.4-13.2-5.2-19.7-8.4
				c-25.9-12.7-50.6-30.8-73.2-48.6c4.3,0.4,11-0.5,22.7,1.5c16.3,2.8,32.3,6.2,48.3,10.3c12.2,3.1,24.4,6.7,36.4,10.6
				C866.5,606.4,895.6,615.7,924.9,624.1z"/>
		</g>
            <g>
			<path class="st5" d="M912.6,344.5c-4.9,11.3-7.4,17.8-9.5,22.8c-3.9,9.3-8,18.6-12.1,27.8c-4.4,9.9-8.6,19.9-12.7,29.9
				c-7.3,17.6-14.4,35.3-22.2,52.7c-10.1,22.8-21.7,48.3-47.4,60.3c3.7-1.7,5.1-22.6,5.9-27.1c5.6-29.8,10.8-59.2,24-86.6
				c11.5-23.7,27.8-45.4,48.9-62.8C895.4,355.3,903.7,349.6,912.6,344.5z"/>
		</g>
            <g>
			<path class="st6" d="M972.7,449c0,0-5.7,4.4-17.2,12c-8.8,5.8-20.9,13.5-36.4,22.5c-2.7,1.6-5.5,3.2-8.4,4.8
				c-8.4,4.8-17.7,9.9-27.9,15.2c-23.1,12.1-50.6,25.5-82.6,39.2c-20.3,8.8-42.5,17.7-66.5,26.6c-1.5,0.5-3,1.1-4.4,1.6
				c-25.1,9.2-52.1,18.4-81,27.3"/>
		</g>
	</g>
        <g class="st3">
		<path class="st4" d="M808.8,538.1c3.7-1.7,5.1-22.6,5.9-27.1c5.6-29.8,10.8-59.2,24-86.6c11.5-23.7,27.8-45.4,48.9-62.8
			c-7,20.2-9.2,41.8-9.4,63.5c-7.3,17.6-14.4,35.3-22.2,52.7C846,500.6,834.5,526,808.8,538.1z"/>
	</g>
        <g class="st3">
		<path class="st4" d="M834.6,551.1c-7.2-3.9-14.7-8-21.4-12.7c13.7-6.9,39.8-3.8,55.7-3.5c7.4,0.1,14.9,0.4,22.3,0.9
			c1,2.3,2.1,4.7,3.2,6.9c6.9,13.3,17.1,24.9,26.4,36.8C890.9,575.3,861.6,565.7,834.6,551.1z"/>
	</g>
        <g class="st3">
		<path class="st4" d="M508.9,606.2c2.6,30.6-8,64.8-43.7,87.9c-35.6,23.1-90.9,19.7-90.9,19.7c33.8-34.2,36.9-59.6,24.5-64.2
			c-12.4-4.6-48,61.4-48,61.4c-21.6,4.2-58.8-19.1-58.8-19.1c30-14.7,47.8-42.3,33.9-49.1c-13.9-6.8-47.8,42.3-47.8,42.3l-50.4-40.3
			c0,0,20-2.2,43-21.5c2.6-2.2,4.9-4.5,6.7-6.7c11.8,0.8,23.6,1.6,35.4,2.4c14.8,1,48.9,3,63.7-1.2c34.7-9.7,51.4-15.3,78.7-38.7
			c13.6-11.7,22.5-32.2,35.8-42.5c5.8-4.5,5.1-8.7,8.2-7.5C512.7,566.4,508.9,606.2,508.9,606.2z"/>
	</g>
        <g class="st3">
		<path class="st4" d="M924.9,624.1c-3.1,1.8-9.2,5.3-11.8,6.5c-30.7,13.7-61.1,11.5-90.2,1c-6.6-2.4-13.2-5.2-19.7-8.4
			c-1-12.2-1.8-24.5-2.2-36.8c12.2,3.1,24.4,6.7,36.4,10.6C866.5,606.4,895.6,615.7,924.9,624.1z"/>
	</g>
        <path class="st7" d="M893.4,641.2c-6.7,8-13.7,15.7-21,23.1C810.6,726.5,725.9,765.9,632,768.7c-3.6,0.1-7.2,0.2-10.9,0.2
		c-63,0-122.1-16.4-173.3-45.2c-7.5-4.2-14.8-8.7-22-13.4c9.5-32.5,21.5-64.6,33.3-95.4c0,0,0-0.1,0-0.1c0.7-1.9,1.5-3.7,2.2-5.6
		c0.3-0.8,0.6-1.6,1-2.4c0.5-1.3,1.1-2.6,1.6-3.9c1.5-3.5,3-7,4.5-10.6c0.1-0.1,0.1-0.2,0.1-0.3c0.8-1.9,1.6-3.7,2.5-5.5
		c1.2-2.6,2.3-5.2,3.5-7.8c1.5-3.2,2.9-6.4,4.5-9.6c0.5-0.9,0.9-1.9,1.3-2.9c28.2-60,61.2-124.1,54.8-188.2c0-0.4-0.1-0.9-0.1-1.3
		l0-1.7l0-4c0-0.1,0-0.3,0-0.4c5.1,0.6,8.4,5.4,9.4,5.7h0c24.9-31.3,40.3-57.4,49.2-80.4l-2.6-13.2c0-0.1,0-0.1,0-0.2v0l0,0
		c0,0,0,0-0.1,0c-0.1,0-0.1-0.1-0.1-0.1h0c0,0.2-0.1,0.3-0.1,0.5c0,0.2-0.1,0.4-0.1,0.6c-0.1,0.3-0.1,0.5-0.2,0.8
		c-0.3,1-0.6,2.1-1,3.2c-0.2,0.4-0.3,0.9-0.5,1.4c0,0.1,0,0.1-0.1,0.2c-0.2,0.4-0.3,0.8-0.5,1.3c-0.1,0.1-0.1,0.3-0.2,0.4
		c-0.1,0.2-0.1,0.3-0.2,0.5c-0.5,1-0.9,2.1-1.5,3.2c-0.1,0.1-0.1,0.2-0.1,0.3c-0.4,0.7-0.7,1.5-1.1,2.2c-0.3,0.5-0.5,1.1-0.8,1.6
		c-0.6,1.1-1.2,2.2-1.8,3.3c0,0,0,0,0,0h0c-0.6,1.1-1.3,2.3-1.9,3.4c0,0,0,0,0,0c-0.7,1.1-1.4,2.3-2.1,3.5c-0.7,1.1-1.3,2.1-2,3.2
		c-0.1,0.1-0.1,0.2-0.2,0.4h0c-0.6,1-1.3,2.1-1.9,3.1c-0.9,1.4-1.8,2.8-2.7,4.3c-0.4,0.6-0.8,1.2-1.2,1.9c-0.4,0.6-0.8,1.2-1.2,1.9
		c-2.1,3.1-4.2,6.2-6.3,9.3c-0.4,0.6-0.9,1.2-1.3,1.8v0c-0.4,0.6-0.8,1.2-1.3,1.8c-0.4,0.6-0.8,1.2-1.3,1.8
		c-0.1,0.1-0.2,0.2-0.2,0.3c0,0-0.1,0.1-0.1,0.1c-2,2.8-3.9,5.5-5.9,8.1c-0.3,0.4-0.6,0.8-0.9,1.2c-2.5,3.4-4.8,6.5-6.9,9.3
		c-0.2,0.2-0.3,0.4-0.5,0.6c-0.2,0.2-0.4,0.5-0.5,0.7c-0.3,0.4-0.7,0.9-1,1.3c-0.1,0.2-0.3,0.4-0.4,0.5c-0.2,0.2-0.3,0.4-0.5,0.7
		c-0.1,0.1-0.1,0.2-0.2,0.3c-0.2,0.3-0.4,0.6-0.6,0.9c-0.1,0.2-0.3,0.3-0.4,0.5c-0.2,0.2-0.3,0.4-0.5,0.6c-0.3,0.3-0.5,0.7-0.8,1
		c-0.1,0.1-0.2,0.3-0.3,0.4c-0.1,0.2-0.3,0.3-0.4,0.5c-0.2,0.3-0.5,0.6-0.7,0.9c-0.2,0.2-0.3,0.4-0.5,0.6c-1.3,1.7-2.2,2.8-2.7,3.4
		c-0.1,0.1-0.1,0.1-0.1,0.2c0,0,0,0,0,0c0,0.1-0.1,0.1-0.1,0.1c0,0,0,0,0,0c0,0,0,0,0,0v0l-1-118.8l-0.8-97.7l-0.4-44.5
		c0,0,0.9-0.2,2.7-0.4c3.7,5,8.6,12.1,13.9,21.1c0,0.1,0.1,0.1,0.1,0.2c5.4,9.1,11.3,20.1,17,32.7v0c1.4,0.5,2.9,0.9,4.3,1.4
		c3.9,1.3,7.9,2.5,11.8,3.9c0.4,0.1,0.8,0.3,1.2,0.4l-5.5-10.1c0,0,0-0.1,0-0.1l-13.1-24.2c-9.3-11.5-18.6-20.1-25.5-25.6
		c17.6-1.3,67-1.2,123.3,32.5c3.1,1.9,6.2,3.8,9.3,5.9c4.5,3,9.1,6.2,13.7,9.7c14.4,10.8,29,24,43.4,40c0,0,0,0,0,0
		c74.1,82.5,116.7,188.8,140.5,295.9C880.6,540.7,889.7,590.9,893.4,641.2z"/>
        <path class="st8" d="M587.9,249.1c0.4-2.3,0.7-4.5,1.1-6.7c-0.7,3.5,1,9.1,1.4,12.7c0.5,4.4,1.1,8.8,1.8,13.2c0.6,4,1.3,8,2.2,11.9
		c0.4,1.7,0.8,5,2.4,6.2c19.9,15,85.2,57.4,135.9,8.7c0,0,84.2,209.3-23.8,289.5c-99.6,73.9-212.7-3.1-229.8-15.6
		c0.4-1,0.9-1.9,1.3-2.9c28.2-60,61.2-124.1,54.8-188.2c0-2.4,0-4.7-0.2-7c0-0.1,0-0.3,0-0.4c1.5-5-0.7-0.7,0.3-0.4
		c1.2,0.4,15.4-23.9,17-26.5c5.9-9.4,11.7-19,16.6-28.9C579.2,293.9,584.3,271.8,587.9,249.1z"/>
        <path class="st9" d="M591.4,279.7c-8.6,40.6-56.4,90.8-56.4,90.8c-7.5-0.9-19.3-1.9-34.3-2.9c-23.4-1.6-55-3.1-91.7-4.4
		c-1.2,0-2.5-0.1-3.7-0.1s-2.5-0.1-3.8-0.1c-11-0.4-22.4-0.7-34.2-1c-17.5-0.5-35.7-0.9-54.4-1.2c-13-0.2-26.3-0.4-39.7-0.5
		c-3.8,0-7.6,0-11.4-0.1c-1,0-1.9,0-2.9,0c-0.6,0-1.2,0-1.8,0c-12.2,0-24.5,0.1-36.9,0.6c-49.6,1.7-146.9,5.3-169.7-4
		c-2.1-0.9-3.6-1.9-4.3-3c-1.1-1.7-1.9-3.6-2.4-5.5c-0.8-3.2-0.9-6.8-0.5-10.6c0.2-2.2,0.6-4.4,1-6.7c1-5.3,2.5-11,3.9-17
		c0.8-3.7,2.1-7.4,3.3-11.2c7.2-22.7,17.6-47.7,32.8-72.4c8.6-14,18.7-27.8,30.6-41.1c0,0,0.1-0.1,0.1-0.1c1.5-1.7,3.1-3.4,4.7-5.1
		c23.3-24.9,53.2-47.5,91.3-64.8c20.3-9.2,43-16.9,68.4-22.5c13.1-2.9,27-5.3,41.6-7.1c1.8-0.2,3.5-0.4,5.3-0.6c0,0,0,0,0,0
		c1.8-0.2,3.5-0.4,5.3-0.5c24.8-2.5,51.8-3.2,81-1.9c4.8,0.2,9.7,0.5,14.7,0.8h0c31.2,2.1,65,6.4,101.4,13.4c0,0,0,0,0,0
		c0,0,0,0,0,0c0.2,0.3,1.7,2,4.1,5.1c0.3,0.5,0.7,0.9,1,1.4c0.4,0.6,0.9,1.2,1.4,1.8c3.5,4.8,8.2,11.5,13.3,20c0,0,0,0,0,0
		c0.2,0.4,0.4,0.7,0.6,1.1c0,0,0.1,0.1,0.1,0.2c3.4,5.8,6.6,11.8,9.5,17.8c9.3,18.9,16.7,38.7,22.1,59.1c0.2,0.6,0.3,1.2,0.5,1.7
		c0.6,2.4,1.2,4.7,1.8,7.1c0.4,1.6,0.7,3.1,1.1,4.7c1,4.4,1.9,8.7,2.6,13.1c1.5,8.1,2.6,16.3,3.3,24.5
		C591,265.5,590.6,272.7,591.4,279.7z"/>
        <path class="st10" d="M737,308.4c-1.3,0.9-2.7,1.7-4,2.6c-23.1,14.5-50.4,25.4-78.2,22.4c-28.3-3.1-58.6-22-63.2-52
		c-1.2-7.6-0.6-15.4-1.2-23c-0.7-8.2-1.8-16.4-3.3-24.4c-5.3-29.6-14.8-58.7-28.1-85.8c-3-6-6.1-12-9.5-17.8c0-0.1-0.1-0.1-0.1-0.2
		c-6.2-10.6-13-20.5-20.5-29.5c0,0,0,0,0,0c53.4-2.4,96.3,12.6,128.5,31.5c47.8,28,71.9,64.5,71.9,64.5v0.1L737,308.4z"/>
        <path class="st11" d="M539.7,108.8"/>
        <g>
		<path class="st12" d="M273.3,360.2c0-0.1,0-0.2,0.1-0.3c0.2-1.3-0.6-2.6-2-2.8c-10.9-2-18.4-4.2-25.7-6.4
			c-6.5-1.9-13.2-3.9-22.3-5.7c5.2-6.8,9.2-13.3,13.1-19.7c6.9-11.2,13.3-21.7,25.4-31.6c0.7-0.6,1.1-1.5,0.8-2.4
			c-0.2-0.9-0.9-1.6-1.8-1.8c-11.9-2.7-23.6-5.5-35-8.3c-10.5-2.6-21.4-5.2-32.4-7.7c2.8-7.5,5.4-14.9,8-22.2
			c2.8-8,5.8-16.4,8.9-24.7c0.3-0.8,0.2-1.7-0.4-2.4c-0.5-0.7-1.4-1-2.3-0.9c-8,1.4-15.7,2.3-23.2,3.2c-6.3,0.8-12.8,1.6-19.5,2.6
			c4.7-15.2,6.6-29.5,8.5-45.2c0.1-0.7-0.2-1.4-0.7-2c-0.5-0.5-1.2-0.8-1.9-0.8l-51,2.7c-1.6,1.7-3.2,3.4-4.7,5.1l53.1-2.8
			c-1.9,15.6-4,30-9.1,45.2c-0.3,0.8-0.1,1.7,0.4,2.4c0.6,0.7,1.4,1,2.3,0.8c8-1.3,15.8-2.3,23.2-3.2c6.2-0.8,12.7-1.5,19.3-2.6
			c-2.6,7-5.1,14-7.5,20.8c-2.8,8.1-5.8,16.4-8.9,24.7c-0.2,0.7-0.2,1.4,0.1,2c0.3,0.6,0.9,1.1,1.6,1.2c11.9,2.7,23.7,5.6,35.1,8.3
			c9.9,2.4,20,4.9,30.3,7.2c-10.4,9.5-16.4,19.3-22.8,29.7c-4.4,7.2-8.9,14.6-15.2,22.3c-0.5,0.7-0.7,1.6-0.4,2.4
			c0.3,0.8,1,1.4,1.8,1.6c10.9,2,18.4,4.2,25.7,6.4c5.4,1.6,10.9,3.2,17.6,4.7L273.3,360.2z"/>
	</g>
        <path class="st10" d="M744.7,543.5c0,0-112.7,218.6-285.5,71.3c6.1-15.8,13.5-32.1,21.3-48.7C503.3,583.1,643.8,679.4,744.7,543.5z
		"/>
        <path class="st8" d="M367.4,361.9c-17.5-0.5-35.7-0.9-54.4-1.2c10.3-135.9-53.4-207.4-101.7-241.6c20.3-9.2,43-16.9,68.4-22.5
		C384.9,171,378.5,298.4,367.4,361.9z"/>
        <g>
		<path class="st13" d="M409.1,363.2c16.1-66.4,19.3-148.9-28.2-220.9c-16-24.3-34.1-41.9-49.1-53.9c-1.8,0.2-3.6,0.3-5.3,0.5
			c0,0,0,0,0,0c-1.8,0.2-3.6,0.4-5.3,0.6c15.5,11.6,36,30.1,53.6,56.8c46.4,70.4,42.9,151.5,26.8,216.6L409.1,363.2z"/>
	</g>
        <path class="st14" d="M204.9,361.2c-13.6,0.5-29.2,0.9-45.2,1.3c-51.7,1-107.6,0.3-113.4-8.8c-2.9-4.5-3.5-9.9-2.8-16.1
		c0.2-2.2,0.6-4.4,1-6.7c1-5.3,2.5-11,3.9-17c0.8-3.7,2.1-7.4,3.3-11.2c7.2-22.7,17.6-47.7,32.8-72.4c1.5-2.5,3.1-4.9,4.7-7.4
		c6.8-10.3,14.4-20.5,23-30.4C154.9,218.5,208.8,269.7,204.9,361.2z"/>
        <g class="st15">
		<path class="st4" d="M657.4,132.3C659.1,135,654.6,129.7,657.4,132.3L657.4,132.3z"/>
	</g>
        <g class="st15">
		<path class="st4" d="M893.4,641.2c-6.7,8-13.7,15.7-21,23.1C810.6,726.5,725.9,765.9,632,768.7
			c151.2-128.1,175.4-306.7,146.9-416.1c-18.5-71.1-47.3-145.7-92.9-195.8c-0.2-0.2-0.3-0.4-0.5-0.6c-4.9-5.3-23-19.4-28-24
			c47.8,28,71.9,64.5,71.9,64.5v0.1c0,0,0,0,0,0c74.1,82.5,116.7,188.8,140.5,295.9C880.6,540.7,889.7,590.9,893.4,641.2z"/>
	</g>
        <g class="st16">
		<path class="st17" d="M535.5,109.1c7.2,8,37,59,46.5,102.1c-268-9-338,48.2-533.7,102.7c1-3.6,2.1-7.4,3.3-11.2
			c11.2-35.4,30.4-76.7,63.4-113.6c0,0,0.1-0.1,0.1-0.1c1.5-1.7,3.1-3.5,4.7-5.1c23.3-24.9,53.2-47.5,91.3-64.8
			c20.3-9.2,43-16.9,68.4-22.5c13.1-2.9,27-5.3,41.6-7.1c1.8-0.2,3.5-0.4,5.3-0.6c0,0,0,0,0,0c1.8-0.2,3.5-0.4,5.3-0.5
			c24.8-2.5,51.8-3.2,81-1.9c4.8,0.2,9.7,0.5,14.7,0.8h0c31.3,2.1,65,6.4,101.4,13.4c0,0,0,0,0,0
			C529.3,101.1,531.3,104.4,535.5,109.1z"/>
	</g>
        <g class="st18">
		<path class="st17" d="M283,153.5c1.3-0.8,2.7-1.5,4-2.3c2.5-1.4,5-2.9,6.8-5.1c2.6-3.1,2.9-7.4,1.7-11.1c-7.8-23-48-11.5-63.7-6.4
			c-34.1,11.1-69.2,36.4-94.2,62.3c-7,7.3-14.9,15.8-19.2,25c-3.7,7.8,0,13.1,8.8,10.5c29.2-8.6,57.2-22.2,84.2-36.1
			C235.2,178,259.6,166.7,283,153.5z"/>
	</g>
        <g>
		<ellipse class="st13" cx="646.4" cy="207.7" rx="44.6" ry="43.4"/>
            <ellipse class="st19" cx="643.8" cy="207.2" rx="34" ry="33.1"/>
            <ellipse class="st20" cx="643.5" cy="207.4" rx="24.2" ry="23.6"/>
            <g class="st21">
			<path class="st17" d="M618.8,178.9c-3.7,4-6.9,8.9-8.7,14.1c-1.4,4.1-1.9,14,5.3,13.1c1.3-0.2,2.5-0.8,3.7-1.5
				c5.7-3.6,10.5-6.5,16.8-8.9c7.6-2.9,21.4-13.9,10.2-22c-5.5-4-13.8-2.5-19.6-0.1C623.4,174.9,620.9,176.7,618.8,178.9z"/>
		</g>
            <g class="st3">
			<path class="st4" d="M691,207.7c0,24-20,43.4-44.7,43.4c-13,0-24.8-5.4-32.9-14.1c6.9,4.2,19.7,8,28.3,8
				c24.7,0,41.2-18.4,41.2-42.4c0-11.3-5.7-24.2-13-31.9C682.7,178.5,691,192.1,691,207.7z"/>
		</g>
	</g>
        <g class="st22">
		<path class="st17" d="M507.1,548c-12.7,24.5-25.4,49.1-34.7,75.2c-6.8,19.1-15,38.7-15.5,59.3c-0.4,16.1,11.9,32.3,28.8,32.5
			c19.3,0.3,35-22.1,40.5-38.3c8.2-23.6,11.3-49.8,18.1-74c6.8-24.6,13.4-50,10.7-75.7c-0.8-8-4.2-19.5-13.2-21.5
			C523.3,501.4,513.3,536.1,507.1,548z"/>
	</g>
        <g class="st3">
		<path class="st4" d="M248.9,614.7c-13.9,8.4-27.7,15.3-27.7,15.3c-6.6-4.1-12.5-12.1-16.3-18.3
			C224.3,620.6,234.2,613.7,248.9,614.7z"/>
	</g>
        <path class="st9" d="M598.9,293.1c0,0.1,0,0.3-0.1,0.4C598.7,293.8,598.8,293.5,598.9,293.1z"/>
        <path class="st23" d="M202.2,321.5"/>
        <path class="st24" d="M644.5,135.8c2.7-5.3,9.5-8.2,15.2-6.4c5.7,1.7,9.7,7.9,9,13.8"/>
        <path class="st25" d="M660.6,170.3"/>
        <path class="st25" d="M695.2,209.9"/>
        <g>
		<path class="st23" d="M581.7,209c-16.9,30.4-54.6,56.6-112.3,77.9c-48.3,17.9-110.5,32.3-184.8,42.8
			c-109.3,15.5-213.3,18-240.6,18.4c0.5,2,1.3,3.8,2.4,5.5c0.7,1.1,2.2,2.1,4.3,3c35.1-0.7,132.7-3.8,235-18.4
			c74.9-10.6,137.7-25.2,186.7-43.3c54.9-20.3,92.6-45.2,112.2-74.2L581.7,209z"/>
	</g>
</g>
</svg>
