<svg id="Layer_1" data-name="Layer 1" xmlns="http://www.w3.org/2000/svg" viewBox="0 0 95.83 94.33">
    <defs>
        <style>
            .cls-1{fill:#e04575;}.cls-2{fill:#f7e009;}.cls-3{fill:none;stroke:#f08ba9;stroke-linecap:round;stroke-linejoin:round;stroke-width:1.28px;}
        </style>
    </defs>
    <title>nuftu_deco3</title>
    <path class="cls-1"
          d="M76.92,19.71C76.11,11,66.13,1,57.61,2.06,50.75,3,41.78,8,39.37,14.66c-2,5.6.47,11.72,2.91,17.15-4.9-8.85-18.67-12.15-28-10.73-3.11.47-6.35,1.58-8.26,4.1A15.25,15.25,0,0,0,2.74,35,18.42,18.42,0,0,0,6.88,46.1c2.79,3.7,7.1,7.09,11.21,4.95A24.31,24.31,0,0,0,8.45,69.42c-.59,9.19,7.89,17.46,17.07,18.08S43,83.89,47.34,75.8A17.76,17.76,0,0,0,53.4,93.64a12.06,12.06,0,0,0,13.62,1c3.56-2.31,7.56-6,8.37-10.15,1.11-5.63-.94-13.16-4.87-17.34,3.71,3.28,9.24,4.07,14,2.61a21.43,21.43,0,0,0,11.35-9.11,14.71,14.71,0,0,0,2.7-8c-.11-7.5-7.61-12.82-13.87-15.4-8.35-3.44-12.07-1-19.34,2.39,3.61-1.66,6.09-5,8.09-8.48a24.33,24.33,0,0,0,3.48-9A11.4,11.4,0,0,0,76.92,19.71Z"
          transform="translate(-2.71 -1.98)"/>
    <path class="cls-2"
          d="M59.36,35.63C58.26,40.55,55.85,42,57.43,45c1.85,3.44,6,3,10.49,3.5-2.6,1.65-4.78.86-6.8,1.64a1.32,1.32,0,0,0-.4,2.19c1.35,1.21,2.7,1.53,4.67,2.69-2.55.44-4-2.29-6.74.2l-.14.14c-1.4,1.79-.18,3.94.19,6a7.32,7.32,0,0,1-1.65,6.06,16,16,0,0,0-5.19-10.45,1.67,1.67,0,0,0-2.6.39,24.48,24.48,0,0,1-10.46,10,27.3,27.3,0,0,0,5.88-10,1.15,1.15,0,0,0-1-1.5C40,55.55,36.59,57.63,34,60.24c.72-2.52,3.35-4.51,5.84-5.73,1.28-.62,2.9-1.33,2.69-2.93a2.58,2.58,0,0,0-.44-1.1c-2.58-3.81-6.88-5.89-11.23-7.43,4.42-.51,8.55,2,12.49,3.62a1.07,1.07,0,0,0,1,0,1.14,1.14,0,0,0,.4-.77,7.86,7.86,0,0,0-.4-4.25,5.86,5.86,0,0,0-2.72-3.86c4.41-.4,4.66,7.69,9.09,7.56C54.57,45.23,56.18,39.45,59.36,35.63Z"
          transform="translate(-2.71 -1.98)"/>
    <path class="cls-3" d="M61.09,37.76a47,47,0,0,0,5.09-8.45,15.78,15.78,0,0,0,1.18-9.65"
          transform="translate(-2.71 -1.98)"/>
    <path class="cls-3" d="M56.69,34.79a55.56,55.56,0,0,1,2.87-19.94" transform="translate(-2.71 -1.98)"/>
    <path class="cls-3" d="M53.16,35.15c-1.18-.66-1.6-2.13-1.9-3.45-.7-3.08-1.33-6.18-1.85-9.3-.48-2.82-.85-5.78,0-8.5"
          transform="translate(-2.71 -1.98)"/>
    <path class="cls-3" d="M47.91,62.83A29.58,29.58,0,0,1,29.6,78.15" transform="translate(-2.71 -1.98)"/>
    <path class="cls-3" d="M38.07,61.17c.21.16,0,.49-.21.66A68.48,68.48,0,0,1,22.93,71.1"
          transform="translate(-2.71 -1.98)"/>
    <path class="cls-3" d="M30.27,56.63l.43-.38a34.18,34.18,0,0,0-14.08,12.1" transform="translate(-2.71 -1.98)"/>
    <path class="cls-3" d="M54.41,65.83c0-.15-.27-.16-.38-.06a.66.66,0,0,0-.15.43,39.13,39.13,0,0,0,1.39,15.14"
          transform="translate(-2.71 -1.98)"/>
    <path class="cls-3" d="M59.25,69.17a26.84,26.84,0,0,0,1.18,10.57" transform="translate(-2.71 -1.98)"/>
    <path class="cls-3" d="M61.41,65.36C63.86,68.82,65,73,66,77.14c.46,1.93.88,4,.25,5.86"
          transform="translate(-2.71 -1.98)"/>
    <path class="cls-3" d="M68.38,48.41A22.14,22.14,0,0,1,83,46.74" transform="translate(-2.71 -1.98)"/>
    <path class="cls-3" d="M69.31,51.56c4.15.49,8.32.91,12.48,1.27" transform="translate(-2.71 -1.98)"/>
    <path class="cls-3" d="M67.13,55.52A32.29,32.29,0,0,0,83,63.18c.45.08,1.06,0,1.17-.4"
          transform="translate(-2.71 -1.98)"/>
    <path class="cls-3" d="M39,36.92a32.4,32.4,0,0,0-12.07-8.55" transform="translate(-2.71 -1.98)"/>
    <path class="cls-3" d="M34.28,39.27a32.7,32.7,0,0,0-13.77-7.49" transform="translate(-2.71 -1.98)"/>
    <path class="cls-3" d="M29.38,44.3a27.46,27.46,0,0,1-15.3-7.36" transform="translate(-2.71 -1.98)"/>
</svg>