<svg id="Layer_1" data-name="Layer 1" xmlns="http://www.w3.org/2000/svg" viewBox="0 0 85.49 95.12">
    <defs>
        <style>.cls-1{fill:#275f2a;}.cls-2{opacity:0.24;}</style>
    </defs>
    <title>nuftu_deco2</title>
    <path class="cls-1"
          d="M92.63,70a30.21,30.21,0,0,0,3-15.32s0,0,0,0l-2.51-7.59a37.09,37.09,0,0,1-2.56,4c-2,2.75-4.93,5.85-7.57,5.44s.39-5.67,3.4-9.87c2.06-2.87,4-5.24,4-5.24s-4.91-14.5-10.35-17.71c0,0-1.53,5-3.77,10.2-.13.31-.26.61-.4.92-2.78,6.22-6.5,12.27-9.74,9.8-4.82-3.67,1.46-7.16,4.87-13.65A18.1,18.1,0,0,0,72.32,28,15.78,15.78,0,0,0,72.93,25s.36-5.87-.37-7.82l-14.35-8s.19,4.1,0,8.64a40.75,40.75,0,0,1-1.07,7.93c-.58,2.16-1.44,3.7-2.7,3.91-1.62.27-2.24-1.91-2.4-5-.15-2.75.06-6.2.22-9.27.19-3.5.32-6.49-.22-7.32L41.22,7a32.09,32.09,0,0,1,1,5.91c.21,3.37-.28,7.07-3.24,7.8h0A2.76,2.76,0,0,1,35.63,19a12.78,12.78,0,0,1-.81-6.67C35.11,9.75,36,7.46,37.15,7c0,0-12.54-.89-14.6-3.46L21.5,5.2C19.19,9,13.87,18.05,14.42,19.38c0,0,11,.55,8.94,5.09S13.22,22.3,13.22,22.3s-.38,1.11-.75,2.68a17.48,17.48,0,0,0-.42,7.36S16.47,33.81,21.2,35c3.61.89,7.41,1.6,9.58,1.36,4.44-.49,2.72,4.47-4,5.08a16,16,0,0,1-2.85,0c-9-.77-13.71-4.56-13.71-4.56l2.15,19.31s17.67-3.24,19.17,1.16-8.16,6.49-17.66,3.24c0,0,3,12.87,8.44,16.57,0,0,21.62-6.47,23.3-2.85s-4.4,8.36-18.86,8.45c0,0,11,12.48,23.52,15.15s22-2.34,28-9.41C78.31,88.47,87.61,80.82,92.63,70ZM49.37,39.1c-1.14-.91-1-3,.3-4.62a5,5,0,0,1,1.38-1.21,2.7,2.7,0,0,1,3.06-.09,2.73,2.73,0,0,1,.56,3.07,5.27,5.27,0,0,1-.86,1.54C52.5,39.43,50.51,40,49.37,39.1ZM61.65,53.94c-1.18-.86-1.13-2.93.1-4.62S65,47,66.14,47.83s1.13,2.94-.11,4.62S62.83,54.81,61.65,53.94Z"
          transform="translate(-10.27 -3.49)"/>
    <g class="cls-2">
        <path d="M78.31,88.47c-6,7.07-15.5,12.08-28,9.41S26.81,82.73,26.81,82.73c14.46-.09,20.53-4.82,18.86-8.45s-23.3,2.85-23.3,2.85c-5.48-3.7-8.44-16.57-8.44-16.57,9.5,3.25,19.17,1.16,17.66-3.24s-19.17-1.16-19.17-1.16L10.27,36.85S15,40.64,24,41.41a16,16,0,0,0,2.85,0q3.51,4,7,8c2.94,3.37,9.78,11,13.81,13.31,9.46,5.32,14.18,7.69,25,8.52,5.39.41,11.63-2,16.65-1.43,2.19.28,2.93-.75,3.36.15C87.61,80.82,78.31,88.47,78.31,88.47Z"
              transform="translate(-10.27 -3.49)"/>
    </g>
</svg>