<svg id="Layer_1" data-name="Layer 1" xmlns="http://www.w3.org/2000/svg" viewBox="0 0 96.92 95.54">
    <defs>
        <style>
            .cls-1{fill:#fbcc06;}.cls-2{fill:#e7b424;}.cls-3{fill:none;stroke:#ffe9b0;stroke-linecap:round;stroke-linejoin:round;stroke-width:1.28px;}
        </style>
    </defs>
    <title>nuftu_deco1</title>
    <path class="cls-1"
          d="M45.06,5.48C37.5.33,22.79,1.69,18,9.27c-3.85,6.1-5.78,16.66-2,23.06,3.17,5.35,9.74,7.42,15.73,9.07C21.36,39.45,9.53,48.33,4.46,56.79,2.77,59.61,1.51,63,2.26,66.16A15.89,15.89,0,0,0,8,75.3a19.16,19.16,0,0,0,11.72,4.09c4.83.22,10.43-1,11.45-5.72a25.41,25.41,0,0,0,8.36,20c7,6.59,19.29,5.27,25.9-1.7s8.7-16.43,5.11-25.35a18.53,18.53,0,0,0,18.38,7c4.87-.86,9.32-5.36,9.89-10.28.51-4.39.21-10.07-2.59-13.49-3.8-4.63-11.22-8-17.2-7.61,5.11-.81,9.43-4.73,11.4-9.51a22.41,22.41,0,0,0,.23-15.2A15.46,15.46,0,0,0,86,10c-6.11-4.9-15.38-2.41-21.63.91C56,15.36,55.54,20,53.39,28.08c1.07-4,0-8.26-1.44-12.15A25.1,25.1,0,0,0,47,7.15,11.83,11.83,0,0,0,45.06,5.48Z"
          transform="translate(-2.04 -2.41)"/>
    <path class="cls-2"
          d="M46.17,30.21C49.4,34.37,49,37.28,52.4,38c4,.8,6.47-2.84,9.8-6.11-.41,3.19-2.49,4.42-3.21,6.56a1.38,1.38,0,0,0,1.5,1.78c1.87-.28,3-1.15,5.28-2-1.35,2.34-4.52,1.7-4.34,5.56a1.52,1.52,0,0,0,0,.21c.5,2.31,3,2.76,4.93,3.81a7.69,7.69,0,0,1,3.78,5.37A16.68,16.68,0,0,0,58.31,50.4a1.75,1.75,0,0,0-1.42,2.35A25.56,25.56,0,0,1,58,67.85a28.65,28.65,0,0,0-4.14-11.41A1.21,1.21,0,0,0,52,56.26C49.3,59,48.72,63.16,49.1,67c-1.55-2.26-1.41-5.69-.73-8.51.35-1.44.86-3.22-.56-4.11A2.65,2.65,0,0,0,46.63,54c-4.79-.46-9.32,1.61-13.46,4.08,2.54-3.88,7.31-5.53,11.23-7.63a1.15,1.15,0,0,0,.64-.79,1.19,1.19,0,0,0-.35-.83A8.29,8.29,0,0,0,41,46.3a6.16,6.16,0,0,0-4.92-.38c2.62-3.82,9.3,1.37,12.13-2.28C50.71,40.44,47.13,35.3,46.17,30.21Z"
          transform="translate(-2.04 -2.41)"/>
    <path class="cls-3" d="M49,30.23a49.15,49.15,0,0,0-3.41-9.72,16.44,16.44,0,0,0-7-7.37"
          transform="translate(-2.04 -2.41)"/>
    <path class="cls-3" d="M43.72,31.79A57.87,57.87,0,0,1,29.59,16.21" transform="translate(-2.04 -2.41)"/>
    <path class="cls-3" d="M41.66,34.87c-1.32.51-2.78-.13-4-.77-2.95-1.49-5.86-3-8.72-4.7-2.58-1.5-5.2-3.16-6.82-5.67"
          transform="translate(-2.04 -2.41)"/>
    <path class="cls-3" d="M60.43,57.51a30.91,30.91,0,0,1,.15,24.93" transform="translate(-2.04 -2.41)"/>
    <path class="cls-3" d="M52.55,64.33c.27-.07.4.32.4.6a71.6,71.6,0,0,1-2.49,18.18"
          transform="translate(-2.04 -2.41)"/>
    <path class="cls-3" d="M43.71,67.58l0-.6a35.74,35.74,0,0,0,.36,19.38" transform="translate(-2.04 -2.41)"/>
    <path class="cls-3" d="M67.18,54.29c-.15-.07-.32.1-.3.26a.73.73,0,0,0,.24.41,41,41,0,0,0,13.1,8.95"
          transform="translate(-2.04 -2.41)"/>
    <path class="cls-3" d="M73.09,52.61a28.16,28.16,0,0,0,9.28,6.09" transform="translate(-2.04 -2.41)"/>
    <path class="cls-3" d="M71.46,48.34c4.42.33,8.57,2.18,12.54,4.14,1.85.91,3.78,1.94,4.87,3.7"
          transform="translate(-2.04 -2.41)"/>
    <path class="cls-3" d="M62.46,31.45a23.11,23.11,0,0,1,8.39-12.88" transform="translate(-2.04 -2.41)"/>
    <path class="cls-3" d="M65.61,32.79q4.74-4.51,9.33-9.19" transform="translate(-2.04 -2.41)"/>
    <path class="cls-3" d="M67.35,37.19a33.85,33.85,0,0,0,16.73-7.68c.37-.31.75-.83.46-1.21"
          transform="translate(-2.04 -2.41)"/>
    <path class="cls-3" d="M33.65,47.46a33.68,33.68,0,0,0-14.91,4" transform="translate(-2.04 -2.41)"/>
    <path class="cls-3" d="M32.42,52.8a34.2,34.2,0,0,0-15.2,6.09" transform="translate(-2.04 -2.41)"/>
    <path class="cls-3" d="M33.19,60.09a28.6,28.6,0,0,1-16.1,7.41" transform="translate(-2.04 -2.41)"/>
</svg>